<mxfile host="65bd71144e">
    <diagram id="6avv5dAX3XD_nzLIiqw0" name="Page-1">
        <mxGraphModel dx="2055" dy="1431" grid="1" gridSize="10" guides="1" tooltips="1" connect="1" arrows="1" fold="1" page="1" pageScale="1" pageWidth="827" pageHeight="1169" math="0" shadow="0">
            <root>
                <mxCell id="0"/>
                <mxCell id="1" parent="0"/>
                <mxCell id="146" value="" style="rounded=0;whiteSpace=wrap;html=1;strokeWidth=3;" parent="1" vertex="1">
                    <mxGeometry x="50" y="1639.75" width="830" height="648.5" as="geometry"/>
                </mxCell>
                <mxCell id="103" value="" style="rounded=0;whiteSpace=wrap;html=1;strokeWidth=3;" parent="1" vertex="1">
                    <mxGeometry x="80" y="440" width="920" height="710" as="geometry"/>
                </mxCell>
                <mxCell id="2" value="Identify the LSCAJs&amp;nbsp; for the following 2 programs:" style="text;html=1;strokeColor=none;fillColor=none;align=center;verticalAlign=middle;whiteSpace=wrap;rounded=0;" parent="1" vertex="1">
                    <mxGeometry x="50" y="90" width="310" height="30" as="geometry"/>
                </mxCell>
                <mxCell id="3" value="" style="shape=image;verticalLabelPosition=bottom;labelBackgroundColor=default;verticalAlign=top;aspect=fixed;imageAspect=0;image=data:image/png,iVBORw0KGgoAAAANSUhEUgAAAeAAAADiCAIAAAAZCYN9AAAACXBIWXMAAA7EAAAOxAGVKw4bAAAgAElEQVR4nO3dd1xNbxgA8Pfce9t7D1oIISXSEO1SSbuMiERW2cne2URWxo8UomHLTrbsyMgsob3Hvd17zvn9UZndReXK8/30B3ec877nvOc573nPue+D0Rl1CAAAgOCh/OkCAAAAaBoEaAAAEFAQoAEAQEBBgAYAAAEFARoAAAQUBGgAABBQEKABAEBAQYAGAAABBQEaAAAEFARoAAAQUK0VoFkZ61xMhsbkEq20PgAA+OvxFqDpuVf3Lh3r7Whm3LtHL/N+zsMnrbv0sTViLfNT2uYAyz7WK+6yWmFtAAAgSGhcP0FWPdo6ISQ6W8drzMygPlry1Nr8148f16kptHTnm55zNnLeissSuvJYC68JAAAEEdcAzXy6e+nON11nxm4N6Chc/5JuVwOLxrdr357bsmHP6Xvvy0hprV72o6ZMdNeTwhBCiCi9F7ti/YG0rDKKYjeHUR7iwl8XSpY/PRK1ef/5jI90cQ0Dh8AZIe5dJX4Iw6y8u1eL+q096Ju30GnTN6+TxWdn+ax447EtIUSf++kFAAD+Wty6waynp1OyFZ3HDuko/PObZNGFBUGLrsr6rY8/dT5xY5Dm41XjwhNyCYQQkZs4I3T7m27TYk6nnIye2OnOroT3eMPXiNzDsyZvy+07L/b0lTM7J2vdXz5p5eVy8oeF07S9ItaNN1XAiB/GUjAMwxBGgW41AKCN4xKgyaqcd4UU3e6dmwjPCM85tf8i5hI+z6u3trKyhr5r2IJhiul74p+yEP72TPJ9UZcZM526qSooa/cdMXekQeOqWJlJ+x9oBy4INNdSkFXs5Bg62rzi8slb1TyWGJN3XHvpWvKkHtB9BgC0bTxFOQxrsruKv335Dul6dRf9srCOBt1E92a9Kie75rz7gHX269H4FkVet4si5TFCCJFVr7I+MjKj/Kx3NLzJqmXU6RdXEkgSHvoDAIAvuARoTLKdhjyR9uI1E/X+uRNNIhIh8oeX6sM5SSKEfRNvMRqN1hDlSZLExPvNOTTH4usSMWHpFr/pCAAAfxduUZHWw95K+fPpmBMf8Z/f69S1I8p68oTe+ALr9eNndBXdTtIYVUOrHfn6+cvGdFpkVc77wvolYFIdOirXvc4qkFH5SllOjNpcVQIAgLaBOn/BAo4foLXrppGXsndn0oMKISkxKrOq6OPrzHvpnyQ6a8jIaspkJ+049k6hWxdlkersKztWRD3SnrBwVE8ZqqxS3e2DcWmlmvqd5SilL85sijqcVSZvOsTLUJqq3J52/9DOk1liWtqKIqyyTy9upKRX6nRRE2lyIIX+/HRcuozzyAHt6k8mZMmFcLegnZV9PI2VodMNAGjDuI9BY4qWi2N399y1JyFm8eHP5QxMREa9s8UYPTeEMHmbxbuX79j433TvlUUsCU1D+1nRIV6aVIQQVXvIhk21Kzas8XcsQYrdBwbPmlEx/Xj9EqmaQzZGi2zbfmBx4MbCGoqUehdTnzAP3p/KIAichf/40AcAALQ1GGT1BgAAwQSDBAAAIKAgQAMAgICCAA0AAAIKAjQAAAgoCNAAACCgIEADAICAggANAAACCgI0AAAIKAjQAAAgoCBAAwCAgIIADQAAAgoCNAAACCgI0AAAIKAgQAMAgICCAA0AAAIKAjQAAAgoCNAAACCgIEADAICAggANAAACCgI0AAAIKAjQAAAgoCBAAwCAgIIADQAAAgoCNAAACCgI0AAAIKBaO0Cz7q22s1p6g/nTG8Sn5FneDtYWPY2CDuQRP7xJlpwKsRqx6zX+i2utuzzTzCMy81e//hX+PGaiq6NNHwOTKWfpv720lsK6GzVk0EAzY6MBy27/uKXx7H2jbIOTCn7cxJzh2buHmU04XkE2XyH/oN9tTgC0Fl4DNFH2eF+oc+/BUU9bqFVT1D3XJp49NKkXrYk3MZk+/rPG2bajtsy6eUfVC9h28sz2gA4CfeVBMw6JP3Vyw2AF7Of3qCpWQTMCzeQFugIIkRUPtwf6TIh7Xt1wTmB9Stsa4uvQ16i3oZm1g1/o1vSvZwvG9WWjtjxn8bzwP9KcyPLTU8cf/MzbiZGsfLpnvM+4vU+r+DglEoU3tk3ycujnvvE+79sCCLamwuGPyOrMQ+FhBxjd2kk2x2GNYVgTgYMzqqqJi+pvr/b3FtBGiGpbOGvz/a3W3Xh4zuGw8Ct91u/11xNHCCFE5B9bGH5BddH2c5bthGqL3j19wdSWbCwS6+W9R2VUbz6W3wzNiW+MJ+mPGF14/DAm1SNw3dzywJmzZfds9uDtTIK/OrzuQLVXfKq/hvBvlBMIFF4CNCYqr+O0aJ812uUS8dObdZdn2hxSHav18sKzgpJyqp7vwoUjDWUw1sP1LtOqF15Y2E8IIcR6sHrwlJp5l5f0wxBCtMp7WyevPP44nyXfy3f2iknmihziPllydsn4jdc+55VoTE6OHavzpa3ihekxa6MSrz0vqKVJqxuOWrdlZDcOtcGohWlrAmZdeFGM1PoFLF440lAGQwjhRXd2RWw8nJ5bQ5HTcxg3f4ZrJzGEEFmecWjV2rgrbyqQZAerUbPCh+rLcApReP71Xcs3Jt37XEtV7Ok5dUGojRoNIUR/Hr9iw4GbWQXVOFVBzzlkUfjA9jSyNHmi58VuAVIPzr2pqC6jK9tOWzrLTp1t2cniI+N9r+n7Szy4/LqkuFK8z7jFc706iyJE5KdtXb495UFORR0S0zQdPn9RQC9OpcRzEsJC9jz+lF/Ra/7ZaC/5+o+yHq4fvLLWwzj/4r38mvIqoe5DFy/x7ymJIVTz/PCKhTvSsnFpXRvPrl9CNP4uesTMyqBQocQtp16U1ol1n7BtwxAtKmLmXtyyetPxRwV1IsoGrlPmTbRrL4S/2jls+WcTpZdnHmKOEwdXnDx0o1B7/Nb1vtpUsiYree2q6EtZZYSEzoDR8+f46UvVr4LIP7EuqtA1OqiHeGPRieL8AmpXP8uOcmIIibXXH9C+/nXGo5jZm85kPHtbRJ3ifEYIYaJW8+Ln9hNiW8immxP+bs+o4Ff9B9fdvPKhqqKc0HELWznRVB5DCP90Yf3iLdeK8Jq89wU1SETeYlbsNr927BosUXR7+7INCfc/1eBUCTX9YQvWje0lSpbe2LJo14WMF4VVV/1dDlARRck1ImaiPg2xHqz23KAQPrRg747Ud2W4ZP+wPSsGNlz3YJK9Jsyx95m6IWXAukFNXQv91E5qqugi7bRVITq3JTx1ialqZs59lWg4jjd5wVV3/0KO9dr9B4+f3DsGi5sVlV7DcWlEwc37khMPXLp29cAY8ePzVpwv4XQZh8kPXHzk3LFwC6HvXma9igmZmkQMWnns6q075+PWTnPsxPlcw3p99UXnRYmXbl/a4V6xd2Z9IfHsA7PCL6qGxKdev5US6VK8ZcKqa+UkIotSFobGY8N3Xr5xLXXvSNqhafNP5nO4NmW9iZ0697pOePy1m2kn5ne6uSA85i2OEELCyl2tR21MvHD71sU4f+HTEdHXaxFCCJFVV1OyB66NS0w6njBd+dzy6Ju1HAtPVly9Wj18S2zisWPRroXr5+x9xkIIUeQ0+wwO33P+2vXbp5YZvdm+OvkDx/EnqqbP+uNn9k3q8WOHjPUy5bpi6L7DR06e2OyYt31lUi6BUN3jnbM2fbTadOZ2WvLK3q9Tn34zmo3nJmxJ1ZkVc/7yxUvxy1w1qQjVPdk+bVGG/rKjV+5cS1zRJ3NpyPbHDIQQYj3PVZ2x/78R1LioTNuo+BWmL5Mu5uBkRdrK0G0VbtHnrt25EO1dvSd0zdWGMQs891TiPV0fn27fRBqaro2Txu2N8/emvir79vJdxDAgcm/sfBsp7aGbzqScPn8maW4/IfaFZNucECLyLlyqGxGVkJB4Zt9wdHDlvqc4QmRZytqF6T0jEpJPnT8yp69Mz5B9W9lHZ4Twp7GrjggHJqZdT79xNn55sF0nEYQQJtcvZPPemBAjsR5j406fPp9y8sBE/cbWynq+PzrDfGnihYvXzsaGW8p/G4nFevp4tL95OIXHcRGESARXiW1Mc4xZUBQtBprIUhCiKtu5mdWmpWZyHgIT6e3t202agkQ1nUfYi926/JD/2234yzMn3xiOm+droCIuJCKt3r2LCpeOAyY3wMe1gxiGSXT2G2pWnZaayUL4+/MnnnUfPtZcRQhRJDp6BA0SOZ98vZIsTj15Xd1jnH17MQwTbWcT7Nv+ZvKln+5cfluYE28MhwUZK9AQVb6Pr4vOy4vXPhMIIYqCoU2/TnLCGCaqY2fVlVGQ3zCkStV29OmvSEUIkzUw6ljzIbuU8zFI7Wjt2E0cISSs5exsmHsl7T2OEBLWMbM3VJOgIqp8H/u+ckWfC37xJp6osbe3rhhCSFi7dw+ZT+9zcYRnpV7J6+3try9NwUQ1nfwcVL9rKh3cggbpiGMI0aSkJTCEWE9PnS7qHzDSUI6KqLI9/QMsS08kP2AihDD5jrpKNFUNdbEO3fQkhBSVZCtKysiqG8mXxFwDB+mIYZiYtpu3GePKpUf1p4Cap49eqxkZfH9ZJaQ3fueuSTovd04cZOU9bf2JF7zcr/yxkBwJ9XD1M5DCEKKpGBq2K3j3oQ4h4uObbKxrT11RhKhqPXvIZb/O5rifMCXN9syMM/EXnhYwRVW66etIcQ2YJOrpPcFSTQQhJCwlLfb956nqRgZyLx9lcj9AWJXZNy7eK1fVVBXwmwuAP7wMcXCDiUuKNzQsqpSMRFVh2U+tmPzmcMLE5GTFGv4pryTPfFNaQyIx/k79RHFhmVQ7de7t/wuKtLxsQ89RSF5RuqqwjEBkcVGxiIJC42AmRUFRgXW3oJxVUlSEFJQUGj5OUVRSQIUFRSRSZ1eY/OKaW6ucLdfV/x+vo7UzqyQQotS+O/vfnuQ7OVUUIRpe+Iql6tiwHSiy8rINRxKFQkEEwSXcYGISDZsYE5OWFqooLSMRwovvHd4em5pZzKQJUaqzS3HbX4zPmJicnChqLA5GEARCRFlphZiCfONa5RTkKNlfv0FRUJD9LhLgxYVl0u0VG/ulNEUVuarMQjpSRJiwiDBCCMMwEVERDGEUjCQRUVpQWJt7a4J9Yv3ySWYdaVrJREgYEdVl5aS0zE9jNZiUrsvkVS4TK99ejV+7Yuzkiri9/locB2d/KiTnjSDzzS7BEEkQCFHademApd3LrOrfSyjn7uOyTg4dOK9RzXPNAblDu+NmD14hauwXGjbOktt4MCauIM/+5IFJycrgr8trSSTOvqmTJUeD7ZdcR6qW0yNHdPrjN9JBc2qOAE2UF5awEKIihOqKiyqk5OQoCFEoFBJvvOJmlhRXEI0DiiS9oqIOISGEEFleWiEsK8+h8bFBkVOUqXqTX0UiWR6/S1RVVBH1hcQryquk5OQoCFNSVmLcL6wkkTyGECKKCotoCkoyNEVlJSwtvxBHUlSEEFGYX4wUjRTZroiioCQvZRt6fpW1+Hev45m7Z86/Y7d321J9aQrx+WCA25Wvb/J5QiopKiVQOwpCZGVhEUNGWw4jy84vnRojMndfjLOaMGLeXOI0n69Ffufne4AUGTnp2rdltQ07qqK88oez7g99PUVl+Yq8gjqExBBCiFmUVyKppCjCdn0ySopiulb7YoN/ingUcRkprKK8nM35kCLVwSpw1utUn/TMWn8tycaXyabPTb95xY/J2s8ISxkR7HFLW0FCxXThch8O4xv13xDXsRmzwiZw7vtL66bPDZM4GDe64SzScCbirwBkZVk5VUqGc/cFk/eIvm2bfSN65pyl+01igyFGtyHNcUFElqXFH82qIojK5wcP3JS0tOpOQ9R2mu3pDy/fKmQhVtmjuAM3ar42TfqD02dzmQgRpXeOXq4ys+klymHhTaPqDXTSvLd79fFnxXS8rqrw9ePXxZwHCcjia6euF+EI4fnnj90Sry+klqOnwYu47Vc/M0ii8lXSrlM1Nu4WUpictYdV4dEdZ95XE2Tth4s7ErKN3WzZXztSuwxy73B7d9Tl9+VMnFFZ+ObBg9eVJEJkdUUVRVJJQZyC6vJvHTz17NcffiI+nDt07gOdxEvu7U/K0LQaoE1FzKpKhqickpQQIiqzjh+5VtasDylTu1j2V753JPZxOU7SP15KPJ/LcfvS9N3c1G7GxNwrZiG89FHsvlQZJ3cjtr1HTLqfl11pwuaERwV0FrO27OOz208bR/kluhnofH7wqOjb9bHeXj9x/VlOcSW9rqY4KzX+wgedbp2+dPrl5KSLXjzLZyGEcJy/B7y5IAqvncg0mLd/f+z+nRtDbTR+HLn+ATP7/o0XRXQcYWLKOtryVGbdl12OiSrIC+dmZpbhCJG8lpL4/DCjtFNPPa4HCCYkrW1h10cm7wP7kTjwN2qOHjStk3WPdyt8bDKLsXYWgWsm9xVDCCm6zJhxb/5CNxOGqKqBR9Dw3pEFDR8XNhzU9+VKf5+80jJc23XZCgc5DCHW3agREalVzIpP9Kp3Qd7xNGHzmTFzLERYmXuC558uwCvz6BWPJ/ucEBLqPXnXIjtpWtcxUWuI1VumOi0prKHJahqP2RDVSYF9GTGJfq6d0mYO215cVkXr7t9QSEp731VrqiLWD7UOr6LK69mN3zZzgCyGkLzd4qjyVSsn2C0rRzId+vtvWOWhSkEIVaYuCYy6x2QUf6Az1w113UGVH7hwz/ietI7+m9eSqyPH288sZIrKa/ZwnbGqVydEMxo51Sl8g3v/rWLyOtZBQ7y0Un51EwsZWOncmO227HWVSAfbsJWjulERUhwYEnxt/nRHM4q0uoHHeH/zrI8IIYSIz0fDp/yXxawtLClBSzzvi9E0fdZvHNqBuLNuxJo0OrPsI712a+DgWKq41ey4qX3Zdc6EDcevCVm+KNTpP6ZkB8uhA83EX3EqIU0vaMOKuoglnpaf6MKqhoPmb55sJIrY3rTEZKzmbKuKWrvAJ/J9BSal1sk8YEGfHioUhBBVy9XLcO/h5BfeE7o1BkSyKuv0hsMrcwormFRJZV0T12UbAzs3tl1aT/+pzrPXeFhEicmou63YP70P21bNpjlJsPs8gSRlictz7E3DEcKoUloWgRGrRvdiO7KGF6XvWzB9Vl4tJiQq23HApMXDvl4giJoHzjCes9R5wCIJeb0R66NHdeZ67NEzEpJzjIOc1XntRmH89tCBoMPojLrfWkDd5ZmWURp7Eqd0gwurlkEWHwkedGJA8n5/tX/lBhDz7f7x41P6bvovWE/sDxaDfn+l9wrGjG3hlqqiFJJZ9mDT6NCccec3O7EN6M2p+vGmwLBnXru2+mry1I3Cs7b6jLrtGrsjoKPEv9JQ2r7m2ZNsRgBBM/qXNrFQhxHrI/rdXhgWn1X950pBMj7nFosqqsuKUhBCZF1p7qcqOTVujws1z6qrn8fMWp5hv2atD2/RGSFE7TRk9iiFcyEDPdbfg18SthXNMcQBQHPDZPtM3pvwh8sgYzdl1oNlMz2Os6gUksCkOw6YsC6kF5dx6OZZtYRewLaEAP6+RFEwGRcZP65lSgT+jN8e4gAAANAyYLAKAAAEFARoAAAQUBCgAQBAQEGABgAAAQUBGgAABBQEaAAAEFB/R4BuuSRynNL3tTV/IqEiWZo83tw/7hPMEAHAL+AlQOMlDw4uCBxs3tek9wCP4E3X8ls92SZ/SeSI3JgxYac5T4HfiFP6PoHCT6XYaPmEivwX8qfcgwgRxbcjR3vOOPqG0QIlBOCvwsuxyvj4PFfJd82pqzev7h0udHTBmoutnt2Zqmri0r8Db/MykBWP0l+2td+6/hWV4ruQDbkHF6331/s6JzJFwXTKulDJfZOWXyn+l37fDsDPePmpt7j+8DD9+n92cLDrtv7Ah2ICSbfS3EhNJpFjl9aP+JSyJmL/9cznFfQMD5dNGKJ19N+2aag2/2Wty76wMWLrqSdFTFE1k6GzFo3pK0/hkL6vSXjmthFBsTnfXG8Imc05GjmY/RTWrI8XNq7YfPppPp2gyWiajVm62rcTh0rVXZ5jddRo84An6/fd/lSNKTkv3h9mJs5u4fxVln2aPkR/fXT1opiHlazK3JxiOiaq7LLsxLLuN9Y2VUgKQggRueeWjEy4+LqckNYbPPNLAsYmcg82wBQsp08767Um6pbxYvNvZiaqvrrAbeHHoLjdQ9r/HWNzAPwePufiqHny8LVMjwC11pu5DpMfuPjIwMrTk2wPfPc6WXU1JTtqf5y1IqX00jyPZdH9+i0ZIKbuFL7F4d2eoUMyA45ucPnlmdDojzZPWZXlHnV6ezfR/EtLgmbPVzq8xV0Z1afvc9q377CuWN3r6NEjVyZZHQjQYBMsqN0nHrw1kY/VMm/vXJKmufb4FjMZsjL3WTamQUMIUThVipm+M1ovYsvxpQpUekUV5ReiM5vKKjSk6du9O6GXFP4paZLPyn0DkqfrU4ncpCXrPjgeShypiT/fNirwxbDkFfbSGGq6kCRCiJlxPsMt+sgiXdqHI2FDG/bUl9yD87o1NfsQJmMx1GlD8JG0qWbOX09owqrdTPuqaHJNXwVAG8FPR4QsTlu39nqP0GBj/mfYb378pvXjA/PhyZPllqOHdpOmIGE1Kz9bqTsX7zQM6zSRvq/ZUFQ02pWlJx27llVKSrXX79GObUaSr0TMRgQaK9AQwkSlpX5lojUOlW0qTR/Cc95ky3Y3UKchJNKpZ2fq2zecp/JHiNLeZbSXriQFiWra9O9a27inmsw9+BWti1EP7GlG1rfbV6jz0OVrJpvLQYAG/wiee9Bk5YOt05e8Hrh+u5Ng5KXkN60fH2oLC8tL785yuFJ/oUCyGEJ6VdUkkmw6fR87fA9xUHUDo3erx+3dExy9TGmA/4yZI0wUuVyrUGSV5H9vejV2lUVNp+lDVG3dDuXn0t/TDToRz+4+IzuP0eTSHqgKyo1RmEKlNu4pdrkHv6BJy0pUlZTD8x/gH8ZbgCarMnZNnXWj18ptwb3YDrm2Ok4F+a1oLaqoKK3qGXlqltH3m4eFUFPp+9jhe4gDIYpsV+fJq50nlGcdXzF1ymL501HfPl/CX6VIFoOJiQhzG41iU1n8HbsiqnvNG3tp5Civc+1kxLUc1821//6E00Qhm9xkXHIPIsSqKKuWkJYWmOYGQOvjoTNMVj/dO21Kinb46kA9alVFRWVlNaPVH7TjA0VGQQ69f5JZRSJE4vgvhGpho8FuYuej9tz5WM1i0Svysu4++tAKz3yRla/S77wtYRCIKqnSsb0sXlf3ZTvzXSnm/VUu5majYt5y21V8VxZ/f+FMvkPE/tj9+/asHGP2TR+fv0I2lXvwG6ysh5lE955dvj1tkLXFublFtfBsB/hX8BCgmXf27bib9yox1Lm/ibmFibmF2dCdz1srQrMy94zx8HQdHplOfxMz2cfV3W8xt4f8MDn7SRO1bkxzMLV0dAk7ySmLJvH5aJivq7vvgrMlJWeXeLp7eoQeeosjJGoYunW+0bMNw2xMjfq7+s+PvcsujDQr1se0yEme5ibmfft7zH2svzB8kHJj/5GPSjV8QUhcXExEXOxrfKtMXeLj6eo1/VAO/ea6oa7u3gE7MliI/8qyhKRlyhMn2hj1NjYwNDbzDD/yivErhaRquXoZvkxKftHUD4TI8hvxZ+h23pbfDoEQeUenugVFPxX0xw0BaC4wYT/gB1l+Ya7fbpWIbRN7KQhjBKPw0vKRy4UWXVxo+isj4exyD5KlV5eOXl47KS7CXvmbLgTj+iK7ldKbj81olawmAPx5AnG/D/w1yMqPudWSqirSwhhCiKQXfcivU1FT/sVm1GTuQbL07pZZkWX+Wxfbf79c/O2jF+pu7j0hOoN/BvSgAV/I8kdxy9cceVBM0igEQZXXswuYPt5eWxAevASgzYEADQAAAgqGOAAAQEBBgAYAAAEFARoAAAQUBGgAABBQEKABAEBAQYAGAAAB9ZcE6NoXB2f5WZpbmA5wCtrfAqkJm4Rn7xtlG5xU0EK/8qZfX2Ltsv6+YP9uueWyQTYL1sP1jlZLb/CbTfLn5kR8Sp7l7WBt0dMo6AD339E3lz+RJfLPauFjqu3hIUDjhXdiFo92szU2Nulj6TU+Mu1zax+tZPmlHZHPDFefu3Y7NXmTb4dmTxfQRGY8hBBVxSpoRqCZPG8nMfxJ5Jilt/gIFcLdPMKmD9JtidwHjLfHFgfYmpn0HuA5aXt6yW9MLsRfNkieMa8vMuvZZ1R8PoEQQqwHq516GPptf8WlYTGuLxu15flvn9Gaak4Udc+1iWcPTerFZwYL/lb8YzNr+SyRDWpvLnMetD6D408e2KcebcYskfwdU01ifbq4zNdv2QW+wlBtVtKi0QMt7UKSC/+uqbZ42VBEJbOdd8ShtNs3U3f5UI4uWHWuvHUrSZTkF+La3fUkMUQVkxBt7tbcZGY8hBAS1bZwNlHn7ZDFP99/8IGvMxdFvqeTbZcWmE6T9XxP+Oq3ZuvP3rwZP0n+9JylKb+R24+fbJDfFKH4yZkTdzhNuoRJKsp9yHjBQAgReRnPSCUlrucA1st7j8qaoeW1cHNih20za3Fk0fnYi+p+fj04JnRgn3q0ObNEsjmmqq6umbLv6c/HTxOv09Tt5m4cVrImZPP9Kl5LU50WvTq947wT56M8lf6u+Wt5aJ1UFbugsS7dlcWpVKlO1hYdmSWlNa0VoImPp5aNGjYkeN8renqkj7OLg0vw7pc4Qggxcy9uDHG16m9ibuc6YdPF3IauK1mSPM520an0fdP8XKys7OxH7XrCpcfVkBlvwXeZ8fCchBluA+2Me/Udl/S1A8p6uN7Zd/mutSF+fr6uA509Z8RmVJEI4a8SF44ZPm5HRtGZue4OTi4Og+ed4txrZd5Z5zfYtr+J/sB1D7l2CIlPB4Ot+ppZfP3rPzYmm/25AH91/kK+uf8IQxmqiLr1WO92N09d/4/601kAACAASURBVBrXqq8usLMKjOeWBQUhRJacXezraNvfoNewXe94PvUw8tIPrw7yDIi4WSMmwulYYGnrarx68hZHqPb509IOnRvmvSby06JChjj3M7cwNrf3mr7vYTmJEGI8ipk6evjUQ2/fHpri7OTi4OwV0TiugdGqHu2a4mZraWxq69GwR9hh35zYYdPM2L1ed3mOeUjCvYSFQ10cLK0cvdfcqmlcdVPNjK267Aurg937m1uY2vhM2ZVeQiCE8Hd7RjiE79wyfZS3j7eDg2fw1tu8XRvhrxPjn5kNHdyO88Eurj88LHRgV3lRqkQHB7tujJwPxV8bCaZgOX2a4a01Ubeqv/sS782JzTFVj8RL3734WP3TUti8Tm3nGj5e6cSyvc95u2Il66prcUVNbam/ZET3G/xc0eGVby7uPl7lEuyo0loVpbQbtGDfIPzdnpHeD4ckbnGVbni97sn2aYsy7LcejTSUrszYFzY5ZLtSfKiBCEIIkWUXtxyetH7nie4yqLq8VoRzFZvOjEfV9Fl/3Ct3X4DPze8/3mROQl3vpXvcH65ynVW78NgSMx7m8hEymXn4xJTri6xX8LIN1IdFXxnGwwcb1OW8/azcWat+dgyKqo4mNeFNDo7k6rcD72n92GWDZIOszr6auHdnQoaExdCxO6aYqHOenoMkJbt0q37+tJTs8iHjbafuph9v1BdYTrPP4HDvVfpqouW3V42esjrZ5sBoTRHDgMi9Qy/PsYtU35QcovftLiUK01KrN+46u0mh+u7a0SEcs0Sya07ssGtmnJpf01kiOSZg/BGfWSK5LK3mTlwyffC6Aexz1/z8lSZSj/52lki2x9SvoKg4De0fuSTp7rhu5jwkhkMIcU7wIbB4i7RkybEp1r2NB3hEvOzs5thd5k+fiFhPT50u6h8w0lCOiqiyPf0DLEtPJD9oPJtSFOxH+XWXoSJElZCR5HIK4pIZ7yctmZOwWZAMOp0QEWlstZioqHBtzdc57lsorR9ZeCxs2KS9hQ5rYqPDfbhF5/qSaRl0/ZzxnJ6f+UK6Z48vubuFdczsDdUkqIgq38e+r1zR5wIu3USRvsPHmikLIapsL9s+ss25R9g1M87Nr8kskfw0M36zRHJEFpw9dLm9j18PnucAZJt6tCWyROKZ24aZmVmYOEZc/3x04gCLvmbWU06UkWxf/0qsRy+9iicPOVxKNiDoRZmn016JtW8v+6fj1i/grQeNybtvSnUnmWVvr22fOy0wf+ux6QZ/ctJHvLiwTLq9YmMRaIoqclWZhXSEhOpLqyjPa4PhmhnvB/zkJGwmxKeDE4ZFZnwzFELTmxS3I0Cr6a4TJiImRmEwGu/nkHRGnZicaEv3HjAljw3J7Y/F7Jwz5Ky+x5jRPjYduV1PYsLdDNr/l/Hi8YeqHr7KKKX+Vbz43uHtsamZxUyaEKU6uxS35RKfMTFFpcYOHJVGIeqab4+wa2Ycm1+TWSL5amb8ZonkWIVXCfEvzMZHcBne+IJj6tEWyBLZkBaOLD8+0ffpqFPzTBo3HbvXv8AkZaSpFeVcsnewHq4ZPCL2s6Se38qtllLNWPDWws8QByYk29FyiINW4q1XZaTBnxxspyoqy1fkFdQhJIYQQsyivBJJJUVeL3W+xTUz3k94z0nYTPgd4hDW7qRe8C6HjrpIIETkvc9maRhptsSzIj8QUTH2CzP2DspMObRztt+Wdj4Llo7qzTEkyfTojp07ca2sg60u7SVCCCGy7PzSqTEic/fFOKsJI+bNJU7zv/8K+fPxiHHYI0QdgxASof3iLmPXzPhvfnw1M36zRHJQfTv+aJ3rhv5SPG0BbqlHBSpLJFldXoFL6XApDa1X2Mm7o58lLp2+YINJykrrvy5Gcz+xkmXPr915U1yLI4RXZV87mJKtZaT/hxPf0/Td3NRuxsTcK2YhvPRR7L5UGSd3I16G937CJTMezzA5BdnqrKfZdIQQgf/JcQ9qR0fn9jdjYx+X43Wf03YnfujrZPF10LCl0/pR5bsPmrTpyJENXhoUbluBqt2z6/uUSxI99b88JcKsqmSIyilJCSGiMuv4kWvfXtVS5OSki148y2chhHCc+w4j8hIm9+s7cP7VGq4fbRq7ZvYLzY+fZtZsKTGJgrNxaRpDvHka3uCeerQFs0RiMm7bzzXVTWbzOkKo9snDFxLd9bl3PahiSj0GWenW5uaW/YVPX3PvQZOsghs7Nsx5lldNUEVltY1dl20a26UlnxblBU0vaMOKuoglnpaf6MKqhoPmb55s9GtzxlO1XL0M9x5OfuE9oduXdsC8s27EmjQ6s+wjvXZr4OBYqrjV7LipfTmdlaha3qH+t5cGWuwTllGynBu7wJbtyRrPSZg95cBbVnVhWRElzPumKLVTwOZV3rxehXKvku7IiLl5i6YP3FtGU+vju3yZq9KXRRN5R6e67e+64+Q8Yy5HLStzT/D80wV4ZR694vFknxNCQr0n71pkx1v/iSLZYYAd948J6Rl2otzvrP8lczmmODAk+Nr86Y5mFGl1A4/x/uZZH798mtbTf6rz7DUeFlFiMupuK/ZP78OlGVJExcRExSQ4PkxSj3U3akREahWz4hO96l2QdzxN2HxmzBwLETbNjP/m12Qzq0xdEhh1j8ko/kBnrhvquoMqP3DhnvE9aaKGoVvn71i9YZjNm1JCQlnHwG/OakMNrpX4qVKvkg5mmU5crcZTw6pPPVqTHuqc2FDkDkHxR0N6NAbAhiyRC3/OEslTc2J3TP3iSClRcO7wVZnBm035OOr/rgegG8CE/ewz47VFkNbvj/mrm5lgZYnEP58MG/GfyvKYWaa8dRiqz8603ii58sA8W8W/rN3/hfc1m12TmfHaJkjr9+f8vc1MsLJE4nmXV0+Nk5qxZTqP0RkhJGE1YW7/T5G+Aycm/WW/JIQeNAAACCjoQQMAgICCAA0AAAIKAjQAAAgoCNAAACCgIEADAICAggANAAACCgI0QoiVEelpOffKj0+nkuX3doa6Wlr07WfjOOtk/t/yO9G6tNkWnpGZgjXL3l+R36ulCNgeIctTl/gMsu7XV99j23NBKVSLYnOA/w34CdBE/smpNj0HRzWR+ODvRtVxCgnz1f/h913Ep5MbdxU57ryYfv1c8mJe5sBmfTizwGvYqtR8HjYQkRszJux07S+WuLWQZSenGhs4r7z3w8Py7PN7EYVXV4/wCj/1/vvZI5rI7/ULiZQYl2YYG49N+u20Hk3jO2nZn9AMewSTsV6UcOrMgv6/NHlNS2DknF/t189k8qkWCqFNHeBsmh9Z+XTPeJ9xe5/ynK0FIUQU3tg2ycuhn/vGZu+C8B6g8dyjK3Z+UFBog31uTKqLtYvhjzUjCvKLxDrp64giTEhCgmtjJsvvrJ8UVRe4cZa1Cve548iKR+kvBb4/SZamnX+i1pGWeu7Rd82YbX4veubOGYvfOq9dNkj7+8ndmsjv9QuJlCii4mIUMXHxFpmqi/+kZX9A8+0RQYHnX145ZvSuUuWfpzdtNk0d4GyaHybVI3Dd3K4pM2cf+8hrY8BfHV53oNpjT+qxab2be5YiXjcKKzth8V7aqFFGf3qapGbGytwTONipX18j4zlpX/okrKz4maOHeYYd+1R+aYGbi4OT+7QkbqmeGRm7VpzXmTzL+bvoTH91bNlIFxtTMwtTS9ehS89+IhAiPqWsmjzMf/2NilurPFwcnFycJx96jyP0C/m6yPKMQ0tHDbLu3cu4d39n/y33Gudtw4puRo5xtTM1sbAatrChk0CW3/1v9jAXOzOzfiaWnsGbbhQ2VIn1YPVg/903T0eMdbW362/jPvdsQ4slS66lPNbzn+4gnnbhYUM84JTfC38XvzxOaNQ83w7f/vaXQ34vdomU2MHEJcRFJcS/bmHm7VUO5hbf5gOzXnKdYx+4qT3CvlJtc4+wK3tNVtKSQIcBFn0tHP3mxj+pJBFCqC5t9oAxa2KWjxkyxMPVyeFL4ZsLRVLFOHDH3mnmLZMGpMkDvAGb5odJ9powxz47cgOvuTzJmiq6SDtt1Ra5IqEz6rj/Vb3YMcxp0rGP5VcXmg1cf6+Gh6/8TX+1d1c7G06/UPH961W3V1qahJ+v4mkhJRfCjQcsTqv47sXaguQxRt7rHpfXMhiV+Vm3Hn2obnyr+sX2wYaTk8q+//zn+BE9jK0m77tfUEtn1BYXlFRxWin97cHgXuZjo66+LaysKsrJfPC6tJZRR6+8MMWou+HwbXfya+nVucdn2PYcl/SZXkdn1L65nnI1q7iKQS+8v8nD0HFZeg2dUUdn1NxcatfdZOiic9nljDp6ZXFBGYPOqKMzGLkHxxqNPpxb9Xi1s/Xs1Iqvq66+s9hmwOwr1d+Xp+ZOxMBek08W0JsobeWlOX1sIm5V//xWzZ2IgYYTjuU19a0f/2qerBtkO+96zS/vaw57pMlKteE9Uno8pLtz5MMvxzK96GyYTb/JCc/LGLVlWbHjLc3CLhTQGwpvPD7hVVUdnVF6Y5mzQUPhm/WvNmf3sD5BSaXNvNiGv6YPcE7Nr+b1Vu/ePnve1/Cy/Oo7i60tZl6q5q0w/P3xctaqexGzNEFtyryBShSC/FtulbUu/N3DJ/Tuvbp/fxWJiapryn++euTkrfdVFFntXno8jH3wnq+LyLt44q7miLBAk/ZSwsKSKrrdNBozi2CyNgH+BrJURFO2stFHH7I/EQghajtj275aUjREkdKzs9AoySv8sjNJ1NN7gqWaCEJIWEpaDEMIIaLo8rnMHvYWCkKd7awl087d4zKtMlHwOKNQt7dBU1O9c9BUIiW2xMUlJCTEfn2EA/YIW1U3ki+JuQYO0hHDMDFtN28zxpVLj+ovRjB5az8nDSGEkIR+7y5kQ+GbWROpGFoDm+ZHVTcykHv5KJPOdQGsyuwbF++Vq2q2zBAN9xELeuaeRSd1wmKs5TEk4DdQ/hyiorxSVEb6x1E+EaMZMZHH9u1bHxBVquMwbkaonz63rEe85+siiwuLKO01VJsIMRRZpcZpFTEKFSNIEiFEVmYe2/Xf6cef6qhCVPrnDyz9r4cEJq4g/0PiT6IwNeVB+aMn3uYbEWLWVIqeT6+xsOKQkpqsKK9AMjJ8Z07mI5ESRVRCXIL5TRmYt1e5TD/17az+EgNXnV9kwfaCHvYIG0RpQWFt7q0J9on1KyWZdaRpJRMhIYQo0vIyjXXCKA2FZ7/WgqQp7use1A8FUbuOO7h7pE4zJvRh3V/tMTWpqD4DmJjjqtPLBvzW0AKb5odJycrgr8trScThjgdZcjTYfsl1pGo5PXJEpxbJWsQ9QN9PSMjMrQsfdBkhhFi1lbXYGOtb/ttiv07lDRBFUlqSnl1Z15AV8SuaooH3zI3eU4ofHVgUGrJeLWWp5dd7yXz2GQgmg0UVEW483DA5BXni/qdCArX/6QhsIgsU43bkpA15Y2N2rOsghuHPN3uNec9xZfmpF57ph8atdFbEEMJf/zd+4Znb1VY2Emy/gUlJS5Ll5ZUEkuArRvORSAmT6u7oUvvNzR4h0/DzN8P5WRvnPcKnNrRHMBklRTFdq32xwR2+P67rEJ/5sDGFgYsSzRj1jRsTllJu3jhB6xG8+4g/Xr94ioTc7w78sml+ZGVZOVVKhvPVGibvEX3bNvtG9Mw5S/ebxAa3QIzmfigZTzt86UzSsaQjx5KOJCy0lWvvsTZ+86guEJ2/Re3Qs5vw04dPv799QpQ8v/nwQzmLREIy7TuoShLMusaYTJFRkEPvn2RWkQiROM49VJOVF+Y69LaaerzoyyLUbV0M38WtjXuQX4Mzq4uzH7/M53AHi1VVWUuTVpIVwcjanAtHzuVwHFMg8i6efa7n4KSnqqKioqKibuJiKXnj3O3K+nebzO9FUempr/DqwZMqrnX5vlxNJFJip/Zl+s30e1n8PAH1PQ57hO+kZW1rj2DS/bzsShM2JzwqoLOYtWUfn91++ouP/lMlFNTV1dupq7dTV1dXlGruxwpEZFXU2jUsX1X2d3MfsGl+xOeHGaWdeupxTdiCCUlrW9j1kcn7wO0xgl/DPUALyyipfCEnTqFJyKsoSrWNGd/JsnOL/VzdfWYkfaxKi/By93QP3vvsl560kjD3GiR8Mf7y9/d9a9+cWjV2oJlZH1Nrr435dktCrRsvSDE5+0kTtW5MczC1dHQJO8l952KYiLiYqJiEyNc9RtHwjdjiL3V2ro+5kYmF24Q1F3M5lF2if9A049dLnQf0sx+2NNN0hCOnJPTEp0tnX3S2tfwyPzutm80AyZvnbtQnUaZqeYf6iycHWvSzs/WMuNIQJGj6Hh4at4+c+K4UeE7CTA93T88ll8vyToZ5e7p6hSV+/FrbhkRK3pa8JLwmGfnP7t7P/Ej/9eFK9nuETaXY+2v3yIuYSe7unr7rbtNzEqZ4ebp6LzxVRCJMxmrOtqnqVxf4WPXqa+M8dmViZrPm7/4juB3g7JofPSMhOcfY11md12tBrKUSasGE/c2FLLu+YviK6tD9KxyV2uCz4rypeRwVNC3TY+8WHy1eOk5sEimB5sPnHvmnsGt+1Y83BYY989q11VeTp22GZ231GXXbNXZHQEf+Rvd4QJ2/YEEzL/IfhYlqmlpIX4nY+Eitv6lWs++ov4OQap/+Gk82r7ggZtpfV4bzMBhZenfLrHWfPTcud9VsGxdkgoifPfJPYdP8yOrn+2ctSbdYtt6/C6+PC1HkOmoTd+M2ro3L6+ljznOvmyfQgwYAAAH1b3b0AADgLwABGgAABBQEaAAAEFAQoAEAQEBBgAYAAAEFARoAAAQUBGgAABBQEKABQoifBIzEp+RZ3g7WFj2Ngg60zPwDAIB6vARosjRpokEPA736P6Nx8YV/ZurWf8IfylXIRwJGirrn2sSzhyb1gp8OA9DCeDnIiOLiUunBG0/ONxVCCGFUkd+YMR1wVp+r0LnV1/tNAkYkwX4CSwBAa+KpB11cUKasoSElLi4hLi4hJgI9J17h76KHea27nLZpoo+9jZ2ly5T47Prkg2UP98/xs7cyMbd2GB1x8g0dIfa5CsnS5PHm/nENWSzIkuSxfUfFfCQQQnWX55iHJNxLWDjUxcHSytF7za0axHcSObYJGOnP4xeMdbW1NDG1MHcZu/xsLpcct6yPF9ZOdLUa0NfUwtxx2Iwjrxs+32RlG94qPBZqPWDmuTK4JAOgKbwEW7y6uurtmWCLmBqWuKaJx6R5Ey3VYNYVHuG5CVtS562POa8jjldWMCSpCBF5xxaGJikt3n/eVoWR+d/0oGnbNRKmGYqoO4VvcXi3Z+iQzICjG1y+THTLMXgx03dG60VsOb5UgUqvqKI0zJ3JfHDyweCDsfM1hKrvrxk+MfK81WZXOTaXPbTOQ9btHcJ6uN5lSvm8E0sHfJk4Rli5q/WojdONO8oS7+JnDI+ItrBcZsV++l3m7Z1L0jTXHt9iJkNW5j7LxjRoCLGvbP2XxDR6mpgKqQnDJRkATeGlBy1is+j0pXPnbt5KS9nsK3xqzvTY94KenV6QdHALGqQjjiFEk5KWwBAi8i8cT9fyGWOtJowoUt19B/f6nHrp5a9uURGzEYHGCjSEMFFpqcbsEs2SRI6iYGjTr5OcMIaJ6thZdWUU5FdzOldQVDTalaUnHbuWVUpKtdfv0U4EIW6VxSR7B61aE9CTQ9omAP5lvA1XiErLiyKEkGIPjwkeR4bcvF8WoK0AvR6eUBQUvp+InSwqKKx7us1/wK76/xNMiqhqDYEQb1cl5HcZ4SiySvI/z9XJXxI5Nmrfnf1vT/KdnCqKEA0vfMVSdeS4FKpuYPRu9bi9e4KjlykN8J8xc4SJIvV3KwvAv43v8WQcJymiYkIQnfnw/cbCFBQVRY0DE3Z6sTvH/RAIqRQKwvGGPjBRUlzKPdz+/u7BM3fPnH/Hbu+2pfrSFOLzwQC3K9y+QpHt6jx5tfOE8qzjK6ZOWSx/OmqwAvfKAgDY4mGIg/h87/L9nAoWQqyyZ0ejjxeZ2htLtXzJ2iyKqqNHn6z9m069LGHgddUlORl3X5Y0DkE0kasQE9fUkn139dLrGpKszT0feyqLy926ZkFWV1RRJJUUxCmoLv/WwVPPuKyUrHyVfudtCYNAVEmVju1l8bo6HHGpLEJ4VWHuxxLuue0B+DfxMgaN56VFjnHqZ9DbwmnmabFRm5YNUoLe0G+gqLqt2DKMljjdw6S3hZVn6Lqzb7+M7jaVq5BmOGauLyUhwNLcbPDsa92GDOb0lHJzoRmNnOpUGe3e39rSY86FDkO8tBoGJVh3o4Z6eLoF7XlKfxod5O3qPmTldQZCiPUxLXKSp7mJed/+HnMf6y8MH6SMcakswrP+G+sZmvARbmkA0CTIqAL+GLL85KSBhwwPxo7TgSFpAJoAP/UGfwzrRcY7A083LYjOADQNetAAACCgoAcNAAACCgI0AAAIKAjQAAAgoCBAAwCAgIIADQAAAgoCNAAACCgI0AAAIKAgQAMAgIDiMUCT5ZlJy4K9rSz6m/YPiM5qM3Mn4E+3DbOw8Q7ekJbXZuoEAGgrePolIetN7JhxKbqzlky205WlEQRJobSh2ZKYHxMm+8R03HYszBCSeQEABAgvIan2Zsz+Ss8t4QN1aQgh1KaiM0JISEVHU4JeXQt58QAAgoWHIQ789d2HSAe7Mt17YH8rZ7/Z+x+Wt7lY1rZOOQCAtoGXAF2UV1D68IV44M6TaSnb/JhxMzfdqmn5krUeTKW9au2Di2lvyplt7swDAPiL8RCgSYLA2g8aN8xQXogipu3qbcF6cP9dW7qlRtUYumhax5vzXC3MAw5+/oX0qgAA0BJ4GIOmqbZXqSosYdYn+sQZDJaQ0M95Sv9iRO7h5ZFvzJafCLXqKAvZFgEAgoKHHjS1q4uLcurWbdfyGXjli0MHb8mb92tTGTCIvJyPokb2Vp0gOgMABAkvT3FQO49es7R8eYSXZT4h08U+ZN14/TbVg0Y/5dEGAAABwNuTv0Lt7WftsJ/VwmX5Qxh5b3OqxXXFofcMABAs//hPM/DM7aNCThL6/rNH6v/jmwIAIHAgJyEAAAgomCwJAAAEFARoAAAQUBCgAQBAQEGABgAAAQUBGgAABBQEaAAAEFAQoAEAQEBxD9BkYcJoIwO9Hl//uvdfdJXZCmVDCCGyPGWmtY3DiPkHM6vh99gAgH8KLz9UwRm1DFZDdMTf7w8e92zYiU2DFFrtp9FEZfraERPej764zU0Ofo8NAPhn8DLEQRURE5cQF5cQF5egvDh2osxhuG3rRWeEEEWyg44Kqq2mQxcaAPAv4WsMmiw+f+CMlMfwPmItVRy2MARTzgEA/jH8BGj8bcKBRz2Hunds7cmgMYl26pLvrqc8zq9pS5lcAACAIz4CdPWdgwkltv6OSq0/DixmPjnCrXL3KEdjm2U3W+v+JAAA/Fk8z7FJFKTsvyjntduk9Yc3EKLf3jr/uNSYveeGGqhItKVkLgAAwB6vPWjWy8S4J/rDvDr+iVmTyaoPHyt0LJwNIToDAP4hPAboymtxR8vthjoq/akftpCo/kYhAAD8M3jsEEtZr7hg3bIlYQ+vePMmH5OQEIMIDQD4lwh6niey4txs740vNPrNne0gCwEaAPAvgZRXAAAgoGCyJAAAEFAQoAEAQEBBgAYAAAEFARoAAAQUBGgAABBQEKABAEBAQYAGAAABBQEaAAAEFE8Bmix9sHvGEEtTk97mTsMWHX1Z29Kl+j1EbsyYsNOtXUj8SeSYpbdgLlQAQLPhJUAz07fOianz2nv51p3TEX2z1i+OzxbkefPJikfpL1mtvVb88/0HHwR5swAA/jq8BGi8urpOuXsvLXEKTa6bka5oTVVt62Wfwt9FD/Nadzlt00Qfexs7S5cpDWcHsuzh/jl+9lYm5tYOoyNOvqEjhBDxKWXV5GH+629U3Frl4eLg5OI8+dB7HKG6tNkWnpGZDfGz7vIck8FRT/GGf5uHJNxLWDjUxcHSytF7za0ahFgP1zv7Lt+1NsTPz9d1oLPnjNiMKg41xl8lLhwzfNyOjKIzc90dnFwcBs87VUKyLTxZmjze3D/uE4EQQogsSR7bd1TMR4JtpRrX8iZmtJnjyluM5t7CAABBxctkSaLm/sP3zo38z2imVVn8jpfmEyd2btU5lvDchC2p89bHnNcRxysrGJJUhIi8YwtDk5QW7z9vq8LI/G960LTtGgnTDEXUncK3OLzbM3RIZsDRDS5fcgtw7Nky03dG60VsOb5UgUqvqKKII8RCiPUy5brTvn2HdcXqXkePHrkyyepAgAabsxlV13vpHveHq1xn1S48tsRMiFvh2WFXqfp3MRltIzPTdkqCPr0VAKDZ8DQGLdrRzqdbUcr+7as335Rx9jVRae1bix3cggbpiGMI0aSkJTCEiPwLx9O1fMZYqwkjilR338G9PqdeevmrAwwiZiMCjRVoCGGi0lLCDS+KGnt764ohhIS1e/eQ+fQ+95eHL34sPDtcKkVRtAzZsMSzE6QsAOCfwUN/jCw5v3hinPrq2JX6EvT3SXNCx1WvjJ3YXaTlC9eIoqAg+905gSwqKKx7us1/wK76/xNMiqhqDYEQb9GLJL8dsKDIKskL/fgRTExOTrTxAxSMIIhfKjlqovDsCvOblQIAtDk8BGjmk4vXJQf8100CISSqPdjLKHLt5VfB3Xu0atz4vueJKSgqihoHJuz0UmDTJf1hyBijUL7EWLKiuJSF2nFdY/PNPv3DkqgUCsLxhtIQJcWl9YXlXikAwL+Fh8EKqpqm6uebF5+W4YioyT57Op2l07Hdn31+mqLq6NEna/+mUy9LGHhddUlOxt2XJY19XIqMghx6/ySzikSIxHESIUTV0FbLv3n5STlO1hXc2pP0qPmfhsPkFGSrs55m0xFCBM5pPAQT19SSfXf10usakqzNPR97KovFqaxVpwAAAtVJREFUvVIIIWZ5/oe8cniOD4B/By8BuvPo5dM6pc91Mjc1tguKqfPcOH+g3B/u41FU3VZsGUZLnO5h0tvCyjN03dm31Y2dZkzOftJErRvTHEwtHV3CTuYRCFG1h4SPVUudZmPW3358kryPT5dm7/5TtbxD/cWTAy362dl6Rlyp5PBRmuGYub6UhABLc7PBs691GzK4YUyfU6UQYt7bNNx9wYXSXx5rAQD8bSCjyl+CyN0bMPS2e/IOLyUYAAHgHwE/9f5LVGdmFFp42ytCdAbg3wE9aAAAEFDQgwYAAAEFARoAAAQUBGgAABBQEKABAEBAQYAGAAABBQEaAAAEFARoAAAQUBCgAQBAQPEUoJkfLqwe597P1Kyvtd+0/x6WfTdVHP502zALG+/gDWl5kPEJAACaDw8BGs85MG/Zfb15J67fupEws0PagiVnir4J0dQeEw+mxvqhxLX7n7R6JkAAAGi7eAjQrKwnr9rZDjZSoCEhReOgAP27J9OKv59vWUhFR1OCXt2KqQoBAKDN4yFA0zR01D5ev/S8HEes0uenzz6uzM399POklzCLDwAANCte5oPuMjpiqs6teYNt7Jwnxlaqa9OolB+nU8ZU2qvWPriY9qacCb1oAABoFvzOZoe/3T3C55Z7ym5f5e+7zHVvEsMmrz2fS/SZc2LfMDV4OgQAAH4TDzkJv4V/Skt7q93P6MeseUTu4eWRb8yWnwi16igrBKMdAADw+3jr6bKYLISI6g9Xohbs+mwd7NPxxyEOIi/no6iRvVUniM4AANBMeOpBM2+vtJt5rlZIWqu38+LdYx2azDoNY88AANCseArQQhYL024v5PABRt7bnGpxXXHoPQMAQLPhcwy6CXjm9lEhJwl9/9kj9X9/aQAAABpATkIAABBQ8DgcAAAIKAjQAAAgoCBAAwCAgIIADQAAAgoCNAAACCgI0AAAIKAgQAMAgID6H8rGE1OSkhNQAAAAAElFTkSuQmCC;" parent="1" vertex="1">
                    <mxGeometry x="60" y="130" width="488.49" height="230" as="geometry"/>
                </mxCell>
                <mxCell id="4" value="" style="shape=image;verticalLabelPosition=bottom;labelBackgroundColor=default;verticalAlign=top;aspect=fixed;imageAspect=0;image=data:image/png,iVBORw0KGgoAAAANSUhEUgAAAgwAAAEuCAIAAABtaN34AAAACXBIWXMAAA7EAAAOxAGVKw4bAAAgAElEQVR4nOzdeTwU/x8H8M/sLtZ9J0nR+U2HUnIkR25CQjoUSumiku5UulUq6SAdug+lvh26dCgpXbp06FRy36w9Z+f3B/rVN7NWi9D7+eiP73fsznx253jN5zM788ZYbA4CAAAA6kL50w0AAADQckFIAAAAIAUhAQAAgBSEBAAAAFIQEgAAAEhBSAAAACAFIQEAAIAUhAQAAABSzRgSvOebHA3GHMjiN98iAQAAiIQm7AtZWbeP7Tt08e7LzMIKnoS8unb/YRMXB1lqNGXKcLLvHdtzMP7ms88luJRG72HjZs8b008Ba8IlAgAA+JFQIUFUPt0xLSA6U9ttUrDfoM5KVGbe+2fPOOrKTdoPIcrv74+8xLENiFigo4x/uRMTujEwVDF+s70SxAQAADQPYUKC+3LPyt0f/gk+tMO7q3j1pO7/6JrU/pn58cr2zXsvPvpcSsh1HmDtM2v6iF6yGEII8UseHVoTfiQpo5SiomPj4yol/v+ZEmUvT0ZuO3j1+TeWlKauzcS5ASP+kf7p6I/JmS45alr7fx1GBY5OuLHvyXue/WBa0eV5Hms+uO6MC+grdFcIAABAgwnRF+C9vHgpU8Vh8uiu4r/+kSi8FuK3/LaCZ/jxC1dPbfHr9Gz9lIVxWXyEED/r1NzAXR905hy4eOl89PRuqTFxn/Gat/GzTsybuTNr8JJDF28l7J7Z+fHqGetulBGCmsEvLChC7du3oyCEMAzDEEaBHgUAADSt+kOCqPzyqYDSvXePOiIC4V8uHEzEHBcucRuo1a6dZl+n+SFjVR7sPf6Sh/CPCfGP6Y5zg+112iu30xo8fvEE3dql8dJPH3yiNTFkonFnZQWVbraBvsblN87fY5C3gpcZFxXPspw0ojMVIUzJduP1O/Ez+kA3AgAAmpSwh1kMq/O0Hf/49hPq7tab/n1+XXV16Psz3pUR/3z59BXr4dmn9k8Upe49VSjPEEKIqHyX8Y2dHulpEVXzRx6TzelbVMFHMnWlFi/r0oqpu8pHbw2zVobeAwAANJ/6QwKT0dBU4ie9ec9FA3/tTBCIQIj4z6TqSCEIhLAfjvkYjUarOcQTBIFJDVl0bJHJ/+eIicvVeSGc9e7k4mk7ikds3j5DTxYiAgAAmpMQ1yRofazN2+VcPHDuG/7r37r90xVlvHjBqp3Ae//sFUutezc5jKrZWYN4//ptbU0jovLL54LqOWCyXbq247zPyJdX+792ipLU/86eKE+LCZgUw/OJ3jlzEPz2FQAAmht1aUhIfa+haeho5l7av/v0k3IxWUkqt7Lw2/v0Rw+ypXtoyit0ks88HXX2k7JOz3YSjMxbUWsin2pNW+bTT56qoMq5f/RwUkmnvj0UKSVvEiIiT2SUKhmOdusvR23Xkfb42O7zGZKdtVQkeKXZb+5eelCh3VNd4ocg4Bfc3jgj8AThtmi6iWx5fkFBfkFBfiFbXEleovTaQhe/3RWDRuq3g1vGAQCg6WBCli/Fi5/Hx+yNu/nsfU4ZG5OQ79DDZNKKdW5dqAixMhOjtuw7l/q+kCfdqb+1z+wAt97V40J4Yer+NZtP3H5bjFR62/nP7Hs76N9Bx494d6QgRFS8PrNz15FrTz4UVFFkO/Q09Jgf6j1A+odFVlycYb74BvvndogPXXszcgR+db7H6g8jd52Ea9cAANCUhA0JAAAAfyEYrQEAAEAKQgIAAAApCAkAAACkICQAAACQgpAAAABACkICAAAAKQgJAAAApCAkAAAAkIKQAAAAQApCAgAAACkICQAAAKQgJAAAAJCCkAAAAEAKQgIAAAApCAkAAACkICQAAACQgpAAAABACkICAAAAKQgJAAAApCAkAAAAkIKQAAAAQApCAgAAACkICQAAAKQgJAAAAJCCkAAAAEAKQgIAAAApCAkAAACkICQAAACQgpAAAABACkICAAAAKQgJAAAApCAkAAAAkIKQAAAAQApCAgAAACkICQAAAKQgJAAAAJCCkAAAAEAKQgIAAAApCAkAAACkICQAAACQgpAAAABACkICAAAAKQgJAAAApCAkAAAAkIKQAAAAQApCAgAAACkICQAAAKQgJAAAAJBqOSGBv989emBgAuPXv/Cz4+e521iY9NPzO5LL/88fWcmhFo7hj3m/u1jOjWAj163p+O++v5bARjYx3vOtI80W36rjq2tKRPGFAPPxMe9F/uoE4iQtNXLc8uy31++f0cA1gmfG+lj6n85vou1G1H2kaZHv+M2hafed5tlHmlojhAS/9FlsoMNA58iXTfRVUDqM3Hjq8rEZA2h1/FFcx3V+0PDu1KZZtPAENrKJUbXtA+aP6ivZvEvF5Ad5zZtiqfHHv/oWqO41QpRdnD31aM6vUUBVM/ebO9FISeS9kfc1IcRt7PqbeT/tig3aR0gb2TY1bN9hJ6/y2f5a+LStax/hZSeuGuW56lpOQw6XzIzTy33tzKwC4guIBrytcYh4SCMY6ccWzj/C1tGQaZQ+CYZhDXwHRamfvWWzL7VlwWR7Wjg2/2Kp7Q0c2zf9Ylrjuql7jbBfPHjK7lnX6+laJg5aoi6UKEsNnxHJ8Y9dYaH2UyA0aB8hb2RT+mO7YIP2Hd7bR09Lqe4NmH0d+witg9XiLYxgn4BtSrGzB8oI9bkZSdFhD7qGn9s7VP4PjP2IGBIYXUnbfnmsBYpxXPvfv/EehTluwkfp5V5Pyy0t4Wk6Bq+ZYaxCQby0cMc5jGXXlg0RQwjxnoQ5z6paciPUECGMyn57eO7+Y6nfmNL/OM8NnWfTUUzAwrmpm7zWXMrOy5f2OHgh+IdTeLzgwYGNkafuvM5n0uQ69PfZtH2CjoAPilELkjZ4z7v2pgipD/FesWxCf3kMIaLs+bH1Gw/f+lCOZLqY+8xbOKavPIbIp5PB85JjVm85/SiHSVXpN3J2SOAwdRpCvM+X1q/ff/NVdjmHKt/NzH/ZYo8edESUxE8fmajjLfvkyodyRimrneWclfOsOghoOy9975RFp97m5nEst9xdZyZeO51feH/Xqs1xj7OrcKq0et+xIZsmD6CTzoRkTSH8U/T44Aq/QLFT2y+8KeFI9p62c/PozlREFF8OnbrlTk5usebM+EOTtakIIfzd7rGrcwxU3yakYbbTncvPH7tboDV1R/goLSoiStMOha0/dO8zA5PvaR2wNMipK2ljEEJ4/p1tSzecfF4mrj7AYxhNHFOqns7JvLZl7Y4LLwq5dHWDMfOWTxpcc+5d9f585JY9l9I+leHSKl0cFu1YOkwJQ8x357auib76ugSX1NAfHbxosoEKlfdo7ch9uAXtSUKGvNt08w8nj6dVDZwfvcpG6ePu8QGfLRzY95O/FJUwVcwDV9RsftysxO1hEf8+zedItNN1mrVkulX1Vsn7dm3Lmm0XX+ax+DT5TkaTVoaN6kYjWSNEyd3ty2OuPX9TUHnby/EIFVFUndYemN6XhvAvcfMD9j7LzisfsPRytJtS7aZU52aGf9rr4/9uqDMn5dbXyvIyvrbL/HXTDWvew34es+aq9swTDj8mRJ37CMlmRiVtJMlmkxbuvI7pqp+X+CivqqxSrPeYFaFe/WQwkh1c/9aCkeeVTCrvXv+mPWHqPw+P/PsWswrdO1effMeve98hiuP9PZ45r9O+Hh6XlscW0/LcvGcyaSvJ1bmmyD4U++mBBREJz199LKTOckgQQxjdfMnxxUPIj0917SO1qBpOC6deHr1qv21cgI6gQ1ztvDgMJq6iqyX7h64OsNgc0f9V3AoxsAt/VPXTxMq7q4b0Gjrt9NdKNoeZf3uJjcm0f3OZbE7l/XVmRkuvV1a/rCplpZX+wpsVbObLyJHd+4xcfSenks3IvBJiOdB77wfW97lVZR7w1J2wN5P130VfXzRo2Np7jB+W+zJqxEDrmQcfZpYwygo+P37+tVxA4ysuz9TtPXjqsVelbGbxy6gJxiYhd4rZHOa3s/5GdkH/fixhsUs/JsyzMZ0c97WKfDpZIytf7XY1GLU2OaeSzcy+s374oDE7XjNZbA6z6MXVK8++lLFYlV9Oz7HoMykuh8VhsfKO+up2s1xy6RuTxWbnJAQbGi26Wlrv9898GObQP+jaDx+T+WC9g0HguawqDotZlpn2+HUhW8AcyNYUq+ptxIgBuo6LT74pZbI5lYWFRawf3lh4ZpKue+QbZvX/Ml5ud9T13ve5KiN6dE+jhZcLy28utXTZ8ZbBZn0+PlXfLuTi50oWs+jxDu8BtmH3y8k/DvPb8cnGQ4POfajgVOambvTQ62YVlsrgsMoerLYfOi76aT6TU/750lyrIRNPZFWxOSxWfkKw+YBRGxNe55dVlmW9fvo6j81icwpvhJiaTIt9UVzFZnxN2uBsOHbXayaLkRJiajzt3/zyhxuG9XZY/aA8/2zAAJ/j2Szmy8iRPQZ4735byWJzip5EOA+u3vwqH250GTh2+/1cJqsq/8FOn8EOm1LLazc865U381ksNrPgw+NHHysErhEOi83OOerXZ0zsJ+avH/lj1KiBE47mMmunkGxmzNc7PXr0cV17v4jJ5lR+OuY9yH7to5rvv/jaQn3TFUl1fbH/3UcEbWbkjfx1s7m/zvQffc+o9BI2h1XxKsJ9kOvuD1WkO3jl+cBBJsvuFJUkBhn2d416X/E51tNg7oUy0h2fdN/JOT6+j775zNjH+UwWm1mUX1z5+8eu/64psg/FYnNY7MqEIEObTc8asLif95Ef/xVfW6hvEnJDwI7w85bTe9Ted0KslKb418TRJKlnZ6lGQwiT13exkL1/I40l8OViOo6jBynTkJjaUC8XzRfXU4obPgCHv004/6H/lCWjdNWkxCTkOvTuqSYu+B2YoqmHUxdJDJPu4TnGiJF0M51HFN08n9zBdYp1R0kMo2sM8x/VMSX+ei6fbLqAxpz70H+sn74yDVGVBo1y1H6beCeHjxAm09PUvFc7OgWJtbe07EcpyC2smQlVy9ZjqAoVIUxBV69r1dfMkt8YHsZUO3XkPk84fu1lPpeuptNXW7a+Xi35muri4jdcWwpDiCYrJy1wNphS1+6qtPaaHSS76PSSFlNRVSgvLiX4edf+fdDZY5KFujiiyPYe5Twg5+b1t+QDspUPEx/K24+z1hBHNMX+Xq561auPm3b+fJmZ7xgdOQoSVzf3tJRNTUwtJxCqSDlzQ2Lk3BnDuihIiEmqdNHRVsAQYt47l4jZTXTvIUNBYqoGE8frvou/kMFDCFE79OgmK9aho7pE19496FIqqrIVJaV8hBAS621t11kcISTdy8m+88vrKcUE7+WFi4VDvSf0V6QiqkI/L2+zknPxT7gIIYqapkbpg9Nn72SUELId+/bRkBBu1QhD0GYm1sfJU1cWQ4im1r+/Rv6nrxyEEEL4p7QXrN4DegvbikbZzBCi67u7d5dECIlrDewjn/05S+BAO7Vz965SEhqa7ZX+6a0upqymyisrqyJQ3Ts+6b6DEEIUZWsfz97yVISo0vIyjXwdsGEf6jdJ9hnQq/xFWma98+azCtMvJr2T7NhR4Q91JJr2MismLi1VuwQ5BVnOm5IqAsn//BrihxzAFJRqvgiKoqoSVl5azkcqDbwwyi8qKJXV6FDvUfH/KHJKCjULEVNSkassKOXziwsLkbKqcs1kioqqMirILyT49Lqnow5kjckrqrq33sFsU/X/4xyahlEFHyE8Ozk2+uTtD2WEGA0r+cimda39GijfvwNEoVAQn/87F6oo6iM3HFE8tufwAuc1dH3PwPlTzDQFRmWda0oSIYQoysrCbpyYuIQ4QgjDMAm6BIYwCkYQCBGF+QWclzu9TGOqX8XnUujtq/gI1b1i+RXFJXwllZoxFExaSaH6uMcsKCgreTjP5lb12wgeW6xXJYNAcqUFhbj6kI4/z42oLCrkKOko17Qck1RVlSosKCSQZE0rKRSKGJ1ORQjDEFG7DUrLSNUsVkZBFpWXlvPxooJSuY4qtUMCNBU1xcr0AhZCYtTuE6P3dDi8f69/9CpVU6+5weMNGrqpkiLb/JAsQpj8D9sHhgh+9WGTX15WQZeXEzqpGmUzQ5ikomLtwCGFgvH5dSTNDzv4969egi6GIYQhDFX/sa4dX55s36EihLDvW0jjE+ZDNcJSZOTlqOVl5YK/d17aBufxh3Jkenmu22Em2xTtEELThgRRVVxcRSB5DCGiKL9ITEFJCkOIQqEQeG2AcouLyvlSta+vLKvgIxkKQvyKknIkryjX8OykKKrIV37IqySQgpBbEb+yvLJm28PLyyplFRUpFJV2qlhSXgGOZKkIIX5BXhFS0VPBKPS6p5M2RllVSdYy8Op6C6kfJ/O/HVoy/1z38NhYI2UaYiTMMd33w18bZePHpLSHTVozbOLiz9c3BS2eL330sG9nAcewutdUozQIU1ZRoetPjNvtpizMjCgyigqUkqKS6uAlqsorOEgVIURXUZFrP3LrhXl6P2+zhLyyEiU/OxdHKj/8AZNVbSdRlFfARx0pCCGCmZ9fpdJdBUOCfutIFBcU12x+xXnFhLyiHIWq0k6pPDefg6oTk1uYWyyjqlJ9KKYo/OMwM8xhWlnGv2tmz1qhdDHSWfAnrP6jEEdjss0PscnfIiMnw8qs4CAkxBj3D635/UbWvLyO2ZDv4GTq2vFJ9p0GtO23CbqKTjTS4glGWTkuqy0neJ+gDZh//qHvq1Mrg0I2G1xaZ/FHcqKJOzCcRyePPi/FCebn8wevsoyHDaAjRNXo1JGVduNeAQ/xSp8ePnK36vvXzn159cJ7FkKI8erfhMw+w4x/42yB2svOvtOjPWH/vipi4ZzKgvfP3hcJPhUgiu5cSC7EEcLzrp69J2Vm3puGKVq4mheciUr4zOATzK+JUXGZ+i6W7Slk00kb03P4iC7390Te+FzGxdkVBR+ePHlfQSCCWVGBSymrStMQr/jpkdNPGvsn7NzMx3ffFLJwhEm209ZSonI59S2hrjXVOCjtbV0HZRyMuPC2mI1zGMVfnj98WyxgjcgOGqZXnHD4WhYb4WUvj515Un1kFNdzdpG8Grk39RuDx2OV52Y8fPqVjRDC5IydTStPbd6T/LWCx2OVZr1K/8ZCiG7oake9vP/Y63IccfJSYg4+7ers0EPwORH31fkj9wq4BDc36dC/X/oOM1bCaH1dXNRTDhx4VMRDeMnTQ7E35e1H6IkjRFS8e5D6sZjNR1QZta4dFXAOp76BA4yurCSelZ5eiiNE4LiAr6ChmxlCiNqln474y7SX5DEiHOEbSd4U8h2cTF07Psm+Ux9+zv3jB07db5J7lSiKinKFb17l8RBCv/fd/B/zRdob6d59O9Xb+6RKqvYZbt6dmZVV+od+l9y0PQlKuyEG7BivYWk5POWBnqvX2ChiCCEVx7lzHy1d5mLAprfXdfUbN3BrfvXLqd2Gm1Vun+L2taSUozosZOUoDQpCiPcwcvzam5Xc8mxW5Sc/9+M0cePgA4tMaF/iFsw68pHHKCgtpMx3T6FTu3lvW++uQaH9MylyAz9s+2z70IIqmkIn/UmbI7spkzcSkx7i1C0peOyuotJKWm+vDTMHSyKElKxWRJatXzfNalUZku8y1Gvzetf2FPLpJI2UoHX12raRCNs61Tq4gEtX6tTHae76Ad2oXTxmjXmw2nfoIQlFTf3x3qP7xv7W90uUXgn13/6Uyy76VomvdRsRQVVzWrvTV4eKFz6IDQmal8vExOgKXU1nrBjbRfDGWPeaIsFL3+u/9GI+XpHLKn820+OcmNjAmTFLO5POu73Lmu3sLZuCXEO+McUUOvSy9F+j11OJ9OVqLstWfVy6wd1kJVVNd4SzddcLCCGE6P0DdyyNCts8dtiHEr50O21dz0Vh/TURwpRsQiIrIrasG7c/s4wvrdrdeckOHQ269ODZO4K3rQ52jijgSWsOGrVuo283KhKUlZjUYBOl+OlWwV+ZMjouK6o3P0ovv81rOGtDR5pls8Tb9x++dNtMPTpCCPG+JW0Nm59RyKGK0VV7WS9bMrwdJmCNIIQQ3XjiXP1FKx1Ml0sr9RofHu3Tg8ZN3TR+QxKLW/qNxdwx0fkQVcp8weHZg8Xq3swExZC0sdtw8fnHb0wZbP+9P4PXvY+QjI1Wq6ORgl5e1/dIuoOTqXvHr3vfqWfhRGnKwfU7KMuHu9X7wjrXVA9B76H185rtsGCDq0mkpHwHlzUHgwaRfjd17iPLrWo7Dvz8KyduyztvM2zAuVjz3yBRA2OxOU00a96jMPtg9oqaX8KBlgvWFEL4+93jPNO9b0fYS//ppvwuojR5zbg1jMCDa2xVW86TFJoZN3WNw+yCOZe2OAg72vwH4Dnn54/fp7b6wDzDeoabajAuB1tskVl3ZImlyh/YRZv4mkSTzh00BOPGSvd1Kb+eEYgNDjri2txrip93Nsg36gX3v9MxGatVJ4ON/lRWNdZ485+BKZjM3zlteVBQuOTmIFPVv/JOeDzr2UsxmwDzlpwQuTfCZh+Wnbs9SMiEQAhJm09b/Chs6yi70zOO73BTbeYP17Q9CbtgduhffX7aOsCaqulJvJxwe5tDq+1JANAkmjAkAAAAtHZ/7dglAACA+kFIAAAAIAUhAQAAgBSEBAAAAFIQEgAAAEhBSAAAACDV6kOCrH4v7/PFkHG2RkYmRpZjI9J+uWurmfzZ+r0kmriiMgCgLRExJPDiJ0dDJjobDzYYaOrqH3Enr9krfpPU7+Xc378lqUPQheTk5Isxk/vVf5MYUZ62a6LHtMOvGa3mrlv222NzPdzGuo+dtfdZJYF4b6O83Lel13/bS6NVVBYaUfH8yEJ3C+MBBlbu8488//6YNn7R/a2+I+ee+dCQx9Lxsq6tm+xqZjZxTyuvLw9AqyDigYL97XWW6qgNF26n3N4/TuxMyIbEep6P3ugoSv3sLXv+9/52gpGfx+jQW0eBiqh0aal6n1CAfzkxf+GtQcvDvXoJrqvzO5qofi/30aG9nLF7jhyYJHVwz82yomvRCR0meunUU2EJoeqKygaCiqI2sqqH24NjqkbuvvboZownJzZ46/2arhVF2XDWpkCZ2BmrbxUJu91wH+3fcFHWL+7GPr9uf+WTJwBoXiKGhFTfcfMD7f5RolOlu9hY6bC/fK3nsdyNiZu6ydPZcqhBX7tNad+Hm4iypM1Tx3j4bHnMert3sr29o61nxMN6npPNzzu3KbLAKcSvz/cn1/PSwh1GrY7ZGODpOcrJzmHk3EPPK4nq6bbmK+/WDF/xnoQ5DF1+l8t7tNZ5+qotga7Wdj5R52LnedlZjVxytYCPUG393lEWJkMMbSetvZpV81aiNO3gIk9rcwNjCxvftec/1BSCI4rjp1guv/Agdo6no7m5lbVPzAuyxmPidDF2FZvPZbIQjZ9+MDZ7+GSbep6tjn+Jm+tiZ6U/YPCU0/VW/cPTd441MjIZ/P9/FrPOlRKk08lwn166jluP9+guTZXSdp3oSEtMePi97h2mbBY0p/+9DZH3hByTI6qqWPKdOitBQADQLBrvdLLqRdp7+T7e6s2384oZBJ84Nyt5ucWaHyZi8mZBUWZzSuKnOcQZ7Tni3bH+GMSzLpx61N1jyX9OwnlvLyXbx8ae6C7JeR/tO2HdafMj3ppk8yCYr4p7nT1hGTvCZ1/h/uMnhy2xPX1nrrULQgTz4f3yXbuuhcsV3Vo/cXFoZ53ocR1R7tllgadVVxy8aqnGTt8X5Ddnl2bcnP4SCCFElCZuPzEjfPe53vKIUcaUIFtFNL3JC/uuXjTpAlVrpk/V4Y09/Q92q291Ujt5hP/rlhXr7ZFS79eCqL2nH703vY4/kE2vG7/402eGpm3Ng/OpnbQ1mY8/5OHmtTWQMHmTMfab/U8mzTYS6smdrfspfAC0No00Lk0UJW3amNwn0F+/0WrVNJ+ql0/fq+vpqvz3u2hQqVsBlZN/rd8ruOyzsPV7qWpmAZH7Y4/tWaiVfJoxcpKpfIt89CXBqmIhCQmJmsKgdEk6YjKZP76C1lOvD/byeUa9lxgITmlG4vUXhIbm3/ssbACaWWP0JIiKJzuCQt/bhe+yF1g8q4XiM0rLCDn5X46wDavfS145uY76vQRDUNnnBtbv5Wed2ZXaf3RQ4jzf23nUjjYBCyboCv0MYkHw9J3j/Q59+eHQLWa06MxWZ9lXdU8n6QZgdGlJxGazCYQwhAg2k4Xo9J/PJWhyCtKVxWWCRyrxTzHjPLaki2kPX7JrhFor3NAAaJVEDgmi8nnM7Hl3B6zb6T9ApkWeydaHIiUvi5WXlVUXVf5Rk9XvxegNKvssUOXdvXFUz/nfdoepzTm2Bo9w23ja7ICvViOM+jXScBNFqWsX2awPX3CkRkEI//LpK72zp9pP7eOVlzKk5epJNqr25KN33d8nbpizbvUZ/Sh3yAkAmoNoOxrBeLl/zqxLWgvDJvaiVpaXV1Qw2K3vZ4nSOrraOU+eFgpzyb1x6vc2tOwzOfzTqajnQ6Y7tePjUvJyYmLy8lLclvbwdzFdexvxxENx7xg48/O5/Qksczt9yR9fwMtIS+f37tez3jMWioRiD2urvti3rAK4yQOA5iFaT4KbGhv1MLfqQaDDqeoJ1C5+x88E9GmOi9ck9Xs1Gh571M5Obv33n4h/4z5Np74bKhqrfm/Dyj6TIcpu7D6rNCFGV1pZw18vNHxBEKeiz6RQ0p+GklVUbuhyG4g+cPom/zXLp1hvZEhqDZ0QPtdE9qcPcfd4AstqmZmQl1Sa5gfFAIC6QdEhhBBC3I8Hp069NDhin38vyfpfDRoPUXJ7pe9q5ozDa63bCZXv3NTVDnPyp5/cOKKjBMQFAE0OxnURQgiJdRkfvnbI/WXzj2e0rEdotG1EycPt87aWeu1YIWRCIITEBk5cNJJ3dIKNb8y71je0CUCrAz0JAAAApKAnAQAAgBSEBAAAAFIQEgAAAD98xWMAACAASURBVEhBSAAAACAFIQEAAIAUhAQAAABSEBICEWWPdgc6mZkMHjLMdt75vOZ6FgRZTdbGws877W826UBmy77PAH8XPcYq8Hy9dS8aE1F8IcB8fEyLr3lXeX2xmWvk85beTNAWiBYSeEHqgRW+Lpb6+gaDzNymbk3KaVtbLT/7/JaYQtvdiQ+Sr8SvsG38R8rxC26HjXdbeOHzz/U7SWqy1o0ouzh76tGchgQYRcnQJ9jXrH0jPz6Fm3N390Jv6yGGAwytRgbtfyygEJEwqB0tpwZ56TfrA9Ax+UFe86ZYajTom2GmrHIYHv5c4A1HjVzoV0rXY36AbZff3yB52YmrRnmuutagPZaZcXq5r52ZVUB8ART1+HuIeNjjV3A13NceS7qfcjPGg3ImZP2Vsra09fDz8wolu/XVpiNMTFpaiMKgDcNK3z13xUeHjauGa0n89Ie6a7KSYL948LQhNaIRQkhMw8jJ5D8LFRnB+PK6sNvEqIQ7D69stS3Zt2DHI9Fu1JTsZuYwuGFJRjC+3D1x7d3v98Go7Q0ch3ZpyLNZiMKrhxI7eHr2Ebh9NHKhX4rKAMdhPf772OXK2xtmxb785bDPS4uaGpH687qgdbBavGVs8YaAbY8rhW0IIyk67EHXJeeuRo5UhSei/D1Ee8AfVc3Kb3LNf3ezMOkacamkikAts/ZNw/Ayji9cdy4j62t2GT/E5TEdifX2iwp3a09BRNnzY+s3Hr71oRzJdDH3mbdwTF95DCH8U/T44Aq/QLFT2y+8KeFI9p62c/PozoIOcPin46sPi/kcHdXlxwfscVM3ea25lJ2XL+1x8ELwgOr1Q5TETx+ZqOMt++TKh3JGKaud5ZyV86w6UEvubl8ec+35m4LK216OR6iIouq09sD0vuQrlZsaPmHlzSqCYBZlU1xiLiweJGADIKsnQVY+DlMw8FtsUP3fvexMtXanZjEIffGaV+MfDvh5He2x+dwio3rCiSi7unLCtidcRDAKslUnnTwxpYsQQYGXZdw4unf/mbfKdoGLKA1uPEJE8eXQqVvu5OQWa86MPzRZW8hwwt+fOv7KyG99PU+WlOo7bn7f6v/sYmOlE37kaxEfydUsg3E7xGXZN7/De0bXV0gRfx3jv/hMLh9xSr+VGm1KXm/9QzQReMmnN98YtXVJvuOXZ6V/6fJLV5Oq4bRw6uXRq/bbxgXU+2RLhBDBYTBxFV0tWRij/rs0UvlSvOJD4p5/Kx39m2BI5o+g9Ri9af9oXlq446yyJedWmtbuQ0ThpWWBx6UX7r5hq4FlX18zdc5SmSMRzmoUhBCeFbf95pLwA1e1pfCKcraM4KMM72V8/GeDGSM0f35ZnTVZEUJE5e1LmZEHD1uoUEquL3FdFT1kSKip4pCAbcZep2dYnzc5vG+sev1fvZjB3GMX5yLETVlmvaq+F5PWk6gfUfr8WZZmXx3Z/x+SMXktPSNDDdX6tzhM3mb5vzYIoaoLgZax9S+MW/j80sE9h64VdnP2XnFybQ8FKkINLXqBEMKU7FactKu4OMPySAPeVZV6OJ7lvKkhVQF/LfQr3l7HcLBaJ+n650HtNXnPmckI8dIjXf2+NaCddaKo2Y8ZujX09MMpOsbCdivbwBkgaBjRiw4Vn53ttupOKVe2r8uUgN7ybSMjyBBFN88nd3A9bd1REkNIY5j/qMMu8ddzh4+trlfUxcVvuLYUhhBNVq6eb5af/+x5QXdbXaELNVG1bD2GqlARQgq6el2rEjJL+EiyZX7b+LfzayPeWy5f0eOHL4GiYhaw2azxF8ZLixznGyfpsT52i5la8xVYr0bkXz52o6PHsT5CP229ttDvkR8L/Yr1GLN6gwjNqO02EVxmFf7A9BK1uts0vOrYtLFbn/MQj8XgJZoarUS0XjMOR3n/0MGV7DOgV/mxtEzcuIfg747PKnx1MemdZEcPhZa50YEmI3JIYEojIm6OILilH+/sWjxnYt6Os0G6TV2f4M/hFxcWImVV5ZodiqKiqowK8gtritpRlJWF3oOI8rJyJC8vfNed8r0KKqJQKIjPb/KLPw0fsUEIIX7hnbDpkUyfnWuHCn5hI6ENmHXyZL+j+3ZPcD9t5eU7wWmAmjj63cY3EP4u7vgbo6lrhS1i0lSFfmv6fETZv9NHvfS5sMSgZg9UGBt9ayxCnKSlludMr4Xb/FqAHpORl6OWl9VzfYSXtsF5/KEcmV6e63aYyQp8KWh7Gmm4CRNT6Go22qbzqXvvSgndtntVi6LSThVLyivAkSwVIcQvyCtCKnoqGEI1e5nQnxyTlZMhysoq+Eha2MMF2aUAhND35Tem3xhu4henhE9d+dlp65Zx3Rv5sjg5qnwPq2nrLb2/ppzav8N7L244MzTEodPvj5UJjXH/+BmO0+ahskKt9RZZ6JdglJXjstr1/EaCNmD++Ye+r06tDArZbHBpnQXkxF9FpPMZovT1ndQPRUwcIbwy887RS5md9foqtpTtvylgihau5gVnohI+M/gE82tiVFymvovl75wVUtT69VV+9+RFpchNoisriWelp5fiCBE4/gfLehKlD7ZNDXlhsmqVhya/oryivKKK+0NzuGV5X3PLuE21dExKc8iEZXvOH5ilL9csP8Tm518+nKQ52l2ooSbBhX4JZlFWViFT1KDH5F12Xfnejfg/cbPVd+rqRiCEmC/S3kj37tup3nE6qqRqn+Hm3ZlZWaVQOfYvI1JPguDl343avOhVLoNPpSto6Tutiphcf6HiVg1TsloRWbZ+3TSrVWVIvstQr83rXX9v5IDW19VV0/fkuaxhXh2/76IkNVk7CJoR3XjiXP1FKx1Ml0sr9RofHu3T48+sAqL42p4jL/I4L/xsoquniA1YeGGfd81YDPdRxLiZX6deinYXur7Q7xBT7e+o+jtv5KXv9V96MR+vyGWVP5vpcU5MbODMmOVWpOfYvHenj2YYTg8T4ucCqJ5Cv/zcM7NdDv4TdX6JfvOO1PLzr5y4Le+8zbDOAKlbW/qJOxAKFB36g6qeRfrNSXfdv92jczMf17l3Q6zWSG05t0ivuRbMz9rvPeb+iPgoN+EHIxnnA60O9jt63E/Yn6O2Uuzk5Vbr5LadnTtA6IzgpUeOmJw959Y6y9+/ewfPOT9//D611QfmGQp3Sw7jcrDFFpl1R5ZYqrTdy47gF/BLhT9ISnf61qWa/85dfulLsyQ1zigt4xAI8QpSbz9la2p3aMa1z0h/XmDibq1S/9GIW1FaiSOEWFlJSa/pnTurtO2EQAj/+PRNB5cR/eo/8BJVZaUsAiG89OWth/kaWpq//9XguTfCZh+Wnbs9SMiEQAhJm09bPDR76yi76afhjuu/CPQk/h5EeeIK99DrJRw+TVnHYfrS+f+90btF4GfHz/LemlrBI8TV9EbODg1o9KeHtF68B+Gec07nsnGKXDfzKUsWeuoIcWsFAKKBkAAAAEAKhpsAAACQgpAAAABACkICAAAAKQgJAAAApCAkAAAAkIKQAAAAQApC4k8iq2XN+3wxZJytkZGJkeXYiLTfftwR7/nWkWaLbzFEa6QAUGkZgDavkUKCn3d+9rB+zpG/lk4EApDUsubc378lqUPQheTk5Isxk4W5E7c8bddEj2mHXzN+uhGWqm0fMH9U33pqceJZF0ImuHqO8ZgSebeYQPzs4/4jV9wV6sGDIldabhhe9s0NfsON9A2MHKaEXc/+nq1Excu9Uz2m7H8pdCFOhBC/4O7OGW42Q0Zs+TWkAQDfNcr+jWedWbP7q7IydEsaqO5a1gQjP4/RobeOAhVR6dJS9d5vjH85MX/hrUHLw716/XwDLibb08Kxfz2rhffmTMxniy1HDy7sem3n+azy1P1H+aP8jGSEan+dlZabCP/byZAVKV0XnUu5e2FFr4crlh37WvM8Uky2z8RNi/+5FLzg7Ddhz1Lwdyc2HWG47r15ds7Atv1MSgBE0wjHdV5m3Ir9NB+fZntWXJvATd3k6Ww51KCv3aa0/58SlyVtnjrGw2fLY9bbvZPt7R1tPSMe1nOey887tymywCnEr4/UD1N56XsnOtsPGaynvyhJ8C31mLi4OIfF5HOZTJ4YlhUXnWbkP6KeUsv46xg/V4fhLg42ZrqDF14TvAB+9lF/88FGJv//N3TygUwcVV4JNjX5cbqRW+Rz8g/Lz0269LLnaD9jVTGasr6vV783FxOzvkcCJjNg2iLrzK2bLxUJ15sgqipZEhpa7X//+XgA/B1EPrBzPx5ecUx+xp7hStHb4aFfwquzljUmbxYUZTanJH6aQ5zRniPe9RyrEUIIz7pw6lF3jyU6Px/taL0n7Tvn82Kr2+S8emZA7TZqgU3YhknT+GqekxQubpQZv0evvidHN6jSMqVDdX20X9huum1bz3t/gH/9+EWms3Z1ZTlMRktLIfP9Zxz9vxKCZD8P146eJy7lOHgJ9+RCAuo1A1A/EXsSnDcHVsapz1pip0rhE1CM5A+oevn0vbqersrvr0hMcdCk9fsPHjiw3jj9xPthU+3VWuSwIcFkciToEjXHdUxCis6pYv40uETtoKer+PZpOqveefEqMu8mPipr36lRi4gC0CaJ1JNgpe9dfl57/gELJQw1WcUxIAifUVpGyMnLi35OTBRfjbnYftTCF6t8w74S7QymLPI3FiF6fmhi9tFpY7f+OJBE6zXjcJS3cmKww6rbP2w31A6e0ScC+pFskpiUlASbxa7prRJsJltckv7z9RpMVkEef1/GJJAU+fdBFJ/xtw5NRu3NgraO7wYPmAWgHqKEBPdxXFx6Fmfh8BsIIcRjVjCxSRb3vHYeqim4BZoeRUpeFisvKyOQwOp19eOkH9yfbTeXOBrCH3c6Ruuoz6z9xv/O022E60yNNNxE7dRVi3HjUylhoIohovLzp5JOAzr/vJ0RFaVlVFl5SYGJiSm5Rt+3zLwbHbxo5UGDQ/6QEwAIJMqpopj+nBPXE06fPX3y7OmTccssFTu6bjy+zacn7HXNSFpHVzvnydNC0cb6+HkXd1/v7ufVFeHi8gqSVFk5GS6b3UhNbByUdhaO/d8d33uvgMcrfnTw6LOutlY/F93h56Q9L+nWr1e9tTgxMTktE6tB8rlfc2GIFIB6iHSmKC6vqiZf899cRSkKTVpJTUUWMqJ+JLWsNRqe2dTOTm7995+If+M+Tef7DRVE6ZVQ/+1Pueyib5X4WrcREVQ1p7U7fXXIVg3z6b5DFa6bhyooMyY7pcQEz8fLlSYvHdCyfq5GURsZuuJryDpno3xCua/T0jXjtX76PKzncfFf9P0chK63h0G9ZgDqB0WHWj/ux4NTp14aHLHPv1c99801tsaotNxIGM8iJs5/5RazY1QnobINz9jh4XPf6VCUd1dpuHoNADnYP1o/sS7jw9cOub9s/vGMpnsCxw8asdJyIzWI8frAvNXPrTds9BAuIRBC1G6jF/goXwmwcw1/BHdcA0AOehKgoaDSMgB/EQgJAAAApGC4CQAAACkICQAAAKQgJAAAAJCCkAAAAEAKQgIAAAApCAkAAACkICTAn8XPuxXuY2+ub2Rq6rLmpqCqqfjrA9OdbIcN0jWYdbn+x4EDABqFiCFBlJyerttHt1f1P70pxwvgcTitFTt5lc/218199zH++uiWM1Tvwyn3biUenWMiqGoqtZf3zvMJu7ybraY2AEDkynT8oqISOect55caiiGEMKqE4Mc0g5aL9/bR01Kqe3MvFi/MLVLq1au9GKIgaan6Xw8AaF6i9iSK8kvbaWrKSklJS0lJS0q0rOeG/sU4NxYZB8Q9ils2xtHGzNzWfcO9qurpmdfC/EcMNTYxHOYxK+ZBMR8hhNhPD8z2HTf72MePx2Y52DvaOLitvctFCP+0d9ygwISa50Hhn6I9jWZeYNT891i3TTeSIqZ7WA+zMnOcdTwTR0RJ/DSL6ZGxC3zHuLs5Wzn6rUvMFtQv4aVFTfVx91h9oyL7VJCLjb2j04oblQghxM9LigwY7TDE2ETf2NotKDatTHD3lCh/dmT+WAdjY5PBQ6yGT4y4U1r9ejwvOSrAzdrI2MTEefrmGzk/Nob3NGL4EM8d6XjdswQA1BLxqI4zGJUfE/xNDlTxpDoZuM5YMt1M/U8/7g1U4z7YHd1r7fZ/VypTWeWVFCmEEOvptlnrM0ZEXtylQ8+7Huq3YKnqie0j2kn09966f8yNRVZbO0TEB/Sq3SYEHkDxrLjtN5eEH7iqLYVXlLNlqAghRFTevpQZefCwhQql5PoS11XRQ4aEmpI9mZY2YGpU7FRO0gKLze22xs/t+327oSh2GuS80H19X3V62f31vrPC4ocd8e1Eulnxv53eFFXsfPzWaA0aq+jDmxJlOQwhxPtwaPbiZP3w41v0FcofREyZs1Bea9+kLjWzwZS7GxhyuipCxxeAeojYk5AYtvzi9StXUu4lXdo2SvzCoqBDn+HcrKWQMBo/UV+ZhhBGl5MVRwhx086fLzPzHaMjR0Hi6uaelrKpianlv3sVqYuL33BtKQwhmqxc7RP+qFq2HkNVqAhhCrp6Xau+Zpb8TlUfcW0j6/7q0lREVRpkPVixMCdfUBsxuU6a9HdXTiQ8zmaKK3fv302JghDC3yac+9B/rJ++Mg1RlQaNctR+m3gn53trqJoOIeHz7ISuPQHAX0vk8SG6nBIdIYRU+rhOcz05OuVxqbeWMpyftQAUBVUlsZ+mMAsKykoezrO5VX06TfDYYr0qGQRSEGp9ET8fqSnKygq/HGIpCkq1EykUCuLzfyeB8KJHJ3YduplexKWJURiZJbilwLlgcpbLD0qdio1dOTaMp+MyLSjAsZs0xi/KK6q6t97BbFPNTDk0DaMKPvyeD4AGasyLCDhOUOiSYpAQLRVdRUWu/citF+bpkaz2/+YAhYL4/Jqzb35xUfF/ugV1rWmR1z5RenXl7AMSi2MPOKiLI25KqP3Set8joW40bpHRuDk5KTFzg4N2acYH61KUVZVkLQOvrreAq+EAiEK08yp+zqMbj7+U8xDilb46E/1voaG1vmwjtQw0OnE9ZxfJq5F7U78xeDxWeW7Gw6dfvxeypigqyhW+eZXHQwjhOB8hRFXp3FE8/eb1bxyEV2TEH7kqcNSn0XArK9h0RVVZMcSvyPj3ZO1laFL83KfJL3MYOEJ0pc5aanQeh4sQovYcPqLL/T2RNz6XcXF2RcGHJ0/eV/wwJ3ZJdlZ+BYyNAlAfETvfeG7S1kn2Q3QHmtgHX5T0iVg1XBU6Ei0XvX/gjqV6rzaPHWaoN9TJa+mhh4XfOwe0fl6zHSqiXU3MzWzHRzzhIYSkTWcssSza5m46yNxz9QfzCRbNUVwIU7EL8O+cHGRrZObovb3Ywcu45sp3xc1Qj5FObkHHvrBSNo1xGuHuHfWchxAiyl+eXDHaeshAQxNzn2NobOjUgTSEEK2r17aN1kV7p1obDDa0HRsUlZzN/f9SKq+vcvLcfJ/Z9J8HgFYOig6BvxD+fIvbzPzZCevMBd29BwCAy3jgb8QvfPEC2bsbQUIAUC/oSQAAACAFPQkAAACkICQAAACQgpAAAABACkICAAAAKQgJAAAApCAkAAAAkIKQAAAAQEr0kCDK0k+v8nc3NxlqONQ7OgOehiMUbso6G1M79zl7Uouh4CsAoOUS9WY63odDk6Zc6j4vdKZVdwUan09QKPDwJuEQzHdRfuNvWZ44OrEzFGoCALRMIvYkmCkHDlaMXL7QrrsCDSEECdEAmGTnbh2oVYwq6EoAAFos0UICf/8wDWljt4Lc7YaaO3guOFhfOWLwC/jCAAAtmIghUZibX5L2Rmri7vNJl3Z6cg8HR9yraqSW/QWo6hrt8h8kpmZV8v50UwAAoE6ihQTB52Mdh08Z219JjCKp5eRuwnvy+BNcuhYWtc/klX6S56bbm+jPvsz4060BAIBfiVa+lNa+o1plQTEXISpCCGezeWJiYvW+C9TA0/et2FvltCPB11BTtjELyQIAQCMRrSdB/cfRsd3NHTvv5LHxijfHjt5TMh6iDb/UERae/SVX1cAaEgIA0GKJeHSi9vDdsLJs9Vo3szy+fE/rgE1T+0JPomHg92AAgBZM5FNYsY7W86Ks5zVGW/4y/KrP777h0jrNUTgaAAB+D4xz/Bnce+tdlt1XHDRjwUhNGJ8DALRYUL4UAAAAKXjAHwAAAFIQEgAAAEhBSAAAACAFIQEAAIAUhAQAAABSEBIAAABIQUgAAAAgBSEBAACAlEghQRTE+erp9urz/3+9hy6/zW2stv1R/KzDUyxNh08OPf8J7jYEAPy1RLzjGmcz2bya2mr454P+U16NPRcxXLmNPI0IL7wa4raSEnpjtbn4n24LAAD8CSION1ElJKWkpaSkpaSkKW/Oniu1GWfZVhICIURV1NZS4VQxoIwSAOBv1VjXJIiiq0cSZF3HDZJspBm2DBiCItQAgL9ZI4UE/jHuyNN+Y0Z0bVtPNKUoaXQQf3Mj4U0xm/+n2wIAAH9A44QEI/VoXLGll61q2xlqQgghhCnZLQoxfLdxjImBx7ZXMOoEAPjrNEY9CX7+pYOJim57DNrWUBNCiCi5Grb6fvfgI/uG/6NCh58LAwD+Oo1w4OO9PXX4Rd+xbl3bXgEjftHXLPY/wxx1ICEAAH8n0Y99FXcOnymzGmOr2hYPowSCItQAgL+Z6Gf/shZrrlk0QktaIF7xx0+FdBmZtnU1HgAAhNf2hogaCT/r2IxJ+wp7OC6dbwx30gEA/lZQ4xoAAACptnghAQAAQCOBkAAAAEAKQgIAAAApCAkAAACkICQAAACQgpAAAABACkICAAAAKQgJAAAApEQNCaLkyZ65o80MDQYa249dfuYts1Fa1UrhL7ZOWnmvuWt8E2UXZ089mgMFLwAATUDEkOA+2LHoAMdt/417qRfXDs4IX3E88++tuoDnPH7ytfk/PvvFg6fsZl8qAODvIGJI4AwGp13vAZ2lKDRFHb3u9KpKZlup9sl7EubstSfl4trJTtZWQ4eNWHy5qPqjcTKvhfmPGGpsYjjMY1bMg2I+Qgh/d2rZpHFTop4XJiweYWPvaOO85EIxgRD+ae+4QYEJjOpZ4p+iPY1mXmAghIji+CmWyy88iJ3j6WhubmXtE/OChxBREj/NYnpk7ALfMe5uzlaOfusSs3nkTSRK7kYG+oxaeqXgRYyXo6ONvdO4nS+qX8+5scg4IO5R3LIxjjZm5rbuG+5VIcRLC7c1X3mX+/0DOgxdXvN/dX2o2i/iacTwIZ470v/e9AfgbybiA/7oxl7j9i/euk8v2Lz0eNRb4+nTe7ShRwbyXh+Mfr5y/anF6hKcinJcBkMIsZ5um7U+Y0TkxV069LzroX4Llqqe2D6iXXf3lXtHpK13msdcdjbUSEyYuROlidtPzAjffa63PGKUMSVoCBEIEZW3L2VGHjxsoUIpub7EdVX0kCGhpiTVnDDFIQHbjL1Oz7A+b3J431j1nxOf+2B3dK+12/9dqUxllVdSpBAizRuSD1U9P0y5u4Ehp6siPDIdgL+RqNck6F2tPHQKLx3cFbYtRd5hlIFaW7oSTqB+7tPM1CUQQuKycpIYQoibdv58mZnvGB05ChJXN/e0lE1NTC3/vd4TRdnax7O3PBUhqrS8TG24UrVsPYaqUBHCFHT1ulZ9zSz53asNEkbjJ+or0xDC6HKygp5kK/hDUTUdQsLn2XVoS2sWACAs0c77ieKrK6Yf7hB2aF1fadbn04sCpzDWHZreW6KRGvenYVLKStI/n0AzCwrKSh7Os7lVXWOC4LHFelUyCKQg1Hk28VOaYEoqSr++jaKgpFBzPKZQKIjP/93xO4qCqpLALs331oj2oQAAbZloIcF9kZgsY7pPRxohRNdydtPbuvHGO//efdpulR66iopc+5FbL8zTE+6bqz7O1/QF+MVFxUJ0Cxp4aK5+uVBRQqFQCLz22gK3uKicL4VQwz8UAODvIdoYAlW9U/uclMSXpTjiV2VevviAp91Vo00PS4jrObtIXo3cm/qNweOxynMzHj79WvvTIkxRWYGR8TKThRDiVx+LqSqdO4qn37z+jYPwioz4I1fzG/26PkZXVhLPSk8vxREicFxQCFE1OnVkpd24V8BDvNKnh4/crSLq/VAIIXZJdlZ+BVy3BuCvJGJI9PBdPafbg8X2xob6Vn4HOCO3LLVr4xc46f0DdyzVe7V57DBDvaFOXksPPSysPS5TO7sHeknFTzQZYmU5cu2tCoQQkjadscSyaJu76SBzz9UfzCdYSDf610M3njhX//1KB1NjS+cph94L+DUUpuI4d27vl8tcDIxsxkWxXMYNFKv3QyFUeX2Vk+fm+3/1HTAA/L2gMh0QDH++xW1m/uyEdeYyf7opAIDm16bHhoDo+IUvXiB7dyNICAD+TtCTAAAAQAp6EgAAAEhBSAAAACAFIQEAAIAUhAQAAABSEBIAAABIQUgAAAAgBSGBeA8jRw+3M9LXM111v7mrygEAQMsmakhwv14LmzJiiKHRYAvPOfvSSpux5BA3ZZ2NqZ37nD2pxSItlaYfcPzC+c3Oyk35PBF+wd2dM9xshozY8ljAczMAAKCFES0k8C9Hlqx63GvJueR7d+OCuySFhCYUNltMiBkvunIl0jJ/z+azX1r60+fwdyc2HWG47r15ds5AeNIqAKD1EC0keBkv3mlYOusp05CYir6fd9+H55OKmrEzgUl27taBWsWoEmaZRFXG6dCJNqYmg01sPRcff1Eh+E1E+bMj88c6GBubDB5iNXxixJ3aXpKASp8Cll3JktDQai+o9A8AALQ8ooUETVNb/Vvy9ddlOOKVvL54+VlFVlb27xZS+31CRUR50rrAneUu0VfupF6LdmfsDdxwW1BFOf6305uiip1jbqUk379+YkugY285DKHaSp9Gay8mJ98+MlXm7IKl5/KFzzMEsAAAC2BJREFU+sREQ+tEAADAnyfio8J7+q6drX1vifMwK4fphyo6aNGolOYtOERV12iX/yAxNauynqH+yrvx1yWdJg7XlsQwSS0XdyP2retPBVynxuQ6adLfXTmR8DibKa7cvX83JQpCv1e+lFeReTfxUVn7Tu3hZwIAgFZG1AFy6X9Grtw/EiGEEP5xz/jtKmqqzXokpPaZvNIvPWi6/V6K5frkrXbSJK/jl+QXMLPuTbM+VVPIjcshDCu4CJENAGFylssPSp2KjV05Noyn4zItKMCxmzTW4EqfRPEZf+vQZNTeLGjr+G5tt2IfAKCNaryrqHh2UtJHrSF6TfojoV+Xmr5vxd4qpx0JvoaasgI+DCavqiLZ3Tz2kH8XoY/UEupG4xYZjZuTkxIzNzhol2Z8sC6toZU+MSXX6PuWmXejgxetPGhwyB9yAgDQqoh82s/j8hDiM77eigyJybHw9+javEdBPPtLrqqBteCEQAhhckPcrEritsU9zWfxuMzSb6/uv8wTdC2Bn/s0+WUOA0eIrtRZS43O43ARqrfSZ52LFpPTMrEaJJ/7Nbf5L9cAAIBIRO1JcO+vswq+whST6zzQYcWeyTbN24+oIcwyMXnzRTsrIzeGeGz9XI7Jqncz9g4Z1EeNws85s3DWvgwus6C4GIWOfCxJ6+QRvmVMF1T+8uSKWfOzKvk0cdlOhmNDp1b/dpXeP3DH0qiwzWOHfSjhS7fT1vVcFNZfU6hGNuPPvgAAoHG07qJD/KqMKL8Jt61PHvHt1KLHcfCMHR4+950ORXl3lYar1wCA1qMVH7G499YPd5l/t/OMBSM1W3RCIISo3UYv8FG+EmDnGv4I7rgGALQerbsnAQAAoEm14p4EAACApgYhAQAAgBSEBAAAAFIQEgAAAEhBSAAAACAFIQEAAIAUhAQAAABSEBJtAD/vVriPvbm+kampy5qblQJeib8+MN3JdtggXYNZl1nN1j4AQOvVgJDglz6LDXQY6Bz58sdioeyPZ1d4WxoZDDQdOWPXA9GqTbd2+Iutk1beE1CkookW+/roljNU78Mp924lHp1jIiPgpdRe3jvPJ+zy7gInBwAAoQh5sCAY6UdnjVucIqEh89M7eK/3Lgz7aBR+OSXl+Ayli4tWXmrO6qUtDJ7z+MnXP1BtGy/MLVLq1au9GKKIS0uJNX8DAABtl5AhgdGVtO2Xx0Z4aP/0lCT83dVrecZe4/vLUyU6WEx210i5kFzaRlKC9yTM2WtPysW1k52srYYOG7H4ck3+1VXjGn93atmkcVOinhcmLB5hY+9o47zkQjGBEP5p77hBgQmM6lnin6I9jWZeYCCEiOL4KZbLLzyInePpaG5uZe0T84KHEFESP81iemTsAt8x7m7OVo5+6xKzBT3qiZcWNdXH3WP1jYrsU0EuNvaOTituVCKEED8vKTJgtMMQYxN9Y2u3oNi0st8r6I3nJUcFuFkbGZuYOE/ffCPnx8bwnkYMH+K5I/0PxCIAoNkI+6hwqrqRgzri3sPxH482nC8fc9r16ExHCCFEaa/diRr34QuOFBuvlNEfxXt9MPr5yvWnFqtLcCrKcRkM1da4HhF5cZcOPe96qN+Cpaonto9o19195d4Raeud5jGXnQ01EupsnihN3H5iRvjuc73lEaOMKUFDiECIqLx9KTPy4GELFUrJ9SWuq6KHDAk1lSSZBW3A1KjYqZykBRab222Nn9v3e4JTFDsNcl7ovr6vOr3s/nrfWWHxwwQ9KLemoPfxW6M1aKyiD29KlOUwhBDvw6HZi5P1w49v0VcofxAxZc5Cea19k2qrNmHK3Q0MOV0VoXQ3AG2ZSGPTBJvF4ktISNT8L0anizOrmG2kJ4EQIlA/92lm6hIIIXFZOUkM/V6NazIUZWsfz97yVISo0vIytcFK1bL1GKpCRQhT0NXrWvU1s+R3ShWJaxtZ91eXpiKq0iDrwYqFOfmC2lh3QW/8bcK5D/3H+ukr0xBVadAoR+23iXdyvreGqukQEj7PrgNc3gCgLRPpnB+TkJSksNm1ldkIFpsjqUhvO2eWmJSykvTPH6ehNa5/Rvx0pMaUVJR+fRtFQUmh5rhLoVAQn/87CYQXPTqx69DN9CIuTYzCyCzBLQXOpe6C3vyivKKqe+sdzDbVzJRD0zCq4MNP4gD4m4g2MCSu1a1D/qcvLNRTGiF+7udMnqZey67+I6qG1riuPs7XnH3zi4uKhegWiJyyROnVlbMPSCyOPeCgLo64KaH2S+t9Tx0FvSnKqkqyloFX11tIidoiAEBrJdpJIbWrrUPHlEOHnpXhnJykPae+DrY3Ee6curUSVOMaU1RWYGS8zGQhhPg4jhBCVJXOHcXTb17/xkF4RUb8kasCR30aDbeygk1XVJUVQ/yKjH9P3qnvxwR1F/Sm9hw+osv9PZE3PpdxcXZFwYcnT95X/DAndkl2Vn4FXLcGoE0TceSA2n3C2sU97gfZGRuNisizWb3cSbWNj0XQ+wfuWKr3avPYYYZ6Q528lh56WFjbOaB2dg/0koqfaDLEynLk2lsVCCEkbTpjiWXRNnfTQeaeqz+YT7CQboYMxVTsAvw7JwfZGpk5em8vdvAyrrnyXXEz1GOkk1vQsS+slE1jnEa4e0c95yGEiPKXJ1eMth4y0NDE3OcYqi3oTevqtW2jddHeqdYGgw1txwZFJWf/cBNI5fVVTp6b7zOb/vMAAP4cqEwHfg/+fIvbzPzZCevMBd29BwBo5dr4eT9oKvzCFy+QvbsRJAQAbRv0JAAAAJCCngQAAABSEBIAAABIQUgAAAAgBSEBAACAFIQEAAAAUhASAAAASEFIAAAAIAUhAQAAgJTINa7Jpzc1bso6G1M79zl7Uv/uytoAANB0RKxxTTa9OYgZL7pyJdIyf8/ms1/gUaQAANAURKtxTTq9mWCSnbt1oFYxqqArAQAATUHY83+qupHDYFUa/nONa/LpzQoiAgAAmkZrv3BNVddol/8gMTWrkvenmwIAAG1Pqw+JPpNX+kmem25voj/7MuNPtwYAANoY0Wpc/3l4+r4Ve6ucdiT4GmrKtvYPAwAALU1r70ng2V9yVQ2sISEAAKAptPaQQAgh1AxlowEA4K/UuivT8asyovwm3LY+ecS30x/5DS4AALRtrXiQhntvvcuy+4qDZiwYqQkJAQAATaF19yQAAAA0qTZxTQIAAEDTgJAAAABACkICAAAAKQgJAAAApCAkAAAAkIKQAAAAQApCAgAAACkICQAAAKRErHGNFz85GjLR2XiwwUBTV/+IO3k/1hHlZx2eYmk6fHLo+U9wwx4AALRGIta4Zn97naU6asOF2ym3948TOxOyIbH8/2XiKB29dl+ND1S9EbY3BVICgP+1dz+hDMZxHMe3lrVQsnbw5zIrmrUddhBJKUljjhzkhtpB5k8syg4WSdtJkVLjIg7KjUhKUf4UhbSyk+2gGLV/NX/2ODhgttOzlafer+PT8zy/2/Pp93yfng8gQSI7rvNN3Q67Ra9WKQp0Lc2GxH0glPx1gqK4Qqt5jcc+ZAAAyRHbcf0tfn3pLzKaSlP/tSeXUUINABKVpcG1EDr0uI+MdluNKnUBdXmZ0new7XtOJNNeCgD4t7IREkLkYmFkym/xuFpL/txPrrZMOOvu3F0NtZ3zt7x1AgApEd0nIUSvlofGjs2zizZzYZqKOOFlb276pHJ0zduu16j44hYApETcU1uI3awMD+5ox+d6qhXRcDgSiSVSNgvJUCCY0DdZDSQEAEiOuJ3E2+nq0vlD/Mzetvl1QKHr29gaMP4cXgsySqgBQKJy3Uz3/rjr7JjJc+27GpW5XAcAkAO57LhOBtf7e71PVdZJRz0JAQASRMc1ACAjhskAgIwICQBARoQEACCjTwf77eWNhxn5AAAAAElFTkSuQmCC;" parent="1" vertex="1">
                    <mxGeometry x="110" y="1290" width="520.53" height="300" as="geometry"/>
                </mxCell>
                <mxCell id="30" value="" style="shape=table;startSize=0;container=1;collapsible=0;childLayout=tableLayout;" parent="1" vertex="1">
                    <mxGeometry x="1021" y="580" width="500" height="200" as="geometry"/>
                </mxCell>
                <mxCell id="31" value="" style="shape=tableRow;horizontal=0;startSize=0;swimlaneHead=0;swimlaneBody=0;top=0;left=0;bottom=0;right=0;collapsible=0;dropTarget=0;fillColor=none;points=[[0,0.5],[1,0.5]];portConstraint=eastwest;" parent="30" vertex="1">
                    <mxGeometry width="500" height="40" as="geometry"/>
                </mxCell>
                <mxCell id="32" value="&lt;b&gt;from&lt;/b&gt;" style="shape=partialRectangle;html=1;whiteSpace=wrap;connectable=0;overflow=hidden;fillColor=none;top=0;left=0;bottom=0;right=0;pointerEvents=1;" parent="31" vertex="1">
                    <mxGeometry width="100" height="40" as="geometry">
                        <mxRectangle width="100" height="40" as="alternateBounds"/>
                    </mxGeometry>
                </mxCell>
                <mxCell id="33" value="&lt;b&gt;sequence of basic blocks&lt;/b&gt;" style="shape=partialRectangle;html=1;whiteSpace=wrap;connectable=0;overflow=hidden;fillColor=none;top=0;left=0;bottom=0;right=0;pointerEvents=1;" parent="31" vertex="1">
                    <mxGeometry x="100" width="300" height="40" as="geometry">
                        <mxRectangle width="300" height="40" as="alternateBounds"/>
                    </mxGeometry>
                </mxCell>
                <mxCell id="34" value="&lt;b&gt;to&lt;/b&gt;" style="shape=partialRectangle;html=1;whiteSpace=wrap;connectable=0;overflow=hidden;fillColor=none;top=0;left=0;bottom=0;right=0;pointerEvents=1;" parent="31" vertex="1">
                    <mxGeometry x="400" width="100" height="40" as="geometry">
                        <mxRectangle width="100" height="40" as="alternateBounds"/>
                    </mxGeometry>
                </mxCell>
                <mxCell id="35" value="" style="shape=tableRow;horizontal=0;startSize=0;swimlaneHead=0;swimlaneBody=0;top=0;left=0;bottom=0;right=0;collapsible=0;dropTarget=0;fillColor=none;points=[[0,0.5],[1,0.5]];portConstraint=eastwest;" parent="30" vertex="1">
                    <mxGeometry y="40" width="500" height="40" as="geometry"/>
                </mxCell>
                <mxCell id="36" value="ENTRY" style="shape=partialRectangle;html=1;whiteSpace=wrap;connectable=0;overflow=hidden;fillColor=none;top=0;left=0;bottom=0;right=0;pointerEvents=1;" parent="35" vertex="1">
                    <mxGeometry width="100" height="40" as="geometry">
                        <mxRectangle width="100" height="40" as="alternateBounds"/>
                    </mxGeometry>
                </mxCell>
                <mxCell id="37" value="B0 - B1 - B2" style="shape=partialRectangle;html=1;whiteSpace=wrap;connectable=0;overflow=hidden;fillColor=none;top=0;left=0;bottom=0;right=0;pointerEvents=1;" parent="35" vertex="1">
                    <mxGeometry x="100" width="300" height="40" as="geometry">
                        <mxRectangle width="300" height="40" as="alternateBounds"/>
                    </mxGeometry>
                </mxCell>
                <mxCell id="38" value="JA" style="shape=partialRectangle;html=1;whiteSpace=wrap;connectable=0;overflow=hidden;fillColor=none;top=0;left=0;bottom=0;right=0;pointerEvents=1;" parent="35" vertex="1">
                    <mxGeometry x="400" width="100" height="40" as="geometry">
                        <mxRectangle width="100" height="40" as="alternateBounds"/>
                    </mxGeometry>
                </mxCell>
                <mxCell id="39" value="" style="shape=tableRow;horizontal=0;startSize=0;swimlaneHead=0;swimlaneBody=0;top=0;left=0;bottom=0;right=0;collapsible=0;dropTarget=0;fillColor=none;points=[[0,0.5],[1,0.5]];portConstraint=eastwest;" parent="30" vertex="1">
                    <mxGeometry y="80" width="500" height="40" as="geometry"/>
                </mxCell>
                <mxCell id="40" value="ENTRY" style="shape=partialRectangle;html=1;whiteSpace=wrap;connectable=0;overflow=hidden;fillColor=none;top=0;left=0;bottom=0;right=0;pointerEvents=1;" parent="39" vertex="1">
                    <mxGeometry width="100" height="40" as="geometry">
                        <mxRectangle width="100" height="40" as="alternateBounds"/>
                    </mxGeometry>
                </mxCell>
                <mxCell id="41" value="B0 - B1 - B2 - B3" style="shape=partialRectangle;html=1;whiteSpace=wrap;connectable=0;overflow=hidden;fillColor=none;top=0;left=0;bottom=0;right=0;pointerEvents=1;" parent="39" vertex="1">
                    <mxGeometry x="100" width="300" height="40" as="geometry">
                        <mxRectangle width="300" height="40" as="alternateBounds"/>
                    </mxGeometry>
                </mxCell>
                <mxCell id="42" value="JB" style="shape=partialRectangle;html=1;whiteSpace=wrap;connectable=0;overflow=hidden;fillColor=none;top=0;left=0;bottom=0;right=0;pointerEvents=1;" parent="39" vertex="1">
                    <mxGeometry x="400" width="100" height="40" as="geometry">
                        <mxRectangle width="100" height="40" as="alternateBounds"/>
                    </mxGeometry>
                </mxCell>
                <mxCell id="43" value="" style="shape=tableRow;horizontal=0;startSize=0;swimlaneHead=0;swimlaneBody=0;top=0;left=0;bottom=0;right=0;collapsible=0;dropTarget=0;fillColor=none;points=[[0,0.5],[1,0.5]];portConstraint=eastwest;" parent="30" vertex="1">
                    <mxGeometry y="120" width="500" height="40" as="geometry"/>
                </mxCell>
                <mxCell id="44" value="ENTRY" style="shape=partialRectangle;html=1;whiteSpace=wrap;connectable=0;overflow=hidden;fillColor=none;top=0;left=0;bottom=0;right=0;pointerEvents=1;" parent="43" vertex="1">
                    <mxGeometry width="100" height="40" as="geometry">
                        <mxRectangle width="100" height="40" as="alternateBounds"/>
                    </mxGeometry>
                </mxCell>
                <mxCell id="45" value="B0 - B1- B2 -B3 - B5" style="shape=partialRectangle;html=1;whiteSpace=wrap;connectable=0;overflow=hidden;fillColor=none;top=0;left=0;bottom=0;right=0;pointerEvents=1;" parent="43" vertex="1">
                    <mxGeometry x="100" width="300" height="40" as="geometry">
                        <mxRectangle width="300" height="40" as="alternateBounds"/>
                    </mxGeometry>
                </mxCell>
                <mxCell id="46" value="RETURN" style="shape=partialRectangle;html=1;whiteSpace=wrap;connectable=0;overflow=hidden;fillColor=none;top=0;left=0;bottom=0;right=0;pointerEvents=1;" parent="43" vertex="1">
                    <mxGeometry x="400" width="100" height="40" as="geometry">
                        <mxRectangle width="100" height="40" as="alternateBounds"/>
                    </mxGeometry>
                </mxCell>
                <mxCell id="47" value="" style="shape=tableRow;horizontal=0;startSize=0;swimlaneHead=0;swimlaneBody=0;top=0;left=0;bottom=0;right=0;collapsible=0;dropTarget=0;fillColor=none;points=[[0,0.5],[1,0.5]];portConstraint=eastwest;" parent="30" vertex="1">
                    <mxGeometry y="160" width="500" height="40" as="geometry"/>
                </mxCell>
                <mxCell id="48" value="JB" style="shape=partialRectangle;html=1;whiteSpace=wrap;connectable=0;overflow=hidden;fillColor=none;top=0;left=0;bottom=0;right=0;pointerEvents=1;" parent="47" vertex="1">
                    <mxGeometry width="100" height="40" as="geometry">
                        <mxRectangle width="100" height="40" as="alternateBounds"/>
                    </mxGeometry>
                </mxCell>
                <mxCell id="49" value="B6" style="shape=partialRectangle;html=1;whiteSpace=wrap;connectable=0;overflow=hidden;fillColor=none;top=0;left=0;bottom=0;right=0;pointerEvents=1;" parent="47" vertex="1">
                    <mxGeometry x="100" width="300" height="40" as="geometry">
                        <mxRectangle width="300" height="40" as="alternateBounds"/>
                    </mxGeometry>
                </mxCell>
                <mxCell id="50" value="JC" style="shape=partialRectangle;html=1;whiteSpace=wrap;connectable=0;overflow=hidden;fillColor=none;top=0;left=0;bottom=0;right=0;pointerEvents=1;" parent="47" vertex="1">
                    <mxGeometry x="400" width="100" height="40" as="geometry">
                        <mxRectangle width="100" height="40" as="alternateBounds"/>
                    </mxGeometry>
                </mxCell>
                <mxCell id="52" value="" style="shape=table;startSize=0;container=1;collapsible=0;childLayout=tableLayout;" parent="1" vertex="1">
                    <mxGeometry x="920" y="1650" width="500" height="200" as="geometry"/>
                </mxCell>
                <mxCell id="53" value="" style="shape=tableRow;horizontal=0;startSize=0;swimlaneHead=0;swimlaneBody=0;top=0;left=0;bottom=0;right=0;collapsible=0;dropTarget=0;fillColor=none;points=[[0,0.5],[1,0.5]];portConstraint=eastwest;" parent="52" vertex="1">
                    <mxGeometry width="500" height="40" as="geometry"/>
                </mxCell>
                <mxCell id="54" value="&lt;b&gt;from&lt;/b&gt;" style="shape=partialRectangle;html=1;whiteSpace=wrap;connectable=0;overflow=hidden;fillColor=none;top=0;left=0;bottom=0;right=0;pointerEvents=1;" parent="53" vertex="1">
                    <mxGeometry width="100" height="40" as="geometry">
                        <mxRectangle width="100" height="40" as="alternateBounds"/>
                    </mxGeometry>
                </mxCell>
                <mxCell id="55" value="&lt;b&gt;sequence of basic blocks&lt;/b&gt;" style="shape=partialRectangle;html=1;whiteSpace=wrap;connectable=0;overflow=hidden;fillColor=none;top=0;left=0;bottom=0;right=0;pointerEvents=1;" parent="53" vertex="1">
                    <mxGeometry x="100" width="300" height="40" as="geometry">
                        <mxRectangle width="300" height="40" as="alternateBounds"/>
                    </mxGeometry>
                </mxCell>
                <mxCell id="56" value="&lt;b&gt;to&lt;/b&gt;" style="shape=partialRectangle;html=1;whiteSpace=wrap;connectable=0;overflow=hidden;fillColor=none;top=0;left=0;bottom=0;right=0;pointerEvents=1;" parent="53" vertex="1">
                    <mxGeometry x="400" width="100" height="40" as="geometry">
                        <mxRectangle width="100" height="40" as="alternateBounds"/>
                    </mxGeometry>
                </mxCell>
                <mxCell id="57" value="" style="shape=tableRow;horizontal=0;startSize=0;swimlaneHead=0;swimlaneBody=0;top=0;left=0;bottom=0;right=0;collapsible=0;dropTarget=0;fillColor=none;points=[[0,0.5],[1,0.5]];portConstraint=eastwest;" parent="52" vertex="1">
                    <mxGeometry y="40" width="500" height="40" as="geometry"/>
                </mxCell>
                <mxCell id="58" value="ENTRY" style="shape=partialRectangle;html=1;whiteSpace=wrap;connectable=0;overflow=hidden;fillColor=none;top=0;left=0;bottom=0;right=0;pointerEvents=1;" parent="57" vertex="1">
                    <mxGeometry width="100" height="40" as="geometry">
                        <mxRectangle width="100" height="40" as="alternateBounds"/>
                    </mxGeometry>
                </mxCell>
                <mxCell id="59" value="B0 -B1" style="shape=partialRectangle;html=1;whiteSpace=wrap;connectable=0;overflow=hidden;fillColor=none;top=0;left=0;bottom=0;right=0;pointerEvents=1;" parent="57" vertex="1">
                    <mxGeometry x="100" width="300" height="40" as="geometry">
                        <mxRectangle width="300" height="40" as="alternateBounds"/>
                    </mxGeometry>
                </mxCell>
                <mxCell id="60" value="JA" style="shape=partialRectangle;html=1;whiteSpace=wrap;connectable=0;overflow=hidden;fillColor=none;top=0;left=0;bottom=0;right=0;pointerEvents=1;" parent="57" vertex="1">
                    <mxGeometry x="400" width="100" height="40" as="geometry">
                        <mxRectangle width="100" height="40" as="alternateBounds"/>
                    </mxGeometry>
                </mxCell>
                <mxCell id="61" value="" style="shape=tableRow;horizontal=0;startSize=0;swimlaneHead=0;swimlaneBody=0;top=0;left=0;bottom=0;right=0;collapsible=0;dropTarget=0;fillColor=none;points=[[0,0.5],[1,0.5]];portConstraint=eastwest;" parent="52" vertex="1">
                    <mxGeometry y="80" width="500" height="40" as="geometry"/>
                </mxCell>
                <mxCell id="62" value="ENTRY" style="shape=partialRectangle;html=1;whiteSpace=wrap;connectable=0;overflow=hidden;fillColor=none;top=0;left=0;bottom=0;right=0;pointerEvents=1;" parent="61" vertex="1">
                    <mxGeometry width="100" height="40" as="geometry">
                        <mxRectangle width="100" height="40" as="alternateBounds"/>
                    </mxGeometry>
                </mxCell>
                <mxCell id="63" value="B0 - B1 - B2 - B3" style="shape=partialRectangle;html=1;whiteSpace=wrap;connectable=0;overflow=hidden;fillColor=none;top=0;left=0;bottom=0;right=0;pointerEvents=1;" parent="61" vertex="1">
                    <mxGeometry x="100" width="300" height="40" as="geometry">
                        <mxRectangle width="300" height="40" as="alternateBounds"/>
                    </mxGeometry>
                </mxCell>
                <mxCell id="64" value="JB" style="shape=partialRectangle;html=1;whiteSpace=wrap;connectable=0;overflow=hidden;fillColor=none;top=0;left=0;bottom=0;right=0;pointerEvents=1;" parent="61" vertex="1">
                    <mxGeometry x="400" width="100" height="40" as="geometry">
                        <mxRectangle width="100" height="40" as="alternateBounds"/>
                    </mxGeometry>
                </mxCell>
                <mxCell id="65" value="" style="shape=tableRow;horizontal=0;startSize=0;swimlaneHead=0;swimlaneBody=0;top=0;left=0;bottom=0;right=0;collapsible=0;dropTarget=0;fillColor=none;points=[[0,0.5],[1,0.5]];portConstraint=eastwest;" parent="52" vertex="1">
                    <mxGeometry y="120" width="500" height="40" as="geometry"/>
                </mxCell>
                <mxCell id="66" value="ENTRY" style="shape=partialRectangle;html=1;whiteSpace=wrap;connectable=0;overflow=hidden;fillColor=none;top=0;left=0;bottom=0;right=0;pointerEvents=1;" parent="65" vertex="1">
                    <mxGeometry width="100" height="40" as="geometry">
                        <mxRectangle width="100" height="40" as="alternateBounds"/>
                    </mxGeometry>
                </mxCell>
                <mxCell id="67" value="B0 - B1 - B2 - B3 - B4" style="shape=partialRectangle;html=1;whiteSpace=wrap;connectable=0;overflow=hidden;fillColor=none;top=0;left=0;bottom=0;right=0;pointerEvents=1;" parent="65" vertex="1">
                    <mxGeometry x="100" width="300" height="40" as="geometry">
                        <mxRectangle width="300" height="40" as="alternateBounds"/>
                    </mxGeometry>
                </mxCell>
                <mxCell id="68" value="JD" style="shape=partialRectangle;html=1;whiteSpace=wrap;connectable=0;overflow=hidden;fillColor=none;top=0;left=0;bottom=0;right=0;pointerEvents=1;" parent="65" vertex="1">
                    <mxGeometry x="400" width="100" height="40" as="geometry">
                        <mxRectangle width="100" height="40" as="alternateBounds"/>
                    </mxGeometry>
                </mxCell>
                <mxCell id="69" value="" style="shape=tableRow;horizontal=0;startSize=0;swimlaneHead=0;swimlaneBody=0;top=0;left=0;bottom=0;right=0;collapsible=0;dropTarget=0;fillColor=none;points=[[0,0.5],[1,0.5]];portConstraint=eastwest;" parent="52" vertex="1">
                    <mxGeometry y="160" width="500" height="40" as="geometry"/>
                </mxCell>
                <mxCell id="70" value="JA" style="shape=partialRectangle;html=1;whiteSpace=wrap;connectable=0;overflow=hidden;fillColor=none;top=0;left=0;bottom=0;right=0;pointerEvents=1;" parent="69" vertex="1">
                    <mxGeometry width="100" height="40" as="geometry">
                        <mxRectangle width="100" height="40" as="alternateBounds"/>
                    </mxGeometry>
                </mxCell>
                <mxCell id="71" value="B8" style="shape=partialRectangle;html=1;whiteSpace=wrap;connectable=0;overflow=hidden;fillColor=none;top=0;left=0;bottom=0;right=0;pointerEvents=1;" parent="69" vertex="1">
                    <mxGeometry x="100" width="300" height="40" as="geometry">
                        <mxRectangle width="300" height="40" as="alternateBounds"/>
                    </mxGeometry>
                </mxCell>
                <mxCell id="72" value="RETURN" style="shape=partialRectangle;html=1;whiteSpace=wrap;connectable=0;overflow=hidden;fillColor=none;top=0;left=0;bottom=0;right=0;pointerEvents=1;" parent="69" vertex="1">
                    <mxGeometry x="400" width="100" height="40" as="geometry">
                        <mxRectangle width="100" height="40" as="alternateBounds"/>
                    </mxGeometry>
                </mxCell>
                <mxCell id="79" style="edgeStyle=none;html=1;exitX=0.5;exitY=1;exitDx=0;exitDy=0;entryX=0.469;entryY=0.005;entryDx=0;entryDy=0;entryPerimeter=0;" parent="1" source="73" target="77" edge="1">
                    <mxGeometry relative="1" as="geometry"/>
                </mxCell>
                <mxCell id="73" value="" style="rounded=1;whiteSpace=wrap;html=1;strokeWidth=3;" parent="1" vertex="1">
                    <mxGeometry x="140" y="490" width="350" height="90" as="geometry"/>
                </mxCell>
                <mxCell id="74" value="" style="shape=image;verticalLabelPosition=bottom;labelBackgroundColor=default;verticalAlign=top;aspect=fixed;imageAspect=0;image=data:image/png,iVBORw0KGgoAAAANSUhEUgAAAOoAAAAhCAIAAABY2aBuAAAACXBIWXMAAA7EAAAOxAGVKw4bAAARtUlEQVR4nO1cWWwcR3quqr5neqbnnuHc4pDiLZEUKVEUqcuWV17D19paJ7Z3AwQwkCAvCwR5WSzysNlNNg7WwCJYOEGSTWA7NjbrtWXHsSiJlG2JFCWeokiRFO97eA3JuWd6urvyQEqmbHF4iDps83vt7vr/rvrqq6+ObhiJJMAO1gLc6C14Q/duJxB6sPEeNWAAAPiO18E2AD+suA8r8CMCCADcoe924MFLLwAA4+88g3fUdx1smB/4YcjwDoN36LseNsyPBy/A4DtvIXbouwFsjCIPi0jKd5jBZLqLqdmRXv+SojZm+Vzq+ywuqZgYGGnrmw5GE1jjsLl37XFrd/rWKuDodP/4hH9sPq5ARp9fWWCleRoCAAAGGAD4QMVfScWWpjuvTulLvRlGqyYti+4n0gXGyYnuhoYB0V5gzdwMfWUxGosEY4TVwhOQ2NgzWIyI0x0Xa9tvdnfNmg6Vn3yp8JGi76ZnZ1J0ISQqkDLq+e0hFo5Odl+/3FjbPDy7iL1/UfyTKmqFvrcsxP1hsJwIRWIxkbSYeXR7sJYSwYm2d16/UPSLFx7XWDTkmpGVRDiwGJUIxOtMGvrW44qUiESDoYDEW8wajiKIrWZO/PSnP1vrGiQZmjM5PG6P07CJDobDE9fbLrxVM7f/gJVC7MYyg7SathUdOnYsF/QtSmpoya3ONTxC9F3GhpeBgTJ/7aPzbTfG4gX5ru3RJqi25xaUlxY4mGRvbyT/6f1uVve1yt1+BuOl/kuNDTVNi+X7HASgVsqXxcj88KWaYevx/MwMj55aIyxWwgMNf3j3k/qBPtK9x6slIYAAABxfGLx65cN33qiVXTl2g4Zh0BbzTlu1SLBnqWSASHozRYqB4MLUwKRS9u3zZBvQ4OVbcGJieiYwKVqdDySvldB4++mLkzOBwPTwrGLa9KMSkOca33unMZhpPVD99H4rC29VHmT1u0rLnqLEd//rg9Oc+GRZZa6J21J6d6WvJEbm+i6cbhhc9AcZS96+iicOl+qXpTAx1V7fc3NwQpvJTPYvxJPRFKN15eaXl1fu4gkcGmm+cv16y9Vrg9fH4/5//nUrhRghu7Ck+FC5V3cPWqrE5+dGuxsvNffMxEXI6T2FRaXFB/KsKggUf33N1cX5UNygCg9PRcVEEpnyi8qKS/IcRipNkTjm7x1oOvdBe3DVmhckGY376KvfK9BnaNO6HiXs727vaOu8PrYQkQDBCLbCyv3FuXtdjBybv/nFZ9f6Oy9fHZ+X1KNvjFwkETIUHzu+N99rUkWmFgYa/63bfsQeCPjH+8aCCdoo5B0/Ve0y8fTWawgr8uJA65Wmjr6JmSgm1BbnnurjZW6bwEj+roGutpoFR748NhOOLUQlgrc7Cyu+V+HiCYiAHJsZHO5q/bzDn1SS4XA8kcJI8Dj2VP34hGXycn1nd3tjy9CQH0y+EW4iAKUvKKsoLis0rew1Bvtbanp64rPTMUTw9rzqE4dyTFYNBQGQ48FI10fn+hh9RV7ZHrdZTa16O0QwgsG5++BTB6//d0NXl95g1JWYV1FRmh3tbL9SPxwq/+HzewSTas22uCt9IUQUJ1jMhkDvtYFF2eA+crh0pZqk0FRf5+X6Jl4+nGcQeJmdG5nqu3YxpvK6DmQQBK3WCgKvUdGQgILFZmGQihe0anrL5gYAAJTQ7EBHc31TyyJvMWoEJbI0eq0llsDqJ456OBwa7Wlq717S5JRkOawqHA+M3LzSihDSGo55uTRhEcVxgtVuV62mL0GrTTxJrpeuMtfd0dbZOhhibDY7wrIkUQRc8Z+I5ASDQcvSFE1SWr3VlkEhKGjVDIkAwMlQbKL985pryj633cAbbKxCahiOJLY6egIAAE7JidmOujONo3KMEIxGRU7O99Z9RLAvVhU6DKHpqa6Gmmt2udKXoTVZ6bmZ6f6W83Fj5stlJkoj+0e7O+ob+gOWXW6ViOfq+8YU0enI17IIkqxG0Gk5NUMjmtbbbFYS0BqtRkUSECgAACAvDA+o3HaP0WSmQqHp9rpPNTrNIS7bIsBUMjx747MvprU/KPHtyjKzXyMgIjmDpeixMvM/XRoe7PF4C8zWVWN8Kh6anxoeWchOSTJOM+bdlb4EpTL5jrzgK2+UJs/3fvVMhJIUcVQylT35XL6eIibOffpRc01TR/8LB0xq3l5w0GZnaAyGRxLVL71SpSHvRXSXgSPj/V2dV7piulN/9icHrDpprOWj39d1Np9rK650eUgAlGhIot2GkpOnyvSUNHvxzV+dnxzqHCo5mo6+kDV5s496s49uNhsAIMBLI0NjgTki+5nvnzxg16DIbEjhGY5DgECs2Vd5clcmnhujhlD2iVdOVTJfPq0AAGRJnh6fYw5XV5eXe7Q0lhMiZFli6/UkRVPzHbVnb8T2P1/1WGWVE8fGWz/49W8aWvZazLpyjJWUFF9IGEsfe7zAmgFHOz8/+/t3Gq6MnMrTknx0ZGRgpGvW+P2/fPmoQYlciuGG+Jx574lKLweBp+SIy0WkQiiM1Ude/lEVA25VqBgGAAAlEiEs+ZVPHMlzKuOTl9/92b82D1bn+7wWgYrFI1MtzQH9s1l2q5G/67tBCrKePQXGL5qnx0amQ2VW0+3WQrzemVNSpY551So6Xc/ewrQCsnqLvaAsT0dyBARGi06n1iYW56NYVt2fqe/s0NRkcAI5D2eTqVBgCaoEg6Bl57p6hiPPuDUAQDLD4di1p8BIAwBIk8OmZcJiJBRR0i5rK6mkGI8E4/Id74YQpdbzLKLSVBoGULCY1b39I/0tV+18aY5br9HwHEsTd961BiAFmdzS/TnZbh2LAABItTXfdztQPJIcaG1fslXY9CZ1MhQEKWjJ9TG1E+Nzc7tFI4CslvGW798lGFUEwjqN3pChCQ0tpFIpFsfCcREn1UabFhEIaY16NYr7w+EwBub1GxPpCw8UZnl2CQxKac35u524PhFPxlIYoKgYnRn0GzxWQeDXmthBAAiLy66+tBALBOYVYLpdf0iw+sqsvrJ1M9gKfUmK4jVqtKzoEEIIIMD3b/FcikbjwYH+9stv/NU5GgAIgZyMiYzTVJJIYsADACiWYRjVLacLIQAA43X2o5TwWFvrx//+69o5ZZV5oFSGglf+7rVqm8+YrmaQpfKJF/WOlobP69/++7dC+r0nnnzmRFWRx76RDgwRVAs8TVLbtLCiSFJyKRAL3Tz922tnf0eREGBFlmPBuCsqy1IKA0AQkNfwCJEQAAwhgBACrCgAACQYeBVULY32Tid3O3BgfGpJAqzDYoIbWWUheK2WYZhlHgCIEMAAA4wBliU5EY9gnuEIMt0MBCCVmlbmU2IysSX+bG1RB0IE4fIUe817to3OBMcxWq+3aN+Lrx1zI0BCADDABMtozSYCouV8Nj3nRuqM/OIX/voXR8XVuSKC4m3mdeZtAADIaKzZRYctjvzqk7PjNy6eb7rASSn03CH3agKveSQBQpguX4xlSYYkgnAjlhgSBKXRsbqSg09XlRc6jGilDMyanXYd5R9aiXc3RkJNTn6Bf3b83Olf/fyGjSMAbcwtrzrg2+BaNUKrCl31CEQEohkOxsSELEvpSlAS8RRCgKI2tbh1G9u/XwJJmqQhqQSnZxIiq8Y0AACkba11QJhcVtuQazw6lzJWFlgNDFbioaiIJVpgILg99m82AKkSDG7B4N5CRlhcmg1KJOBMziyzy2XEvWcv9wdmFiKp28nQLE2kpFhoPpDCdmqZxhuqBByPB0evvH+mhyrcU7G3eLdlXSZBVsV6iwq0l7BCUnp3tl3D4GQ8tBgj9CqWwekfJ6AsSbJEGLKK9/h4rWDJ8Lo9dv5294UUQ1AKEJdmZkXZTmECgDtXl+9ePMFRKqPLuBSYD4djEtau5R+URf9MjFZpdHrjHWORLIliMiEBjufIdH34LvTFqUhiYfxaz3Q83ts7MTWREumGzzgDrcss9lnWF1XIGPRmq89y8+b5M7UO3qC3Oz3OLI8x7f6FlAjN+2/2jEaksZvTk/4wgE11gp/kHIWFDoPW68v1l8y0dtbXnh0V1CQAikxpM6x55ZZ1ZfL+ILUw1Ns/MxYCKo4kgbi0qDZm2J2WL1sJcnaHSzPSPX6t5lOUoaIFT16OI8Oo3kC6ohib6Kr95DyjUE5vXvYyfTGQ5kZ6Rqdmp4b7+keC0cCNhssKN2J3Ox0On5Wn7aVHK25ene1trV3wG1gKKHIqpck9XOQ1adfxUMloOLwwH5G1UjwRh8pkMhEOBT2ZWV47jyAAkDVbMowZfM+NM//HOjhecGX6HJ4M1TovgdScxl5cxH44NDZT4IhbTXdxVTgFUnPd3bOKptzmtN0xxRcDM4ODXb0hvuLxEhOhWtt+3E19xXBs+kZ93bWFZDQoAwUujTfWLbKcF/qMGg0nWKyOlCyQK10QqTQmmzNTNFBgpW1os81XeOTYyB8+r/3iBkNnlB2sVrs8RjbN2+JUIjQ90Fh3aUYOBZEsi2Cqra52CBnLjV6TRm1wFZYzHKmcudh8YWZRJGit1VvEanMAAABwBptTSli0tybFkNE77Bka+PUtqe0DlKOLo11t1ycX4gqiaK29sKKyZH/+qlZlvflle8Kx+rrmM6eRmt91XGXSmwxqkuRonX23T6/jyDUGPpKk9M7cglzKadOpbvUHDFJzA+1XW3vG/PF4VLBS45ea5wjed6iCEDJtFoLzHPrBc+jC55fbGusao0lCrTW79ztTEoaIEbQWZw7QMuSyzyIZXm/1+EQdSRNKfHExmkgmkLzUduZMO4AYYKQy55QffPbUS0UCAQGgHd78PRWB6Y8bas51sKzz0AlWm5GhRpRK585xW3gNs1IsQeud2W6zoOIIACDN8bZ9x/adOd01MuqY9AhZXxVgLIuh6NjlpmFSf8C722debR6UyOhA64X3PwmX5jyWq8eqtbQbALjzsdA2YIMb4/c5i3Sh7zo5wJGe0/9yvjsRyHnpJ89kCRSEUnDwwnufXhlus77y5mtFLHEPng+LQJqqef0fvyAqcw8//sMKG7fKBGAlEZm52fofv3xbOvXsc9XH99pWeyRp+Ny58y3v9nj/5vWXc0iQRoceuWMFO7gfWONgezwUSiQkxAlaFQUhBDgVDUdi8RSh0wv3spECAACQAqSj6kevHtRMTl85+37LTPzLKXIiONre+unH74WffP65Qweyv2ItlKW5hZhC2MrKsklAp01jR323Axtu6YcowODrX3fihL/1bMPVzqYpoOVpAmKsYBnTgjO38MjRIx7VPe2VLkMKzYxOLCQpyuTcZeFuWX9ZDM8v+KeH46asLItORd3pDnBifmwumFhiXYWOdVYid+i7TXjk/cNy+K9oaio4Pj7Y393vn09iBAGGtNrocGX68nw27UM7xLsJ7NB3+/BNYPAWVsgfZex43+3Dhr8peognSW+b4G8Hh78JI8QOthUrc7hvBX931Hdb8Q05of+t0eAd9X04eCh/NrkjgW+FBu+o73ZjM382ebj4FvzlZIe+32l80+mb3jxgRZYVRVk+ywsJkkDoXjdj7gVYkWUZQwI9uDQwUOSUDBBBILThFacNj8sP1EJgRZYUDCEi7vg0SVFWtjPSHn99FICxIkt3tkW6D+WBOH2j7oP/+c/fvfnWHz+s+aI94bKbNeY1D8/fZ+CkGBmt+80v/9cvKLzJrXsQaeDYfOL62z9/88YSrzPZN//HhkdnJRhLONL8x9++f3k4Ltm9X/lrx/34RHnbgSP+xesf/O0/NMkeu96sXX6DNOqLE4OXr3ZM+tVFJ3+c52AhbbPb+K2dKt5MlsmZgebW7vF4anfVUyUW9rbmQQJRGntOoWwzmdVr/xfjLlACHZ8Nxriku6LasUmzRDKkKTOvkHUZ1ek++1wLG1PXL+9SoouT/Z2XLjb0zUUBb/CVlu7beyDPspXQXwFEkDY7snfrBIv5bsVtI4OV2c7rrY0ft0ZMx/78xWKNWQ1Dg00dDRfPDusOvvqnFU7exKwTSZ7t7Btf7EzmvlBp+fKIqZKS4ov+qXgokbp9yPv/ATXRTCsEvgIEAAAAAElFTkSuQmCC;" parent="1" vertex="1">
                    <mxGeometry x="198" y="503.5" width="234" height="33" as="geometry"/>
                </mxCell>
                <mxCell id="75" value="" style="shape=image;verticalLabelPosition=bottom;labelBackgroundColor=default;verticalAlign=top;aspect=fixed;imageAspect=0;image=data:image/png,iVBORw0KGgoAAAANSUhEUgAAAJgAAAAdCAIAAADZ3TIdAAAACXBIWXMAAA7EAAAOxAGVKw4bAAAKjUlEQVRoge2aaWxcVxXHz71vmTdvVo89iz3el3jL5mxOYjtOmtZdUAOFUkpViJBa1AIFKlUIURUQQoDEJ6QCokKA2qLSFqGWpHWgZHEcp9ns1EljN44dO54Zz+6xZ5+3XT54iZ1kZmzHJk7E/+Obueeee373nHvffRdFo0m440L/43a3EEYz5sgc02T5Olhh4TvtAAAsPV7LGOfrpubOjmWcKSus1QES7vzcJ2SOD3chy1UDchUo7Vy6G1iuJpC3l5S3n9LzkvIGrXqWqwnkUpUh/kswdZfqXgA5q2VNypuMoVWdl6sM5OJRkJkIL1ecZ1xIY2y1slxlIJek5a2HJKu5VcnyXgC57LobWdIL+A9RZFlRFIUAACCKpjDGd3AkRJFlmSAKz3GDLGtsCQE0zxwBRRZlwBSFMVp9EAEWBFLw9B05dOTY2bOOmKzSlzzw7NN7Kuts/J0ZD0kJUceR3756qeyJbY0NzaXqFXJjLksSDyT73v35P7iGfbtbtpVbp6oYmn+YB3d4y5sVJEkOnTzd63Jr1j309Vo7h1hbgU3LrqBHBACACN7Bs919joS4pvlzDRZuNg8QhRldQfVa2ZZn1tCLoagEe48OxdWp4u0t9uwLyrykpFV0XnntWq4oV6O+5aHP8hYEJRZyXbnYebxrwB8Drali06bNGxprLZnnbHaQ8bEhZ4ymSjfs3rPDTsuigilqRSsrARJ19HSevTA2xpRt0DLzo05RrLGkca+FM2u09PxmGYNJ4p6Bi59FTFTOtgXuDGZZIlpNWTbuaqG0OfpMhWh5UpPEPQOXz3X9qzekL7RbITo53NMjiZRhb4tdlaFZWpByKhILuka8kbE+pzvEMxrHlR7GSaktFVVWvYqnpFQ0NO5xOwMRQUaYM+RYLDZrnlGFAACkca8rPBGRdRYccvqjKVlhjLk2q91u0mSbAkSRRN+npzovDLM1VTt3tFabZtKfSNFgyD827I2lBIkv0BSxah1LTf8WdV4dSyYFiWOEyYggyzJS51lsFkueViWnEoFrDq/jzKWrl+Mhne7sqUkKkM5WUWw2ajRUek8IIIiHAwH3iHtcEATKUsJxvEZ1izpwwxOkyKmo70q/Mywl5bnPeXNZab7ZaGDSR4EkAoOX+i8MjZn3fe3ppiI0ev69t4+P9Hb0rm+0FzJTXSnxSNDvHAkI+TUVFrWWxZAeJBHDPs/59nc7RlxXr4xMYjQ6Gh4wMqr85meef6CaVeGg98q5jvbDHX3usIiZnNLqLU279jbvLNMzCCA5cObDc2f7IlUPmYY/6r4WSgnatVvvv++xfFOGwE1HT4z5Th88FbCUNa/btS5vThEnqcDQwPEDfzk86BoZM3/+la8+2vLgGmoqJIqr4/13hocDQolNGnVHhFg0pane2tb2wK71pWgy0HvoYFffufPDgZRK5XBd4Wmgy9ue/UrLukwgAYAoE97Bj9tfb+/2uobElv0vPrFvd01+1nJERCHu6X3vjwcGIp74nJN4qrh5/9MPNhkNTPq2StDt9nnDmrq27aU6hqMr1taXDgWvdnw6GH64MAcBBQDy+FjfkXdfO+bb99MX77drclmUHiTi8soq2p5/+T7JfejXr32iU63Z/Z3H6niEaVZFYznYfeLk4a4Polte+OXDa3RC+PzBQydOv/2mZP3hvgoGGAAiOB3X/GN9X3juB0+W6TAWZcywfBaKAEQQU94znZ9RRTtLK0rN8/6P+eItjU/W1D14tf0XP7nA3xSBwBVvvKpw4zd+9j0zKzoP/+7VMxfOdeSWVm43F+197oWWy+2v/vVissi+b/+T1RQAplmWzrawEGSr2PrF56oaE5/86btvqheyxQcAQCrOWLH3pd+0ykSZV2anOs04EeRQOCrFBX2VlZ3alGuNBi2LJaffK4OeAgoBYE5jspfXVZvyeZ6ZXubS+4YwxXAUI3MsTdEMzXJqnp+OnuIbHXE4g3zNnj11VoOBJfqGTbWukKurp3PwEXslzQAAsAZLcVnzjjV5ei0z/WqWfWVVEnJ8ZNDBGxtMeSb1DdwRpmiWU6vVLIVuXqUJttpLKjY22A08g0lxWaHu/GhifDyiIBPNqFRYxdIURTOsWs3zCyUCgBGFVWoV4uhFvXcgRDEcP514i1kyiSTKIsjAsDO1CDEUjRBOJZMElGmnjObybW376xS9abbELXxIc6RMTk4mYim1rcisZTBGoNJbTEa1jgw7fKJURgEAIFat1eUXmTQMwghggVFQRCU1EUryeRqOv5FjFiFGr9MbrSYWT/XOMRgpkiguenTzRcgSNqSiEAv0/fuf3WOJUGrKCgAgwLl1rbvW1xQVpt+AIowRBgyKosw8UggBIJii0IwniFZpjBaNcW7DJYEEuOVVCAJArh+K0BRmVBkWg3QiSwodAGCapujZPS5CU7aW4eVuSTYIkac096GsEJIlQWmtmqNUVCIcVgihAIiQSCYlBXR6PYIMbwtLAokNBqNaw/k9o4FolVXPEDnsGw8lwpBbamFpCkDObiONZQZzBoMqlowl4wkZjIt2L/1IKYyBKKKQEhWg8c2nN+mV6TvlrcWwmoKGx7/VkNZi+qY4x2TiDbzfMeyLVebTSszv9o8niDbflodhpkYRoiiypABNUzMVf0lnrdhaUl5clJfs7zh60RuZiI47P+m5NBQKWjY0VdJchr11dsscxZdU2GOhQCgYTM7fKRBFlkQhJQiCpBBZlmQxlRJEUVLSGZsnpNFosJyYcDu8kWQqmUiJspJ1vhFFlkUhlRKToqIo8nT/oiTfZp5niBA22YsL7XnS5eNH+wPhgLev58KIK8pVr6/UohlaREzFJwJuTzBOZke/tNJK5dQ07QCV1H74jZcPTgqYMdgrG5q/vKd5DQu3wxEQS6vyG5uquk4PDg+X+GvqrbMOyq7+zuMfvX+yPxH3DwYnR964eu6D9uKqos2PvPho5dz5eOuTAWyu37HdHT764Zs/euYtLW+of/SbX2qqL8zPVPyVyMCxk52dB7vHpLDzqoua+PPlUwcKSiobWp96rCkXM7fzxSHtLT2sr9yyWZCD7x36w0sHEoTTlW5ubG19eKN+tjcSHxnoOvrW34bs3/7x47UamwYBAMp2HZIkPZ8NhRhKb660G65jJ1IqFhp3Oa/5IkkZUWqDyWrNt5lNHAYAkMbd1wLjMdq0pszGLe6UmSiC4P7476//Z1hdX3tf2771JmZq2CQ24fWNjXonZSKmkgpmKZpi1HpNnr2+yIAijsFrcYk32susegQISNTV74iySGerLtBOOSBFfX6P2+EJxxSKZnKKq4vNRg2fCQYRJz1+r2c0mCSymJSAYWma5nhDbn5ZsVl1i53zUnQzSyImI+N+56gjEBcIw+XYbDZLgVnLznQnez4+efjY7w/RT/3qhSYLl8MALADk/14ElPBwV/uJXp9PXblp986d5UYWLXhBm9FKHCJev/u6vFpcoSbR/vYTXT3v+Jtf+X6znaOnAC9517pyQoANpVtbRei+5IiPhwVluQ+ll6xV4obCGHMKq5tr6wtYajZNV2FGpte9nZRosak5T/+/IbA4rdQ3x9ujCPc2yJUI+uLfKRes27tD9l9Y9nGRsyI8DgAAAABJRU5ErkJggg==;" parent="1" vertex="1">
                    <mxGeometry x="198" y="530" width="152" height="29" as="geometry"/>
                </mxCell>
                <mxCell id="76" value="b1" style="text;html=1;strokeColor=none;fillColor=none;align=center;verticalAlign=middle;whiteSpace=wrap;rounded=0;strokeWidth=3;" parent="1" vertex="1">
                    <mxGeometry x="480" y="480" width="60" height="30" as="geometry"/>
                </mxCell>
                <mxCell id="87" style="edgeStyle=none;html=1;exitX=0.75;exitY=1;exitDx=0;exitDy=0;entryX=0.25;entryY=0;entryDx=0;entryDy=0;" parent="1" source="77" target="82" edge="1">
                    <mxGeometry relative="1" as="geometry"/>
                </mxCell>
                <mxCell id="98" style="edgeStyle=none;html=1;exitX=0.25;exitY=1;exitDx=0;exitDy=0;" parent="1" source="77" target="96" edge="1">
                    <mxGeometry relative="1" as="geometry"/>
                </mxCell>
                <mxCell id="77" value="" style="rounded=1;whiteSpace=wrap;html=1;strokeWidth=3;" parent="1" vertex="1">
                    <mxGeometry x="150" y="670" width="350" height="70" as="geometry"/>
                </mxCell>
                <mxCell id="78" value="" style="shape=image;verticalLabelPosition=bottom;labelBackgroundColor=default;verticalAlign=top;aspect=fixed;imageAspect=0;image=data:image/png,iVBORw0KGgoAAAANSUhEUgAAAOUAAAAaCAIAAADHbwyNAAAACXBIWXMAAA7EAAAOxAGVKw4bAAARZklEQVR4nO1baXBUV3a+9+29qbfXu/YNSSAkYXYwMosxgxcw9tiZeBkv8cT2xKlJxUmVazyV/JhMaiqZpGpSqfLE8diTicvO2MUYMgYTY4NBaAEktLFILanVm7rV+9791psfEoPAaAELgiZ8P/pPv3feOfd872z3PpjPFcDiAS2irLu4DIQWaWGXvnuwxRUHAYCLK/EuAIDw7qpOY5H5OoW7rL1DsfS9ckv4OoWlvzh3EBYtxC5xr9xCvt7F4uIuZcGt4yv6Qyju7zjcpezd+LrE8P+cssQ8/yNZEmUEIYbj2JK0ECFZEiWA4TiGwZu0AMmyJEkyQgAAiGE4TmAQACRLkizLMgIAYDhJYLeri4cQgOtMuBCSRFFGCAEAMRwn8HljEVx6SXBOviIRZc7u/0V7zLJy5a5tG0xLLxijTCB+8ciP3y1se+WRtcsd5puwQM7lYyMnPvjw88FgIAvUVWtatj36UqsFR7Hzhz7+sq2n249k5bJ9P3ql1ao0kotvwnXxNcoiIRPxHX/7P094nN60pmHbxr3PPtV4u7S5jZiTrxCDlMlRU6vTmk2KWxs75NBAf3fHwe4Mu/WFx5s1JhVMjZ7uO3XiiEu34envrC9Ws/Q8CkihgWFvfICre2yjGb8iVxDz8cBEPlUQpJtSTEqF4v3HftuL1Wx5+F6HTq816WwaDEAA1I6m1h06ne7M4OfHoxkBSQjdpiwrpuJ+Z9eRjkDVA5ubSsqMDAEgzmjYpgcfNrnbD3zqysUThYVFzil9FyHKSinv4NDZji+p3c/ea7UWUXMuhFwIOYcH+870j4xHChKhsdZvWL+mYUWFQTmtTzbYd+LcGJcsath+X62RuFK2zl0PQEBZa9coJVKpukG+Xr4aAZlLTIbzuJLSGQyzW4Hyk6GxvraOuFb7wP21VaxSTvjHz7d3dPps7IOPNdvmfSDKBkdHL/p7qdJ9ACwecZCYT8V9YyNg+UMt6+9tMGsgkAAGAQCQNpTW6Q0yn4x0nfDfbKlxExrlY54LfR2d7ZPKhhUUQ0yXaRjBaEqamh36eE9XYvIGZX7zwkAIT7oudZ0aSewg5fnXQsqEvIHJaBxoLXY9KIS93cc7MUio1q2yTBESJ1VqLOfyj8cOMao962xFJDZF2dn4Kgu5ZMwz6k3yeZ4sshXbi4rU+I34BEkil0lGJgOBCa8/SxfXlCsNBmquOzCaxpVKYcyV4YoFORdP5yJJ2lgEp+owMRuNR0MTk8k0JyGAkSqDyWqxmnUqTJLTk55A2Nl9vm84NKEt6eqcxCCmsVZYTEZ2SjSUsqExZ39kPMtLGEVrbeXlZp2CJOcyCPHJYDgc8TjPj4yEOSkdGBnszxu1erO52GFVzm28jKRCfMIbCCeTeRHhjEJrcpTaDQqcxABAolBIxyd8vkgmLyBIa7RGk81h0dMQAoAygWAsH8hR5ZqML5jK8TJUskaLtcKqxgEAAIlJz0h/b8dAktn2+LYWq5EhsAWQDUkcn4n5PL5oRuBlnNYYjRZriVlNQMSHxvwpMcVjaimTKEiiiCitxWxmrUblfM3NFfFc1OX1BkbE6odWW4sU8xIWAaKIrWjZtKa6sVhNJHt/889vn3cWX6huarGoIQAAMsaa1av4TOHY6U8/O1lV8XCTWakhIZidr0Iu4R08/N4ng4FhF1W7+4m9z+7Zbl4YX5EkcIVCNhELui51d57sGs1ZV69ll9XN29oxKkxLWgOj0cLabD6cyPNx2VSsRTgEACAu4rzY9uWBr4Y8cU5GgDTUtdy3ffeujSuKRHGyt+2z0+1dvePhbEYRe9vJAEhWb39m+xYDqwEAyBCkvN1Hx04k/J54DqkYx5onX3x0XSVrZuaqZ3O+/p5TXUe7R4O+QC7XfuTjgTalsbR585Z9dqtyTqaLeS7mPHP4dyd6x1zRgkQb2IqVrY/saa0zmlQE4JMxd99XBw6duBgM5xGusZc3rt+ya3trtZbBoTRxpv3Epf0j+heaol90jE0keKxk/drWB56b5quUHD47ODTp1qz9q63FegLgEKAFsJVPBXz9Jz4+ePJSMJuRKLWjvnHDtse+tcqhBIm+AwfOxgYSmhVU2JXgsqkcYV+zYdvWB1uXmRdYACM+Nuz0BlL88vvWGaFqfppQbN3a6VACZEDVllkULp7P5TkE1JfvVphqmpbHY4NvHT7cu9G2gVIbSDg7X+ki6/LWV/5+Y/rUu393LH4jbQriIu6etq+OnT7r5tUrWne++tTKYp1eRRMEnDvtIEJJMkUVufFQlk8Gg2lRSJtstZwfBwAASKut5au+9UjjMw3lBip34eh773cOdByx1jVsM5FV9z/x8pZVFe8cPecfqXz+x4+V4QDgBEUQGMgAIAtyou9S9qm9j7T+oI7MjnV++I9vHWprZlVqU9kcvIPauu27qrds2tZ78cgv3xze8fJLm1dXGmicIMm5l0MuxHzD+3/+Hxeadux7/aVmiyIy0H/0wL/+XFL+9d6NdWY4dq7n8IFfeZtfe/0vm+04N3z8q2Pdv/6FYP7bx+rUJAWAHHOFnOOHap578Y2X7RqIJAzDaWZadsx5cWwyR5RtWl1OgqkyfZZxwQxIYe9g+4H3j4+ve/XPf1BRSnj7Pj/yxfH/ekdb8Rf3agGQc15PCm8xPvXG96oVKHLyo38/NtbV1VFTs6dsYY7nxy8OBQMJzdoH69U3OiRBIii4fJMAs+osFs1Vz6PMJnvVhkbpZ219gTp1scFAz1G/QgwnaAUh0eQNDLIkgNJ9+/9tf2coYVq5+enNG6rNBr1WTeOXq6y5KyUFRWtqS/vckXxgMsRLksJhV475p+7EtTaL0qQDlIohMWXdskrWOSwmExkATBAjKRrSJEESOEEplEolPrORgAQgKpvXNzbU2406qLBVr6mhLsRi2VwBgbniJMQJEscZhqEJHOIUzTBKpWLOimbqkal00t3ZHrVt21RfW243MLiypmHzmvovPrs01lpuBrjfOzSO6rY/0FDCshoM1TfWh8ODH3S2OR+y1xMsAABqtQZb684GB6ssIiGSZ1TjvH8yJPCyrbpMO9Nzc1NWjrgD7okLQt3uHctKLSo9xtRUDXlcnk/ODqXWtpAAQF2Jla1fX6VTKXFgqbIbj08kE6GYCMrmNxcAlBnqcSawnHX5hrK526yvQxRy4eEDH/fC2pra+lX2a+I5oVRryyrs6LeuUGZVGgEazjt/vTFgANLm2pbG1JAzEvX2n0G5+qaVdeWsSk1dqWmuoewMC3GKVlVWKs+FY+54BKows0OPjU39hYRMOOBynh8NRvIyhqHYeY+HcxQJ4vx9AsQAZbZZdIYimsBkglTpNaQkiJIk35LhIyrwhaR/kjBYzXoNQ2EYUKjVJpudCgfjuVQOJzPZRIqxlVs0DEFgEGj0er3WiE36QjxXpQQAQELFaM2lVjVDAAgAnBEuEJdMF6CEK3Xaax03B2WlbDIT8bqD2Y6P3h0lIQVBPuzyT2TzhnhOktUIQGWRWsdalTgEAJBKhsZwKHKCvABrZSDHhs45E9BubWgoubGmXCzEvO4z/7O/l7avXtPSWGZhrr0dpyiVVkunEhlB4BEAi81XCIDC3rJ1q7G4+OLQpfFQaGzgdMznspRV1pSV2o1FxJXrpnD1ti0kaNpaXVLodbkCGXu9xWGnpw/nCmF3/+mzvaMuZDBrSQIBcXqAf62DrucwCAmaJnHicrKB2JRnZ16LZBlACOAi9vnocmGJpn+ntYVXv7Jo5mIAAADAcYykaQxcRxeE5oijs+mOAEIAIAhxJMkSlCCg9CXlpoZam6OIxgEEACMwkrwcG29kCWRRDA+cGxOxUntDneVG6Crlox5XX9exLr9QuWXD2ro6+ywzMAhmrN0i8xUAAACuYiua2fKGlkTQ0995vO3M6ZHJJGDUrKGIuFaja8Z/GEExFZXKo+d9QULbYKgxYKNTFxTGL3Sf6x5hyp559Lvr9RgX6//YlRuC2RmiMAwDCAmFgoAABtFVdRSEAMxaVyFZFBO+8WAeqVmjiTV+w0kzVFCMrtgmDQXDiRTLFylwLpMJBfyc0aBTapRFpFqtLyq4xyfTlRYNiaFsLB5LRiSTg6XpOQcWAABIa1UMwtO5ZEoE1usk6+vu1hIqndpUWubAt/zR8+vMaj0JgSSIkixhtIJEoZs3FclCNtp7akRyVNkr6i3zaX8FMp8MuPs62ruGLhKrnt2zoc7AKIEsyxBevQcp8Xw2meLUNhVJ0gCAWc8PIBlJIs9xHCeKsixLoihwHMcLEpq/G50CpBh9aW3rt7/3xpuvPb5ubZkam/1G+PsjsySJW6vtyeGIjGUU7JV6BomSDAFOMgwUC4WUr7t/yDsSFGbGZkahIJGY9LmD2UKuUCgIoriQhAaQzKXi7W/9w49++JNfHzvpExZmHgCyJAg8xwuCKCEkiTwvcDwvShLQaLTlGzebgj1t54fdE8lE1Ddy/mTXgGpNbYXBZrBYi0uXVeJDR48M+iLRVDx4YeDCgMfDrtlYQ2vmfVVom4XFKRAbd6eu3v5ACEkCx3EcL0oykqQpf/GiLCOEsWW2ElsD6j34ad+wLxpPJuMhr989NhIW5sn5c6uDeD4fPnN8EC+tLK0qnbFJMx9QPtjzu8++6OlMV+59cmMJliskY7FEOp3nrzZKymdTXtcEKqswq5mpXuz68RWlXK7er975qCchxT3OKO909TvbDrPmqt3ff6JZY1EvXDUIMIatbtBDDC5ofEsBoqLMStuNFj1rUkPftBRVffNqdzR27POffP8ordKXNDUbbTV6G3flRpytv6cxErt08L3XX3yfURlW7H7q/s333DPPoBQAACCEkKQpisZIglqgZUiSRg598Gn32WFPNBrzhfITP32zjaGqNu7ZvGXzvXZH9SN/9l3w3yc++dkP3ymIlM5Ytvw7r+1ZV87qcQyWN7fswl7gDx3+p+O/ysq42lq6fO3Tf7pjuZpQYGCeVwxjq+srLky6zpzt8WzdWYyD6ZgmxpL+ng//5dPhQsbn8SU5End5h1ilpuXJZ+9fVm9jSxs37XsOHjz0m1/+TSReAJjS4Fi2atOjVdXm+cLP7A0yKsTyno4v3VUN24urHDdUC4z0dJ7vPtV7Segd691PYxAAgGmb1u3c9dwzG0t/H0L5UNg/2t6PGr+90qLXTGUTeN3vtxCfysQmneNRHkk8J8oYjpMkRTFFxfXlBlKx8MC/YKBcKBRL+3JFTTW6mLMvKLMa1mgmc8HRAKxssKpxkAqGAwFvNCcAgtaYLBpRxBiRMtUXT0/skJBJRSe9nkA4h3CC1pdU2sxGlsxzCX+fU7ItK2H1KgVEEpdNufudckWZzWDW0hAAJPF8ZOSiO4P0xXa71aK6KudI+UQq6BpMW+orWYOauvwfQknfmD8aSeYESRJ4GWdoAsPU5lKL2WJRIyRxcf+4fzKeyIkyoVDqTMWlxawKJzEIkCQW0jG/2xNKZwUZUhqtyWp3WFgGgxCgdGAilJrIa5Ytt6vh19MfEqIXzx47/sWZKLXzT57faDIqCAwAgDg+G3Nd9KYkqcDzEoKQoEicIIzlVXatTkkCieOzMb/bF0rm8gKAJKPSsdaScpsGE8Mj7gQQFaa6Uh0OAED5sGssxtOEuaLKMOP1/TprpTyfCgwOcWx1CWtQKxc+9JRjvkvjvmA8PePthJTBZHdUVZkvD2ALkQsnOo51HPRW/PGr+1bZVFoSgtn4eidgqZ0cul2Qc5HRc73tXcd92pb7d66vt1g1s2aFRftQcVrcIsqaG1x8tLu7q78/gGvveWDvBoeOxqdsvAX91iJhCR52uy3AlGz5ilUEKRzpDGW5gjDXVG7+rYQbwm1zCZL4dFKgzdbGhu2bSvXklTxz58bX3+Mua78hlmyUvQ6WwJHWJXlM/E7CIn8O/n/qjyXAV3D3A/FvjD8Yyv4vhMz2+J6wOLkAAAAASUVORK5CYII=;" parent="1" vertex="1">
                    <mxGeometry x="210.5" y="692" width="229" height="26" as="geometry"/>
                </mxCell>
                <mxCell id="80" value="&lt;font color=&quot;#ff3333&quot;&gt;false&lt;/font&gt;" style="text;html=1;strokeColor=none;fillColor=none;align=center;verticalAlign=middle;whiteSpace=wrap;rounded=0;strokeWidth=4;fontColor=#FFFFFF;" parent="1" vertex="1">
                    <mxGeometry x="170" y="770" width="60" height="30" as="geometry"/>
                </mxCell>
                <mxCell id="81" value="&lt;font color=&quot;#66ff66&quot;&gt;true&lt;/font&gt;" style="text;html=1;strokeColor=none;fillColor=none;align=center;verticalAlign=middle;whiteSpace=wrap;rounded=0;strokeWidth=4;fontColor=#FF3333;" parent="1" vertex="1">
                    <mxGeometry x="450" y="770" width="60" height="30" as="geometry"/>
                </mxCell>
                <mxCell id="92" style="edgeStyle=none;html=1;exitX=0.75;exitY=1;exitDx=0;exitDy=0;" parent="1" target="90" edge="1">
                    <mxGeometry relative="1" as="geometry">
                        <mxPoint x="440.53" y="920" as="sourcePoint"/>
                    </mxGeometry>
                </mxCell>
                <mxCell id="123" style="edgeStyle=none;html=1;exitX=0.75;exitY=1;exitDx=0;exitDy=0;entryX=0.25;entryY=0;entryDx=0;entryDy=0;" parent="1" source="82" target="121" edge="1">
                    <mxGeometry relative="1" as="geometry"/>
                </mxCell>
                <mxCell id="82" value="" style="rounded=1;whiteSpace=wrap;html=1;strokeWidth=3;" parent="1" vertex="1">
                    <mxGeometry x="360" y="850" width="480" height="70" as="geometry"/>
                </mxCell>
                <mxCell id="84" value="&lt;font color=&quot;#ff3333&quot;&gt;false&lt;/font&gt;" style="text;html=1;strokeColor=none;fillColor=none;align=center;verticalAlign=middle;whiteSpace=wrap;rounded=0;strokeWidth=4;fontColor=#FFFFFF;" parent="1" vertex="1">
                    <mxGeometry x="730" y="940" width="60" height="30" as="geometry"/>
                </mxCell>
                <mxCell id="85" value="&lt;font color=&quot;#66ff66&quot;&gt;true&lt;/font&gt;" style="text;html=1;strokeColor=none;fillColor=none;align=center;verticalAlign=middle;whiteSpace=wrap;rounded=0;strokeWidth=4;fontColor=#FF3333;" parent="1" vertex="1">
                    <mxGeometry x="379.5" y="950" width="60" height="30" as="geometry"/>
                </mxCell>
                <mxCell id="86" value="" style="shape=image;verticalLabelPosition=bottom;labelBackgroundColor=default;verticalAlign=top;aspect=fixed;imageAspect=0;image=data:image/png,iVBORw0KGgoAAAANSUhEUgAAAcIAAAAiCAIAAABDSU4kAAAACXBIWXMAAA7EAAAOxAGVKw4bAAAgAElEQVR4nO2dZ3Sc15nf7317m95ngAEGvQMkAPYiihSbrC7Zki2XdVvb65w4m2PHJ47lrJ2cjY9PnD1xNmtnbWfXVbLsSFalKDaJvQAgAZAgCtHbVJTpb7k3HwASIIkyFAGSJvH7NmfmvfW5//vc5977DkwmU2ARMECTPcffPXYhEOALVm/dsCHPyEAAF3vsLxd8iz+Ptb177HjjH4KbvvuNTR6OYu7jprkNML7Vhl0graVKaC5QInSl6fyJ00cGDase2bmu1OHUMeRyZng3SI9daWg43dw8Qhpqdz253mNkyZk6IjV04If/1Oi0VG16fnexmbiL5QQAYDUeCnc3HNh3sk9Xv2ZTbV2Jy0jdwvNasOX8qeOvHhwylBQU1+5YU+jIuqXnMyCT5CAgDLn1WxXQcHEgEYnKCAIM7mcZhbc4ThFtNGUVbyotdzPkiobOB4QALJWSTjXyMokpIVhzK1ZTtPLeqUA8nVLQsor23QFrcnRCYe3OyrLtG70mGsyWSgyBxmeVri515LlNd1lDAQAAq+l0MhFmKjZuW1uea71VDSTNPl+Vsjt68nRXnz+SiMtoyUsIM/BG5+E+NK7rmF2/ZR22DxRL6ZNOp7i0ya2wwi1zG87tNbfrPrXj2fW7T6t4F1hKn3SFFe4NlsJlh/f1Cv/+r9+dBt7XgfUVHkCWLvJxv48MuKKnS8dSKulKl6xwt1nSAPKKzKyQMStKusJ9wzLsw93vNr3ili4VS6ykK12ywl2CWJZo/4Nh0A9GLZeXJY6TrnTJCncDYmXP9HZYGba3z4qSrvCXDoUxgGBR40OBs68d62cU56qnNmYx132lafLk4Kl9hxt7eiNpTcxyl214/tEyPQFJfOsH2e9BtMGWDxrbujXro09scRDUTVGQe/NIqTZy9mTjYOu4c8/z6z3k7ZxruxMs8Smoj2Z1WAZa976fH03m1RfWV1eY7nk9VkL+7pZDb5y8Eo1NclUbd6zbXJ9rvudLfcdB4+3Hzrf1X6DXfWlPPkfA5bhPQAGQ0ZUkCAEgIIbEjb9U43Kk9ci7Z69IHp3bZTPaTUaBBnBamhexZpweGxju7b4wLJSvr84ysHxGd+6U5Hio49glbuNat0HSLfctCxwN9nVebla9WzFyzPurjzhfIDXdd/xwYzBtKS6uLi+57soIVibD4ctnux1biu2Chb+5i5TUeGC4tbElnV9ekZNlE7nZT8MpNw8S1/l6mpIIB1pOXYjl5BTn+twG4ZZaD4VHOtubG0eUmj1bfJyeW8qmn0dJcXy40x8cCzrqa+1zzGHzJ/cR+kMDKNRzoXkCek1VS39NT5scCV1peuvsRM7mHZU5VocwO30cG2gbHUuO21fVOm8aYgAAnBrru9zTH/EzBevrvDoSkBAAgqZFs9PrUS4feq1dcpSXrrnXLxdqyWBPT3t7+6gm1uzZlEMJ9J0o7mztmpUfQko00HqyZcxmyc0tzrWIs61LS0SDgx1NbQF7bXWh3aFf5DYwBQDIwCGFBl99nYPUONMNfg1W4ulA26lWtfArO3ZtLi8RgaZB5lqBrjOVGxPV4iP9bQ2nznV1EeVZtciFM7MCFI8Guz74/YGc0gq9XtIt/sAd4tbdUoTU+Oi5d957vTvg27vLkFNk0s/qSjUxNth24PVzG1bZ9PxNMorkidGhS2cOHLkQzjZ5Cj3u678mjHlFNS57mrPCWduIGCE1nQj3XGzqHYynFbKs3CXRt1DeiZHO04debYhJ21d7WD13C1XNhDmUFMuRruaWi71962prbMSt+dT31kpIS4R6Og6/+vs3xorpQr1eZxe4mR7F6VB744We8dDa6lrnzXMFSvgvt5w9db4fkcWu2mtNRBrMWdUPPZmXPtF/eoy/By5tLgAGWB4b7GhvaTx19GTrsGaStq9ykXdERgnBWVwqeu3QxkA4Kz+MkZKMDHQ0tuNATKFWrfbqZ8YC1pTkWLC3+URLVEGb60o8Lh21QFmnLXNeAUMqkuORiaSikSTDi9wsUdZSyUQyGhqN9AciQKRwIhUNhtIcI+oZZs60rgfL492nTp1qO58ofOZru6uMxDXxxUhVk5MTsbSiYYQhJCmak4x6jiKQkkgkJvuG+i5fHErwIwE/iwDN0JxgNPAUAAAlY5OyomGKA+loUsEAQ5aXBJ3ELTYCMUaakohGEylZQRqAkKQo3mDRMdR0kRQlMRYaVQDGgKRoTpAkkacgAEhJxhLxZFLRNAQAhBSnk0SeY0kCAICRHA3FMA8xItRUUkEIA1oy6QWWpSDAqiaHWy74KRHKyfG+zsFETZkEAQBAS8eT8dDQQE9LR2C8cDTgR1KaohheMuqmh4uWCHU2nvvwzDHw8Lc+Vltg5q/KLAY4HY1MJmRVBbRBx103i0Ka1bsL93x2z/iPX206fQQLzt3lTjZjU4YkSdIcS6osS1wzSKSoqWh4IqVef/UcsgajnhcWmcUxUlLJeDyWlFWEASRIimcFQRIZEmA1MRmL+6/09XX0BOSC0ZERkqVoTpIEgWOhhlEyElJonsBISacUFQNICHqzxNGzXrExt5JiTUmlE/FoQlY1jCEkGYEXRQM/PQSQkkpMhPxYVRGAJCvodAJPMwTASJXjk9GEfNUsaZqXjDqWIiAEAMnJVCIaJXSClkjLsoIAJBhWbzJwBAEBQPGxYLC9M+IplAY7+/zVWWm3k4MAYKQkJmPx0c6e/q7eFMwfHRkhIaR5nU4QWAYCABBQx3uO7TvezuLCbV/YXWrPcDLBmpxKJGLxpIIQhiTDC5IgcAwFEcDp8UAc0RADrMoqBhgDRtDrBY6ml0uMEUDR/pPvHmqJ9YVJs/7OvKYAYyU+MZlIpTWNFCzcDTpIkqzF9/DHH4n/n9ebz+xXRc+ztR7uqllTOrO3Yuuz1MR//8eTJ3QEK26vsC4wU12V0XkcUpwKxdrf/oefHr7UPzrp3rZ577P/8ZniKc1GodaGD4689l5Tv9/fF0CBf2rbz3MWX92qvX/19Ycsc0j3DTat9DccbuydtBXs2rHGRMz6vSbH/INHf/t//9xwcSgaVWneVpi//ol/89m1WUKs78z+I/sPHLk42BVNdv3we2+wJGMoLVu38yuf3+QiAYw3vf/b1q5AyreObHjlSMeYohrrHnpq7zOPrfYuEi7Q1GTgyqFX/vTeuYYrwYhMcs6igh2f/9bTxVkSAAAoE0P9x3/598dP94UTsj6/cuueJ5/eudFFAZwYOPPG+weOHmkdDsY1TJnyNj737BPrN5Y7RIiRkrjyp//yuraOU+JC/+kDbeGYxlV84pvPbytf7WGhFlMnWs5dsfu2mbggTnV29Shl5QwgAAq3HTl6+P23Tl3p6Q2po98/z5MM7cyvf+iJLz+90QAJANBYa8v5y6f6rXv/wzafgZ5xVXEKqJfe+cmvDjd3XVE8nlV7vvXSU4UUmOVykgAaSvd+rPx/v36x+eTh4oIXSjL2KiFNURzHMRpHXovu4OhwpOH33/zJidGYrM78EvJrv/bvX1i/tcy6YMOrE30NZw++/cr7rQOTCiJFU+HmbXt2PbezxAyUkZO/f+3IuWPn+/1jMr74785yAFL5G194es/O+nJmUgkf/el3Oz2b9en4YPOHrX1xhnJt/+u/fWxtgcN8Q3ADXG94ODXRf77h/bf+ePBCdyghUzpr5faH9zz2hR1ODgAAYHLozAevnPjjhUv9k4h11+755PO71hYXGlE6Onz5nV/94fCltuGJqMII9uKybc99+dnKLB3LQDTZ23B+3+9eNry4bfz9i5c6WkZTtLuy7vl/+9drDQaOwKnhQCDYOVa4+8s5B3/bE/AXBTVnNoU1JTF89F9fPXLhdMuAf1IjLrSd5AAgC7d97hO7tlYVCxBosjZ65N2j41rpli3bKjLVUACwEuxvOLL/zff2N49GMWcr37HnsZ2PrCtwswmUbvrNS/sSXiYBkyOXh6KymhJL93z6kztW+XyGZXqVFQEIXu/b+mS1GO5ubDtyvHN5srkOTUH9+3/3rwc/bOoOC/nOzZ//2VdreHJ2zAQCqC946JGqobdONB9+p6r8i5X8jL9KCpyx5NEX1lz6eVOr0ejN21IlzetwzHTLnA4p5Cxi4aNf+ubG7oO/eHuQVtUZe4TmkqqH3Z6StcG2/T/6VaL+s7vXVHg9gk4yGcj5sptl03L32YsBVnMU1JUartNcNTw+3PTKr67onv7yV/LsLjqVTKEo6bKxJE3os1dtf9zpKGw8/pN/HNr8tU/X5ljsDC9IRhsxlTZSYj2d7cmgc9veb/zdCzTGiDPYzLZF5lgsh3r7Tv/pH14LeTc8+1cfdzt5pGk4qcsy8zQBAMCxsYnxyKjzU19/yc0nR88eODfQ9OaBrKoXq0XISrb8mh3u/L0mGy+nh4/9v9c+bGg0Ge22tXYIAQBqcvjccc27duuuv/neZ1ioyKQlz2GmIQBqLDrR3HTFWlxTmuuhmy93dzX1KKVFNAGhqXD9VpvbWXz6rZ++nX7qb3eWW3INLCfpzdJUgBwFO9r6wik5f9MmJ83Nbm7IAqr44c9/Y3X7/neOD1+QtbneZgNJXUlliamv1d/ceOXx4nIh071ykqQ4nmc1bsYZhaLDtPrF7/79E7I228WAhM7htuoXbnic6r7U2NLQKdZ89Qdft1NEemJc0RlsVgMJCUTZa594Lr/c88b7Z1om2Y996ZkCkqV4vdVs5CBAGGBZHms6fq6yYvPWF7/9CT0FZFX0uI3SnFnOGB6OdR07duDUvjah/MVvfsolcVo8TVn0dsv0TIOCvQNs1sYtn/nOJ00ofOmdl4+faTBLuqwNHorWm7KrH/7UjkclgZcH+1sb33zv5QOVuXvLmCwRYKylJoNdx9/wPPrwpi889XGRIEiWtkgCAwHA6ZH+QCDs99XXV+WMv/n7saC/J1ia7aIImneu/fgni2uyXn23sRfr9nzm2UIKQs5gtxo5OLW27D95rF/ML8/xlZoWWlde37LJ/mNvHz43MuB+4hvP55nxWNvBd1tPfyhj9sWtZhZoaqLjYn916UO7v/y0k08Fu/f9+r2TjRZRcNW5uUzzuCUggLy7tByRKTh8p8IPBEV4tj79xapVp978sHX4vDqnCwwJqaAo39ET7G44dfkT5TU68toeFIQUK+Rvrnb+c7O/p6VrdWWNbr62mSWjczqkBE1KzpwCG2gzGsOUPDt/WtJbJR2rGaImjmEcWb6CkoKsTJoIAgDQWE9XEIs6mytXf9MEiBR5YjQWTqFyqyvHoKNQQqZEiiAA5A02jsxOjFo4Iur05RUWOl2znsYAAIRYndletKq6LFtPA6BpU9ssC4HTk+HBtnOtEc+TT9StqS+yGRmMFDmJeYEmIAIAQE6yZJWvXV2Zb+e1nHTnSKjrw97hMVzNQcrgKSp2kZCTdIysZSsX3v/l0OR4KIaBfXrsypTFlZ1fU1VWaGYIpKqYJAgCYCUxGW5r7OQKdtjdeZZkX3Ckr7l16JmCHJKEtGi28loq3GtkGNmdl1foLJq9+4RjgcHRiTRpLipwsPD65iMAlGxeySy7nBcjrYF5qkzq3NkOU3tvZ0+fH5V7M93Kp0mS43lW5eDMfifF0casQmNGz98AhEBLx+NjY8lJzJX7svUYIwgImgYAEgRndLl1abfNaNQBwVtcXELNRCimJgesic783JKqyhKLSGJN0Qh6QaGBAODYUPul7tEkVbx754Zar5GlUVrWICZYEkxZN2Hw5BVU1K6udEho0jLw/onjYX9oLAqyraxkLa6XWAPPs6xmNaDI+fdeGw7J8TQGIgAAA0gmGVdxSUl1hdvGExAhFVAUAQBOBvqG/eGUuaLaZbTVFBD7I4He/sgGl52CJGtyufVJl9VgimBjTnFJyewqqJoy2d02AEybrA6bKfMwttzX1tLnT1q9G9fVVdpFkLCEGq58MNp9uXt0szkHAACAwZ3vK6ksLzbTKau1z/DGBwF/eCIG3Esd8b4GwUoSwIiGAN+ZmDUkIGdxek1wyN7eO99IAIAQ7W67Xdc/1tE9gqpZAs5MJJAkRK/Pw10YiPQPhpUa3XzRyuuGD8JgEcVZGjAAaDwUSjNmh0F/o8dCiII5b8Pu1Q2xrksfhkJOp8vrK8jP1We4Cwk5vcXuK8oyTb34k8pEH1KJaGRgIG7dXleQZbeKNAQA0Cw79SUCADKi0e4oybPwFEVSBpPBKDFoOBnHAGNVSU0GR/yjY4kUQgQIBWPRhKzKyoylkBaP2+XKNbMkAJigpwukTETDvWcvjMYLWs8dGzWGu7uGw32pS8N7s70cuUi4EsfHJxIKkowWE/0R92ahaDJKFIH8YyEMsjJ9iKIojudYlZ2xE5yeTAU7jp4fiSvabG+UdFauLnJlzXXCYAbKml1UUhmU27pOHY5ctrmzvHkFuVm2qW1DuMhrbSEAOkeOx+2ySBQEAFJMBnM4jgX9kYQmeMqqimxTe7PUtDpNlR4KNk+2x+vQ0yRQebvDxAFNTssyRhil0/FQf1fneFLVcHJ80J/ESZxGmnY1cZKh3CWFbqNFoAgAAEnQ00002jcw2NneO6417XuTi4yEuyLdlGsoXGd3LBI61jR1MhBI8eV6SSdmvt7GiaFh/9hwUFE7Th8IEQAAbTg0MpLGQiSkghwAARRtHofDYeQgxARjNBtoVZEVRV5slKmTo+H+yyc6x6f7mrPaPL5VlR4x88O/t6qhOD4+OtDRdHkoPfUoITp83qLyUutSebWQ1+sknoXhYFADWdcJBgRQsJglsk+OjY8rAGQko2DKJ70jSqqqKiYIgiRvbAxClGwl2z/3ounEsbONl893tDRZC0rrtz++xWfhqFkz9Xy9QVMUw7MLZY0xAGD2pp2KkCorkBdYkpxzHqFICojCtZUsnEoGAIxig21nj55vHxxJAQghCWPd4Tij4FnzLaRYjmEY+uqTU99o8UBktPN8RAdHGs+HKRKl4jEAJi80R7Zb7QS7yA6mpqkawARFzRs+WRRIkgQEhKoqOLMjbwAASDG8zmix0CKYaSclnhptPXGkOZhUtFk/ZStMbqfZs7CMkpbcmo2SxWo8cfLM+eOXWg2WorXr1tVvrnZNrc2nGnz+FHiOo5iFfLSb+1pWVA1DnuPYuUch5BiWZqfnMQghMfWeRKzEE6GO0+8dbA0rSUyQhJocHxlKYPvsoAkkaFFgSOKGlNVIR79/rDeUJIij+/oAUHE8Mjw+1Nc5We1Y5K3ICABFVQBBUCRxK32tyIqaHvMHImdS4ekXiWuaZPdlGaedTcgyDEVfSxJCgHEmXqIWD/rbj7+zr3+qr6GhqKSeL6rwZBwXunVwYtLfdf7AvrNRrAEAAOWs3LLeVrp0MgoAQRIEIFRFnuvwMkmREACkatr8w+RuySjBCwLUVDmdViC4zh0AGBA00Pnq9uTX74oFLn1w5O0jv/15LLv6q2tZ6tqZaAgQQvjWVwcYKal0WpUxLUocOd33LM0IOglH/KFE2qDhqfOQGGFITCvn3BdtMFLVrnff3NebzN/8+Bd3bbJjrFx59aXBtgWdSQgABigZGPH3hkLlL7z0N+t9Ro7G4/2Nxw7+6ejpluia9SbTdKQfQgDmqibHcTSESjyR1MAtOCmz0ZJJWUMaz0sw8x6nBIvLW16eFmfOtEHJZar73H+u+0iFwBjTBnPe2p35a3Z9cqL74L/8+q1TByehs+yxVdMT4VT0AGOEbt2LQVo6HpcJkmY47qpiQEEUWQKkxiJjacQxEAKAMcZgVpQCzjVY0ORgsOnt//mn8J5vf/3pel+eMD7UcvQPff8cWHwsaxMd7cOKxbVz71eerTRAANDwyd+80hwfuNid2lgrTM8UEACAEbohlE1CKEgilNNJWZYRyMTfBgAAIBh1orNi/dbqTz+318MQEGM8PaMQMI7S89VycRhbUfHOr/xgowymJl+CYXjBQCzHuzmuQphdpQ899+26x9HUOCAoRuDFpbxQgtIpRdFUXtRBcHOEMZlIaUBgeH6BP7aYo/rLH7mAAJB2r0eXjEYDgRH1uu+wHEuE+i60+8NJRYGcaNCbrToOa+rVgkGKoQROB4YH+2OTMRVjjFHG5ydwqveD3/3y+9/+xvd/8+E4TkxPqYLR4q6ssAcPvfpBU2dXOJFKxybC/q7+SOq6herNqQEtlZQxRfOcxEMtOR44c7Cpd8yfWKQ4EMeCI6M9fbG8NevzHQ6HxWKx5uTm+Kry4MWzF8PxhAIAgAxFsToxMTIwOplIaVP1nHqeMDgcRo6UR/uHkh/xcKQWHvFHFI11ebLIm01nHtSxiUDXxYtdbf3JlLIE/8SAk/7A8GDX4FgcQUyKRrtZLzIU1mY2MiHHsSSJJ4f6gmmEEEYI48wy1jRl/PyvX/reN//ux68evxi/miI05Rbk2OjxjkNv7u+IRNLpVDzs9weGA1FtweSwpqmpVJoQdSLLUijh7+k5f/ZsAMkLPwYQQJH2toE0YfSVV+RYLRaLxWIrriixS8REx6We6e6DPM9CrEaHB0JpDDC+OnVCmqTNvlxDLBIIhcflhbOaBRSKy4s5Mt5+7P2GK2PptJxORIb7B0YGA7HbHNyQZBjRaLPZbTa73Wa3WYxGkVvmP6oiKUYwWGxTOdptVrNRFDI5UpkpaCwYDk4mSG9ODgWv10oEUGRgcFwjJavDtsCyZw5Rn7XXpMT8fW2H/nxsSA12XWgPk1p38Ef9LkJXvvepNfl2nXgbfitfWFto2N8Z6D7fU5dXKMzsbqF4PHjx+B9O/jGJVAghwARvrX5ia4WOmd6EZcwGd9nenWcP7fvZTw+LenthQWX9448UGzJalgKkJBKxiXEtpcw48CRnzc1/+LkX40cvH/3tzw5qCBCU3mWu2vMFi47l50+MIBjf+vrC/WcuvfWL/3rMpJMMjmybR89ZFlmT4/jg8Eiob8JRvcou8gxFQgAIvcWWW+wlXm7ojRR57DobJegtvnU7Vnec+d2vO/jX9O68ilWb964v4gAElL2wyNPZdKXjfGOkco2RuHqfCGuJsbELb/+5Megf7OzqiQykev7lR70m0lqz+5FVhW73tcOlqd629sCEaiisytdnvhxTE5OhwSvtV5SKtJzHYe6213FyZKDl9OHjnUEZQ4KAWCMtFVVrKvOuDRJozCoqLR8c7Xr/f/zgnCSIuau2b6qvLcjKKGOkpSYmxjk6ocw6YEKZSjauS9Ly8ZYjv/jhIaRhyPBZNTVrNz5ttywgB4TOZipes6fwncaX/1frG5LRZBFIR22ZEGYWdOWxhscvXu6D2OUoyDfR5JRPzDnzcuztlzo62tqTZeUcZKAxp6yyJHB03zs//s5JnSj61uzZUluZ66IJkhFy19bZX+739/d1xzxlM2ducHSgub3x+IGLEW2k+UoPHUyOhC8fc9jzNzyzq0zU523cuZFtOtX8zi/+22tpDZKsaMyvq1tT73EsGGZZFAghJO/wH/xBSMBbzlLT5In2/X882T3e29PRNxQeIV/+cfIgrS9f93BtTYnLOBPcH+juHh6eFEq3lBpuyEdTlOEzLUMsnZtVWrjQsRPyO9/5T3MVfHqhp6lKOhFXeZPFk5dfWFSS53Ha7RarKzfXqudoCgIAIaQ41pRdUpHj1POZH+UmOIGK9fsDYwPjXE6RR0dN76dDgBDGmkrwRrPJYrW7fXkllXX1Zfkmlp5aYkOKokWzTc8LBrPZYnF6PB6X16mnIYAAQsbk8Ob4fE7z3C44hCQtWr25JWWVhW4TDabsmqAZVm91WCRe0un1JovV4cr2+ny+fKfIUQRBSia3N7fA6+SnCglJ0ebIyi3Os0m83iAJBqNRb7DYnZ7sguqqAmduYUm2w2IVCAAAJBnJXVSU63QYZrUNUhAQJVd+dXWug4UUBABAgiIZySRK1sKKXKvIsgRJ0qzOYhF4wWi2WKwud5Y7O8uqIwEEkOYYFA2NDfReSrtKcozC1QEKkKalolEsiGZPdl5BWUme12mzmm1ZuVk2gyiQAAAEcGr07NuHW5Oaq3rLpnKvlHnQDWHAsHpHdlFhnoW+8TjzRwBrqgoIihMNZqvN5vAWl6+qri7JdolXk4YUywmS0WgQBb3Zane4vbkeu1knEABAhuTtvvLCLKskzXVKGUKCpHhTTmlJWXGB2yRdHR8kp5P0RptJ4gXJYLLYne6sHF9ejstj5glAEqTRU1yU4zIZp+yHJEmDt6Ag2+syi4LRZpJEg9lssTmz8/MKSmpKsty+slwLK9IQApKWzFZvSXWOQWTJ2X0tE3ZvSXGRz3r1ZB+kGZYRLXabIyffZSABASmOFyWDUS+Kuqlq+tx2o8QTAELI6IRkb9vwOIqxtnyP/poZITkpy6pCGSye/MLiouL8LLfd7rA5snJdRpoUdAa9Xm8SeUaQDGa705Od4/PlZdlsOgZCmqBN2SXFOU6DfupmD0lTxpyiwmyPRcp8CH9ECFo0uTz5Rflmkv7osf0MwFpqckKm9Xpbdm5BcUVRttths9jc2dl2i35qhY4BSAeaD524EIpIZdseWZWnm7U3gmUlNtz09usNyTxfTe36Uod+foOH8fjcf2l3wwXUZQCnR86d+PDsyS7s2bJ7R43XJtJzxH7uoft8d4KMq6tO9jU0nzj2Wqu04bGda0rdTv1i+1IAAIA0OTo50HzkzUOXmarSNeseqXXdzpLirrD0f4o3ne5yJHr7YAAU/9nX958aGiTz1z+yYU2+lVvWWOSDAsZacmKg+eT+I62pbOeqLU9typ7x9ZGcmhjubzn55rsXqTVPbF5bUeNe6LrtvF8tv1FB1rW6fkPd1mLUduRMz4ScmjMO+Zc2yO8UlN5bXbVl+5PewcYznX3BeDqjDtOURHjo9IFWVFWzfu2Wmr88DQXz7fctQbrLkejtAwFgHLW7H6rLyQO9J073T2hgwYD9ChmiITXqb/rwYjI3d5CXRFkAAAFXSURBVPWG3euzr7ujhJLRQH/LsZZE9dPb1pdVLKihYAFvFEzZ6zLbFsYII6QhSFIEhPPn9iDZTeZ1xRghTUOAIEmCyLSrMNJUDRMEQWT+zD3Ig+aTYoQQwggQFHVHznY/EGCsaSqGc40FjDFGqoYIkiSIRVt8IRkFANx4BO5ucY8a97LwINX1tlguJZ1OffmSXuF+Y7Hb5veIMS17oPYe4kGq620xtbpfrrZa6YMVMiYDGb1HlBQ8WJb9INX1ozMVd1ppqxXuLosv2u8dFQXgwVKXB6mut8UDtum0wj1HBjKa0V3bO8iDtOiFD1Z1PzrLqKQrrb/CYmS0hXRvyegDCZxLUlcG+GyWcXV/rd1XWnyFuch0J/6eU9IH2E24QUkf1GaYg5VNpxXuCpm+KOVOvfnpFpkq0r0m8csPnP8jvunjzc/i+T/+pQOvmsRyVeo+a68VloL/DwXqA/UMJ2oLAAAAAElFTkSuQmCC;" parent="1" vertex="1">
                    <mxGeometry x="380" y="868" width="450" height="34" as="geometry"/>
                </mxCell>
                <mxCell id="88" value="b2" style="text;html=1;strokeColor=none;fillColor=none;align=center;verticalAlign=middle;whiteSpace=wrap;rounded=0;strokeWidth=3;" parent="1" vertex="1">
                    <mxGeometry x="490" y="660" width="60" height="30" as="geometry"/>
                </mxCell>
                <mxCell id="89" value="b3" style="text;html=1;align=center;verticalAlign=middle;resizable=0;points=[];autosize=1;strokeColor=none;fillColor=none;strokeWidth=3;" parent="1" vertex="1">
                    <mxGeometry x="800" y="820" width="40" height="30" as="geometry"/>
                </mxCell>
                <mxCell id="90" value="" style="rounded=1;whiteSpace=wrap;html=1;strokeWidth=3;" parent="1" vertex="1">
                    <mxGeometry x="380.53" y="1020" width="120" height="60" as="geometry"/>
                </mxCell>
                <mxCell id="91" value="" style="shape=image;verticalLabelPosition=bottom;labelBackgroundColor=default;verticalAlign=top;aspect=fixed;imageAspect=0;image=data:image/png,iVBORw0KGgoAAAANSUhEUgAAAHIAAAAhCAIAAACKpWhzAAAACXBIWXMAAA7EAAAOxAGVKw4bAAAKSklEQVRoge2ZaWxU1xXHz71vn33sWezxNmPGux0MeLfZnWASEQg0EIVGTRSaNGm+pFVVVW2kKOqiRupCmrRN0ygpkAUkQlYSL6wGE9tsBu8b2BjbeB177HnzZt57tx9sg7PYGIrbKvj/7b37dN65P5177jn3ItHnBwAgsth/8o/P7vQ/++ZLa8wIJqX2lv7h17vKWwdFwLzZlbV5x46iZLuewQCgjjUdfOP1fSeaPCAsKnrm6QfzE+zcePVbv/10OPXejRvz3drrZiYU6Czf+9aeoyMpW57asT5RgwCAKL6+5qri/fs/rWzt94E2Zunah598bp2562zxv/5am/zCS1tdmIz1tpX8/Wdl7t+/sjWi/+w7L+/8oGGMMdjceZuWXvtH7dr9v1vLYiRf2PnoL0Z/9PZPllu0zMSP1b6DLz5fbH/m+W1ZMRYWAUCwad+LOxudW7dtKkiw0upowxe7dx8oqx2Q+bh1T2zfXLjYwYDcV7nv7ZIW7bItj61PNUxYIuOXq0s/2rv/y87hoRGPogmPiIhNWb55x7bsEAQAoIx21RS/+dpx89O/eS7LgAHQJFYAEvReKfvTT3cxP3715ytD8SQSNSD6/AFZJYAQphhe4BlqaowoAb9fCsoqAYoVBI6hMCKy3xcgNMOyDPU1qgBq0O+XgoTieJ6dGiVEkQOSNGEGUQzL8QKLFTkg+RVK0HAUAFGVgH88SGl1HFZlSfRJQQIYUwzHqH6ZNWgZAABZHB0ngl5g8I2gCIyPBShB4K77okg+UcEcxzIUBiBKQPJLAVkliGJ5nmNpDACq2FWx/93DXdqMTd8vSjTiiakGA5IkySohhABghDHNcDzPYACQR7tqSnfvPqLZ8qtnC8IYBNOxAhBF7K/9+C9/roh8+oUnsy30N7DcJSKqNNRc/tnB6uGQ7A0PrYw1UrN8LI/11JV/cOBYIPvxJwrjTQwGgK9iBQAii6MeEetNeg7Pq+v/5yKyJIqSjBhBIzCzkiBECfp9Pj/wBh1/fYF+DeuC7ozu6picPy1gnRctYJ0XLWCdFy1gnRctYJ0X0f9rB+6oiK+t7L29Rxp6fUhwr3tqe77TLHx7LU+8jWWflJyqaenXp2/ctH55ioO7k93PPGAl3rriU8Nhzvi0eNts/ck8/Hnoy33vnlHWbf6e08BqHNZZKnnEh6fl3acjw7vO9/WNiMod9mQesErdTTWNo7IpJvXO255d6sClxgHjhuyMzBgDSwBTeOYIZIxhTgPf4zA3j8xDk34zrGrfkdff82Yux7UVFzuHfNiev/Xh5bEhWkrsPnuk5Pj5tgE/NsfmFN6bmxRuYn2XqsorTpWXVrb5m9vrz5bojXG5q5fnpVkGq0oqu5Bj2Zpcp4ACPTXHqxoGDEs3rHJL7Wdras8PaOLZyxUXeiTBkZRX9FCuaait5tCBOjpZ29vQPR5UWVta4YP3LbbO6K3SU/H+R9WdrdUdHvGLN/58UcNF5G3fmhthovvPlR06cb6t1yupvCUut2h9tjvMwMxIUvX11FeXH6+svToSwEKoO2PFyrxMpwFD0NvTfPrY0Yr6az7GFJ2Ws3Zllts84Y/s7W0++Vlxq/2BJx+IF9BcsBJ/V82R4na1cMXivEUcyFRYCE9j4q3/fM+nTcKi1Px7NP62qmOflFJsUX5iSEh0YrrY01A3HoxPz81NsAnmyHA9A4r3WntzC0JxKwAA1PGBK21NV2zOIEDA01t/oqTWQNZm5axOwpRgCtNRJOjztJ8pPxpktmwqWEGPdjecOrTn88i4x+7RzMAD651LcjiXqf/UBU9awfLFJq050iQwGBAGyhibnpPEU+NN5SWfl4bajWtSHfoZsoPaX3/q5LnWQHjGmmyt4gvyVgPPICDStZbKw6UnO4XkvFV6X1dLw7H94/Tjj2TZKQAAogQlr8djkMmUe3NIAsQfNCVkZOYk2jWUIqsUhcF7/vjRDnbF9ryVGTHaoFtqePlYXcuSJKc9Ktylpzsdod3yoqRlOdlRE+aJOJv9IOZ1YXG5+QUOLUVUlSAMIwCE4rXWlPy8bDs9elXfU1F8oXWQzIgV6RzJ6Q6ZqtLxbMLSrBy7np88KTW7M/Lcgk7DUQGn99zp070Doz5lRqxA/GPDg4OyWRuVmBFpYBEgmkckMNDR0NA+pE1/7N41sVqxTfAf+Pj06frCTLsdAVCaEFfOxkeT+QhuysxcciuyxSY6jDyNAGiaAgDVc6Wjr6+3/MDbTYd5jJTBhq7OCI9PlAA0c7BHgAC58cjoTJaImDAdjQAQRQGACgA0rwmJclp5hAhF6/Va4hP9ZCaLM0v29jZXnWvqHg6oIHVcGhg2yqo6sx1kTsxdNQpn6iv2/rPSGLMkLz8zzcmD6Bnqv9JYf3Xw/Vcv0oj4B69eGVRiB7wq2CkARAsGu8tgn2ZnTlhZlkUwPU5omqaMkQmpi112HQVAlmbgkLhF9hmZIoQQABBCAIAEA7IUkK4PYkzR9DeyHcaYZr5y5EtunaraV/3hO2We6JRkt03PjgcbTozhWa0gzhKbnm+wR19qv9zaWFd9uGxcuX9Dlh5jWmOyxCSmZ7g4AALLEGu0u6wzFhq3VQkgc2Kqq6yOCXWl5abYBNXv8fhZg1HLIQBALM/Rfo9nbMynED0GAIRojSCA2NN/rX8swPo7LjW3dg7rom76m9vx7SsiQy3n6gYSC9IyClzCQOUFlSizl1Ly2NCQT6FtCZlRzgh2uKO4va1rOJhls4Q7IiMt3YIlKXuJQ0tE77gYpI2GqSsUJSiJokxp9MIkz9vDyjtXbFw9cqK2eHfNFwhhmgtNXl2Uk6zhaARIE52Sar164ci7r120OBJy8palu62WuJT4pp7KQ7teqTFrBWWQGELY/8LlA7YkLk282Hhk71s1JoNBF+R4TmAAANS+uqOVF1svNVS3tEijJDDUGJ+ak5WeZPVePn+i8kzHGMaISCKxuu+Jt3GI4WMWZ2WOHK46tOdvxxEgSmuLTc0ptJp4BACBkd7aEwcrx9O3bssKnZgVfSMmvnV1YHPWI8+4ok0aZvpbxDuWFD6gjWi63D0sKpjT22KsOmFyyTK21JXrKHv7VU8Q6a0mLYcR0kakFtzHhbZcGZIordVqymQ4VucQADFRqQXrjLLdOB0y0oRGLV3/qDMkFAEA4gyWxet/aDbZbtZp4/CCHzwlJhq4qZSCQtOKtskRl/pFmdJYXVFLYkd0cWEGChCrC7WGBSidNSKd0AzD0KYQPU8Do7dHL0qQ+BG/AoxgDHfFx7ksDAAYwuMzVwlmR0vX4FgQczpLVHTo5K6o+EZ7mqtPtTgy2BszEMWp24Hb2BDuWk2LRSL2NJz88M1D+sd/uT1NPzlAf/3TBbiz6zolNPVIay2xWfcbbW7djRU3LVqnawHu7LrZvjBDurpb77LnqpuF3cyVwOxb2d2sOcTcHI6xFyJ3uuZGY+F2YF40t3bgLi8Sbn293kqXdVfB/c9S3603r99tuHdoI7nd3Pod3sfuRMT8G5TyJkrknsAgAAAAAElFTkSuQmCC;" parent="1" vertex="1">
                    <mxGeometry x="383.53" y="1033.5" width="114" height="33" as="geometry"/>
                </mxCell>
                <mxCell id="93" value="" style="endArrow=classic;html=1;exitX=1;exitY=0.5;exitDx=0;exitDy=0;entryX=1;entryY=0.5;entryDx=0;entryDy=0;" parent="1" source="121" target="77" edge="1">
                    <mxGeometry width="50" height="50" relative="1" as="geometry">
                        <mxPoint x="340" y="950" as="sourcePoint"/>
                        <mxPoint x="390" y="900" as="targetPoint"/>
                        <Array as="points">
                            <mxPoint x="930" y="1020"/>
                            <mxPoint x="930" y="700"/>
                        </Array>
                    </mxGeometry>
                </mxCell>
                <mxCell id="94" value="b5" style="text;html=1;align=center;verticalAlign=middle;resizable=0;points=[];autosize=1;strokeColor=none;fillColor=none;" parent="1" vertex="1">
                    <mxGeometry x="497.53" y="1020" width="40" height="30" as="geometry"/>
                </mxCell>
                <mxCell id="96" value="" style="rounded=1;whiteSpace=wrap;html=1;strokeWidth=3;" parent="1" vertex="1">
                    <mxGeometry x="162" y="842" width="150" height="60" as="geometry"/>
                </mxCell>
                <mxCell id="97" value="" style="shape=image;verticalLabelPosition=bottom;labelBackgroundColor=default;verticalAlign=top;aspect=fixed;imageAspect=0;image=data:image/png,iVBORw0KGgoAAAANSUhEUgAAAGwAAAAXCAIAAABh4T2YAAAACXBIWXMAAA7EAAAOxAGVKw4bAAAGkklEQVRYhe2YyW8b1x3Hf++9mSFn4XDfRHHRSNZCSqaoaLOWWLZioSkQIAiKJAV66KF/Q08+9dZTL70FaNKgaNGicWI3dhpZdiO5WiwpsmRLinbZ1mprpSRSXIbzenCbWJboygWRAi0/xzfk+33n82Z+wPzQ4WECjkCpGttY31UZ3mCxGDgEef4d6JjEPK8M/m8H+F8gLzEH5CXmgLzEHJCXmAPyEnNAXmIOyJFEGh27dmNwYS2q5Wa/U6KlDxe/+ODKbOZ7rXqM3Eikicej/eMLT/eTNCf7nRItk9q8f/tvUzvf79Edgzm2oqmJ9e6PriRb28nQzdG1mMp6zv/k/UYnx0B8eajry95vVg9Uxlra3NFeGzAL5GCut7t/pPfmgwUmsTfVbRLMFRc7Gqu8yXvXejdMFZH6UKGItPV7nf3LGU9Va11A2py4c395M0HMqUejM5uqUYk0vd6mqDNjowMzh3Yp+nD1QEWiO9h48fWQM8t3p5aOrwx9fn1gvH9sNab96pfdGIj/0s/eqTYQTDfvfPTng5pzaPLuN0s7h9hR/87bTX7dwxsffy22vVFX4pYZejjT+acRWnmutspv45Ib00N9vfcm1/ao6KlsbGk8qziEZ48XjS2N3Omd3rNXX2gL2slpJYKmRuf+/nnPKvdWY7DGAxlVZ+MxArr34NqHn81bKisj5WRvevDqHxH/046wmzN6isqjc/38jqm4IlxeYBSdToOe0I2lifvzLktRdahQBHqwNj0+mdY89XUBMfZkfrirZ8PZdi4YqvEhndlt0qPUytpU/60etfbNC9VhtPt4ZuLOdWr3/Tgsn2gRYUYqKA6Gdic6dUJppPYMA9js4DBCAFr84WBn12yqraE0GFFohnMZOILUJ5N3R8zB+irFJQOoGzPDY5q5LBT0xhf7vvjr108515mwQtenRm/fTlPmUkNAxgAANBnb3dzY4uIvaRknSAQACokEX9rU2uI1MDSd1hiGQPT+lzdmxfd/frGt3MHGlf2RX/SNLNQrNp+9KGTlH3Ve3XWF65qbSh3PjkvNXhOAJilv8pQ3na91CZhqlGIUXQEV87K7orm1rZDdmma35688mN18LyyfePyIcOZAuN6cGhBuqJG29nr2aIH4IV9U09gacghEUzOEIbCfJUp8cbhv6sBW/4P2jrAdnog7H9yaHp8LhfyyjACQ3lXR/GZBSm81Ze98J0tEiDgrznoNDAJALIsBQNuen3myCwOf/XZKz2JIr65sPRa2k2mVgu4Ukx5Kn++WiDU57B6vQ2QQACIAoAEAEYwWt9cpYEQ5TjDwKBFP/Kc9FjlKQl6ZZzACzDIA8MJG9NuF/ZWlp+tzKz1/2Z/rZiCzPT+7yEk10TgFGQEAI9m9kv3lxU6WCID0uhfcYEywZPMFFLvEYQBFKT3vqrIfnZUdTYq+C5tOpdLp9HeXCCEsw7wgHxPCsCwBAEDo6J2+Mkin4xB6vgBCCLR/HSVNHCYzmWelMCGC2VLgV0osLIBSXFJvCgQDhleYAWaTeDyVtTLi71oWi2paanxGosZ2dlKCVeJZAADE6jkc292JJ5Ma5REAICQa+MzB9uZWNJYSEnNzC0tre57w6YOdKhNCPK9Lzq/vpMHBUk1DOOs7hzjZyMfWVzYO4kXm1Pr41KOtaAEFQMZASaFlj3EXnW2p9xlJej96iPSCJPxTIlVTiWSaMpxex2bb/PQSxbKOd1s/Gbzz6cf9BGNEWEvw0g8bijkGI0BScfVZ+auh679bHLQVVLQ0h0vc1tJI2YOeya7fr42aBSYZTXMSn+MJL2Y4d01L6ehXv/n1sk0U/W3vtpfw2Tyy/rpm5crEzT+sDZskHd4HwuoYBKD3vnaxcbtv4u6nH45wBGPG4I801dWUCywAAI0+HOkdW8H+hguvFeqz5CeXL18+tohY3lRYUaWYyZFFs8fvFDHVKOIE2eL2BhSfTdIxGAAYyWo38ixhWR0vO72FDpMkGi02s6RjCcNJdiVYFaooL1c8bqvEYcxItgKfz+eUn2sGiNHLVo9P8VoFBIAIJ5nd/mLFIWY3jzDmrR6nhDKU5UXJ5j/jNTEIISCs7CmrVGwcg7/9N+ItTrtBRwjDCmZvZaT6TElZeZHbIomyzekwSSyiQHSibHMVBnxum0FPEABNLA3fuj38SCuMVPtlkiVKfrL9UtS1vk+uDqzJDe/9qNnNZfvVqV/n/0+QzlVW11piUuxZDUL+ScwJ+SlODvgHexJWUnxSBcUAAAAASUVORK5CYII=;" parent="1" vertex="1">
                    <mxGeometry x="183" y="860.5" width="108" height="23" as="geometry"/>
                </mxCell>
                <mxCell id="99" value="b4" style="text;html=1;strokeColor=none;fillColor=none;align=center;verticalAlign=middle;whiteSpace=wrap;rounded=0;strokeWidth=3;" parent="1" vertex="1">
                    <mxGeometry x="274.24" y="812" width="60" height="30" as="geometry"/>
                </mxCell>
                <mxCell id="194" style="edgeStyle=none;html=1;exitX=0.5;exitY=1;exitDx=0;exitDy=0;entryX=0.872;entryY=-0.013;entryDx=0;entryDy=0;entryPerimeter=0;" parent="1" source="104" target="73" edge="1">
                    <mxGeometry relative="1" as="geometry"/>
                </mxCell>
                <mxCell id="104" value="" style="shape=image;verticalLabelPosition=bottom;labelBackgroundColor=default;verticalAlign=top;aspect=fixed;imageAspect=0;image=data:image/png,iVBORw0KGgoAAAANSUhEUgAAAUsAAAAbCAIAAAB6LDqKAAAACXBIWXMAAA7EAAAOxAGVKw4bAAAaUklEQVR4nO18eXhURdZ3Vd2tb9/uztrZExKSEEISQgIYxWFfIyAoQRQBZcQFUQZFX8VhlHcUF1DG8RUVEHEUESUssgmyCoSgwIQdCQnZIPvay73dd6n6/ugQEtKdEATkm+H38JB769Zyzqlzqk6dqmooSQ5wB/8RgC3+3FYgN6COP4qvG0A7vFzLDeWBNP4H3SRfSUQ3ssk7+ENBWvz5Y0E8PF8v/sBh63YcMa8ItTV1sGXiHQu/g5uBG20Wf+ywdQO4ufGz9zXijoXfwc3G7TkJdhC/i4nmjjP5XcNVx0vT19+Y5hRtNqvMevsbuRb8E01xWGtrrTIGSOcTZDZQLYlUbZVlVi4wyJu9LrERp6XGotB6g1HgqPazt1WTJosNNXV2lUBa7xvkp79ddRGrsr2+usGhAsga/AO9m8ubACw3VFY7DEGBhg6JQ7VVV0m0l8nAc/StYRze3LkYO20NNidhBS+j7vcpxm2K6xIeNXfu3Otsrj7v4IZvl22riemX4N/CFVDtVbk7ln2w+Ku132+64D90QJzQXCExrt+34Lnl9XcP7eZNoetQLS13w6LPdxbT/tFRAfzvUU3irC/L2bh40dJVa9bvruw8qm/E7xjvbiaIWFWUnbngn8tXr9+SrSSN6hnYTN5YthdufueNzUz/gTHNhqh2BYMrd/9z3neFvqER4QGGW+PKEaI6LdU1NsLpWAoCAABRJUttTV1dfYPFarOLDo3iWBpB1zdnQ50IaJpq1JJ2OXIU7l2zfs9pmzEmJlB3CwdrLNXVORFDU42Eu8XlCZyoDpvFIioY0QzdpP6t42UtQDTVaa+vqW2wOwGrZzs0fP0+nXZPFWMMSsqY806f4+vefrugVRGIvJIzZnj7BtHXY943ElDnG37vY6/H9cv6+p0Vt/OOAhQCo4dOfy9xwE9fvL/l6o+I1oX86ZFpCWHeHTTTWyl9CAAhmlSTv3/lp1utQ2e9dF8UDwHQrHm7vvxi85G8MqtMcUa/yL5TZk26K9DEIQCAdGLVhyeTJ49MiQm8toFcF5zUf0QkEQINN4c1Dy4Ibsj69KOakU8M6xbuw3gs1mjDRK49u2v9T+dRTP/0oSkhJga1Co21AsGO2sIjW79ZubdKiEuf8dLI6I6YeHMLVyWrpBKCAdZUTCCt43meYxCWRcmpQlYQOAoArDgkh4xpvQAAAARgRbLWVWsaQAzH6wWeaUvPiOawNthkFJwQLTAtBjysSHa75FQ0DCCidUaTnm1zgieaLFrrqjUMEMvreZ5jEASAaIpTEkWnrBFEMxyv13MMgoBgVXFKdsmpagDRnE7P69txTInmtFvtDkUjADG8wShwFAQAEFWy2SVZ0TABiOb0BoOOQZA4rfVOyBBVxVjDBNE6vcCzngcwojhEp6xqABJV1QCk2UZCCVZlSRQdsooBRBSr0+vbJpRgVbI2iAoX3jXc2CyfYquxEx2NZVXDmEBaJxh4lkIQENVht4tOGROKkmTcpLDYabMrCAFNU2RFI4jVC3qepSFWZYckOpwKBojmeD2vY2mgOJxOp1MDBGNI0QzSnAqhWcEgsIhgVZbsdknGBCGW0wuCrpF+otqrTq37eGXhvW+8MzKKd1Ff9dOHHxwKm/PmZ/eGCkpDaX6BHOqjoxFRJZvdfu7Y2Yr60Jq6Oh9aYnijQcdQFHbYbCqiGukEiNMLvI6lIVEdoig5aJNvAK/nL6sgVhwOp1PWECKqohGIaI7X63U0BASrskMUJQUTgjEmkGJ0gpdR51l5sWy32iSnRgCEiOaNJj2DIJFFu2Q9fuxsrdCrtj6IxwwnmPQcTUFVsoiYpoimKrKiAUonGHgdQ0HIBfa4b4xz7Tc/7f6R5R8ckejPtD0cEQCIWF1yMutQRedJf589yL+jc3Kz/Gre1sXrTzfYFQFXF1aIbGivEWPGDuoRasvZtOrnXD518lNDIilce3Z35paDtfGPv9wPAKjWl+Rs+ij7zMlSRYjqlf7wnx/sGehxdU1UuerAkjeW/3qpoNDnidXLp3ZmG7tfEy/9uvarzF1H86psmPOKTn/u5Yy0MB+PrhYE1rx9qz/aUlZYrnrFD3hw3NgB3UMFpDQUH9m9Zf2P2bnVsi6g273po8cOSQkTgFSdf2Tn+u+35xRZgSk0qe/IcRmDuvp7plOTanN3rVy6Jiu/XkGmqD4Tpj89PMbEQCgX7lq2fMPhvEq7gjlz0uinZoxNDjE6Dn7yyjYcSzdUW+qra6x0WL/xU8bcEx8kuB9qiXRu+5dbjxbU0H64vKDSyYYkDx374NDeYbxclXdo+5rVO05dalAofVC3vqMmPTq8m7fHEVtzWvK3Lno78/SlsobE2Ws+vN/HxZJ6dsX0hbV9k53niups9RbVfM/k5x7tF+nNA0vuji+/WJd9vgH6dU0Nrq5zBAAAAMBV+5cvOcEFInt14enfLjl8ej04cfyItEi6+tyB7T9s2v3vYgswdkoZPHLMiHu7cvn7tu/cur9cQDVVwC8yNqD25FkpsFfG9D/397eXnc1au2r9/twaRWeOTRs5aXJ6dz8GAqKKdQU/rd6ijXh/XAzfKAeALQ1WJiIxMdDAcbwQFNszyPVFPr93xbc7Dx46XqwULzjyPcdwiRmzpwyKDzdU/rzkk1PGCNpSnn/6tzKnX9pDkzOG9IwUpMLs9ZkbNu89o0YPf/SJJ8ak+iAAiO383nU/7smu8grXSvOrRayP6J0+fmJ6gi8Qq/IObfxm3f4Cq8NaUVJh13Xqdf/0uX8Z4O/BxIlcduDzRd/sz691aIjz6Zw+Y87EFB9eOrt1Weau7MPnq6iP39qv5xjv3lNefPie2ECuaPOif5VHhGjVJblnzlfjiMFTJo/pmxzEAQAhG9xz4D25K3YdP3g0JnJovNFTm01PWNMUggSz2fs6XO6WRbTS/Iao0RmPjk4xFG//18pf9uzwCngkznNpZ73Vgb36zln+P2xJ1rovv//q24jov/Tx8WA6kOaChrz8ycC6bS+MXN08j3xh3Tvvb/d58NkFc3uEcvbyGmIOuCp61xJadUF12Mgnp89L0edtWv7Ngd27vQMeups/s2fz9iPW+Cnv/u0uU9Whjd/t2LgKGJ4dJpw9sG3TL6TvS5++H4sLszat/mH5SuGV5/ua3ZoOUaW6M2veXprf/60lCxOFhpxls16evzr60z/H8QzjF9Mn47Up8eE+VOWOhS8u3Zid1ild0AEinT1Wk/HijDGp4dTZr99cfOBQXHigOc59AwAAIJdekszDhj45J0VXuOf7NVlbtniHPdE/WPDvcm/GcwNnxgTg4oMbVq798Ydfe3YdFuhpZqF03nEZbywdnrfqhZnHrpJQwcGTgz+Y/3y8P1WaOWfW9zvSEh/p4Xdpw2erCyImvfFy/0h46tt3P5Aa7Jf1CNfl7KvpPuHxl59+JYhRFUjRjFq2b8uGvUX8wFmfDO8C83atXrtv3Sb68fv9cYOo808YOqbTpc2Ze+vCp85ILdr50y8nyhM7X9ixZuOF6Gkf/28PtvTw+mVffLgy8MOZaV5Ac9hK9u8rjBn71+gmRxYCOqrfiNgtqz9aTWcMvSvWbOQ5jqERBGxs+szXh9zzf898rk144ZG+cU1eOgZAq/33XmuvR6fOmT4ngFIUiqIZCIA+ZuCkV/v0Svhs/UmtRWeK5eVWKqbPrNmv+VYd+TFz/e4tB5K6pnOFJ/ftPay7b/4XQ/iiQ2uXrizu/8pMj+YNCFZy1326CT72xdfDQnlcV1AkBZg4GkJTcsbs7sN2zJ+2JWTWCw/07tTkpWsA4EsH90lDpz7x5swuXkDWKIq+4sIzAd0So7Pyc3PPXri7a7KXG01vthwgGGNVIwSi64qWtCwEhai4LpHhZg4JUfGxwbSzvLi4uo0IHvIOjEjqc3eIwPuFdundK0o5czzf2WEatIKfdxdG3f/YfSmd/fS8wRzVKcDQthcN9TEpqd2iw016c1LP7hGMdKmkpLr2Ql6+lQpKTusVZuS8IpN6JIfx9adPnC26WFRcq8beOyjBV6fzi4zvmRaLTh48UYs9UOMU8w/sL48fMTqGkx2qLnbYgLALB36tUDEByCu2Z1KIAWkK8U1OjkKiTdRUAgCgAnv1S43wNzFQ6NQ5lJVFq+RQ2hAc9OnUOTo6yp+hTBGdo8MMqDQ/vxYjwTewU3SsmQNEZ/Lv1DmYsdVbrz2ASpo/cN3T0zubOAoywV1jvCw11bIql+TklIX16p8Q7K/nA3r2u7uz2Ze7Ujygx5/u7h4XYqApTqdjGZpUnDt3UTPGpqYmBPC8uVtKahcDKTlzulSDnMnkY44IEHxCw/yCQiKNOp5nHJZLVWW5v5X6p/VLMGKNNYSkJIVZc46cVwEgsmIryC8LSOjq00zhIGBiJ733wbS4iq0Lnn98xuv/yDxSYpW1dhiGASn970mIDRIoSqfTMUzb0xryjoiJ75EawiGdl6/Z7MtZqmpUh0Ostzn4kLBAhuUF/5BAtrK0ss1moblTFJ2/Z8Pu40X1qhARHWqkqXYW+wR2ShvcOy7aT4doXsexTPPhHnkFB5lpbK2srFHdFL3yhBWx/tKF306cuwTMwb7XY+JXyYdlWYqhIAAAcToOEOJ0OgndvF1CAGmigKIZnSCwAABAM4xB4GWb3UlABwOZuL7Wwvv5Ga499AZ5Pc+yLAQAUHo9j4AoO50ORVIIMfE8CwEAkNNxOho5bLUNkl1WWG+DAQEAIMOwBp5TKixWAMxuqiYYa3UVFTVZ/5yS8akrSZP5IIeICcG2wl2rV/+UU1KvIaRVX6j0imzcn4QGo4GhaAAAQBACgglpc28D0jRD0wwEANAsy0KoOkSHJlUVHN2zZcvBvEoJE6fFogixsR3eIXGFdKDOy8Qil0ARhAATQLDNaqcFgadpBACAgtHAMlcGUigYBB3bbOmCRVECiNLxrtUp1PE8QwHJZldNCCGapiCAFE1BhoIYQIgV2WmtzP9tf/as418ilyRZr1B/hwoA0lTJZgcGw5UYGLwsuKghU+cOecxW8uumzxa9Oc/21rsTkwINbZgtNBj1HMvAazsGClmO0+t5CACBECIICCBEJxj9fQRHYW5+faSp5mJBOY5MDmnDeiBkAkfNW+q1buWa95/5BHUdPuWZxwd18W5nFmKNBp51xb1Js3BaY8iN0eloAGTZqRBwZSl+VW/L5ad3f7tg/say0J73/fnx/kG/38KJZLM5RKcGAK3abXYNQJ2ORxBCAgjGAACgyQ6HzS41zn+aqjhFuwIADVRFsUuyzsvY8X0K5OXn5ThTY1W0QAIoCAAhoI19BwAAcTgcsqwQAKAmSQ6IKI7n9bTAQSjabQ4CBEgk0SEqms7k5yuIHCtbGiwa4Ckiyw6LzcGavEzuq4YIUb5BIYHDp2XO7StACAAghAAIIdB++/LvCw/1mvf3hXcFC1TV5jnP7rnieHWMayJKkihKGJiQLIqiotI+Al12Yv/mDfvFnk/OH59savht/6bMdec6VGsLQlpLEBlMBrXALqmqBgCNRZuoKG3MmMggCBDXiDZRAwABTbLbFBUYDYJ784M0yxqC45KGTX7j1dEhVHPBAUzRvEEAVouVgOZqSggBAEIIkCE8bfxTY7OmHy+wOruaDTRq/N5sOnGL6zruzfhHxqf1STj08fNTN4aHRMQPeHLaQLNH62k8/s2H95v0Wr9HZ5XsWzz3nfcywz94NN5fT4FG221NJmwZJCfNEgEAQJYklQCW1Xk0bwAAG5w0bOaS1OFZmzPXZa7amfDq6NAOG/lVBcTzRw8fP32h1lp+7PCxfJEJjYwMMJlMermhJP98kUWqPnfy6MFf8+TG7Li+8uKZI8eqVaWhquTMyQIqMSWW7SgJgIrpPzDi/A8rth0vqnM47LXF54oq7U433ksTiO38idMXiiscmjX35NkyrA+LCDf7xnSN88blOVkHCxvEuvxjR48U2b0TkxM6RUR2NnO5+7blVIpiVf7JXw6cUxP79PDk8tA6IXZA/6BfVi7bX9KgqE5rVcGxYxcsGBMiWu1Q7+vD00itObZ55+l6u+y+jnZBLHknj+Ucy6uzVpw+cTy3joTHxnhriqwSSm8wccRamn8qO+uMvcP1tvWOOqWmBhdn7zxxscouVuX8nH2+sqaNTUIU1C0xirGdP/zriTK7veLU4V/P1pPw+MRQD9EF2icwPLZLQMHW7/bk1Tpksb7iYt7J/BoMAEAsY4yKDio/dbrF2kgtPPhj9rmiKqvkFGsvZP2wt8g3LExoDL8ik8lgvVhcKUoKwRiTtkyddOywF5HrKi8VVwj3zft82ZJ/zpudkRrodtS6XCchcklOdm61pBKo8+sU4ctgVWsyWtbbxFYXFdZKkuoitKlwGxRYysqrFWQMCPCj286OaL05PLZ7fARTV+lpYdkmWnKGArqE2s5ueu+xBRfVgJSREycO7xXM6My9+vcpvfj1x0+tfd8rpme30JQ0XWN27yB/s8O+5W+T/lGn6UJ6jpk2sbcR2Csu7PvX6ysOWyVLZaV87pmJ33oF/mn6whmpxHbi65fe3VGlWcscDSdfmvwjwyQ/seilQWZ99IQ3XiNLv1z01JLSBqwPSHjgpbmP3NPGRhEb0z2k/sja+evfq1C8uw3OeGhwShANYfzAsfeTDau+fvGBdyR9WI8h4yZMGB6j50BS31GavGbFe1NXVAOf6LuGP/TsxD6+SGsoPf3TJ++uOSWJtZV14N0p//bzixrxl7cfifOKn/DmK/ijZTNGvVKr6HzC40c8979JkUY66aEnh8xfMnP8V9AYmpYxrE/EUaO7DdBrAAqM9Kso3P3O1H8UK+YewydMHp0WzBMm9a7EUys+fXLsYu/Oyd1je/ePuwQAIHJ1weENixdvLZCstVVW+vWH9/gHJD7w2iuDvWuyPpm99BdJriutd1x8evw3DN/3hc+f7dmiU5upDhM3buaUusVfzZm4SPNNHJQcbKK92pgTUGDv0RMU6rvV7z/+WTX2jb131PiHR/cJpXLPuM9P+0Smpk/RlC+/emH8m1Wyzj8mdfDD0xNi/ACgeUOnAQOiN2/dljdychemkTBiy9/+8cKFxVUWGer9I5MHTZ8zsbvZ4JrVqJj0RwafW7LwmUwH7XvvtL9OG9It3OC+YVx+KPPbDZsOnquosTjA/qysNZE973tgwrjeHlmjKCKV53z93PAvAKR0XuEpw6bMem5knKdDjUSpPvz1W3P+Wi5CmjNF3PXQ8w908eIbxcwlPzCl16Jlf536OeYjhj//2sQ+XQLZy6Jvkn6LmtXykyfyRCYguVuMEV7jwHS9e/zwyu1R9be1C77N9U4bnjE4wQsAiCiKcp0nIgRrqqphAiBCEEAICaQYBDDWNEwgIJiAywUQBIRomqLhZk4YRDRDIwCwKqvN0wGkGdcRpsstEAAAgBTNUJRHRx1rCna5b66KLrcLACBY0zQNY0Ka0w8Iwa4PBEBIIYqiXYsBjFVVI65qXIRSjCsMQbDq4tjFGE3TCDZLhRBRFNQwZGgEIVFlDdCNZ5oIVlUNoCaSWoGIpzYu++EM7DJi8v0JekCuEOoiSHXVDxGEwLXSdckfk+aCoxiGggSrSkuBIpqlEcCqrACabZQhVmUVUAxNQdiMA0QhgAmiKYQQ9Ej0lX6BECGaphAEWNMwAYiiAMYYE0RTAGsagXQTqa0EBwBRxKoT38xbmNPnrUWTYnRNPamqmAAACADI1Y9XCCBYc0nDpT+XyXdDZ2O3k8aJHkIIEUXTiLi63NXdrlwYQHvx4Z2Za04GTJw+LsGbxvay03u/W7GNnfLR7Ht4T3aCVaWJK4golyCuNN+kFhTNUAhCQDRFJYhC6DI/zciVyw6u/mp7iW/vseNHdLuGDTBiv3hsx8qlP2pj5s0eFtzGnr1btKofQopmuZZbVRAimmFbk4IoGrlx2SCkaPcn6xDNenDiIaKYaz2NhyiPx2qge5KgK51uneqpUfccX5VKNZaFNIta5LmWToCIolm2haA9EeSSv3sq3QoU0SzX7IawKxN0w0G7RLujCFGNy2RAUY3CbkrxpCoAMnr/xAkvPym+v3C+6dU590fpAQBXV05aHBxz07YHOj10O4BNdDXLpThEW329xHcN9DHyrOa0a6LFKgsx3m35Yx64ukLVVV8hxTDupl0iV/x7Y+aeMp8e6aMGxXld0/421JsjUwYNPP3Fqr/Nyk5/8fVxXa73TNsd3MHNBOKMnfo/vSANM/zlufKq89jwaiO/GWD8I7r17nPmm8xXHl9JEISMPjCuz/jpD8becFtwc9ocsubk+5/spkKKZZn2NtyaCnHe4aljX0y4TwOI7eilmmZeOlCdolOFDMex9HXtrd/BtYGoTsmpApq7FZe6oMeX2x83y84JVhWnQ5LVxtUZRbOc7vJlmBsFz5Xd2rvu8M6vOP3H446R32Q0dzqg26n7Cm45Q3cm6/98EI8vd3BDcJVMPQXk/xjh37Hw/wpcbeT/39j5VedGbnMP5Daauptwx8L/W9DmYZjbH7BVTK69a9U3F62bvh3NG9yJpf9X4eoF4k34hd+bD9jqlbh7vgUEXJvg/uiR9I6F/1egSffdGHU7vyB0W8HtmNTGwe7fj7Yrv72Cam5xyy2cYK0+68O5e2JefW1UWLtX8DoGXHXm553bN2Xl2n26DRyZ8dDdwf/ZixDNYcnd9snyPRfrbaDH04ueu8vjnYB2dpk7ZuRyac6en48W82kPj0ky3trBwW1rV1/qaMWP20hYa2FcVXlroTQv2OqkmluibgMg+RaTAiHkg+NTEiMM13ZXlNQfXr1uf25J3TWcukdeEd0HjHmgX1czqalouNWcdQzEnp+1b8/uX4raumHTDhCrD7973JRJQ8Lqz1+0tCOg5nbgRjKewm/Efn7fnj0/Hym5QidxWmsrykqrbJq7AgBoUu2F7O8/+uhf2WXOxjqxYi89+t0H85dnlyvt89VBtF6Qt35t/q/ddLeVdAS3k+b9PxHW9tK5551AAAAAAElFTkSuQmCC;" parent="1" vertex="1">
                    <mxGeometry x="369.5" y="430" width="331" height="27" as="geometry"/>
                </mxCell>
                <mxCell id="113" style="edgeStyle=none;html=1;exitX=0.75;exitY=1;exitDx=0;exitDy=0;entryX=0.5;entryY=0;entryDx=0;entryDy=0;" parent="1" source="105" target="111" edge="1">
                    <mxGeometry relative="1" as="geometry"/>
                </mxCell>
                <mxCell id="144" style="edgeStyle=none;html=1;exitX=0.114;exitY=1;exitDx=0;exitDy=0;entryX=0.5;entryY=0;entryDx=0;entryDy=0;exitPerimeter=0;" parent="1" source="105" target="142" edge="1">
                    <mxGeometry relative="1" as="geometry"/>
                </mxCell>
                <mxCell id="105" value="" style="rounded=1;whiteSpace=wrap;html=1;strokeWidth=3;" parent="1" vertex="1">
                    <mxGeometry x="190" y="1680" width="350" height="70" as="geometry"/>
                </mxCell>
                <mxCell id="107" value="&lt;font color=&quot;#ff3333&quot;&gt;false&lt;/font&gt;" style="text;html=1;strokeColor=none;fillColor=none;align=center;verticalAlign=middle;whiteSpace=wrap;rounded=0;strokeWidth=4;fontColor=#FFFFFF;" parent="1" vertex="1">
                    <mxGeometry x="170.23" y="1766" width="60" height="30" as="geometry"/>
                </mxCell>
                <mxCell id="108" value="&lt;font color=&quot;#66ff66&quot;&gt;true&lt;/font&gt;" style="text;html=1;strokeColor=none;fillColor=none;align=center;verticalAlign=middle;whiteSpace=wrap;rounded=0;strokeWidth=4;fontColor=#FF3333;" parent="1" vertex="1">
                    <mxGeometry x="490" y="1766" width="60" height="30" as="geometry"/>
                </mxCell>
                <mxCell id="109" value="b1" style="text;html=1;strokeColor=none;fillColor=none;align=center;verticalAlign=middle;whiteSpace=wrap;rounded=0;strokeWidth=3;" parent="1" vertex="1">
                    <mxGeometry x="530" y="1670" width="60" height="30" as="geometry"/>
                </mxCell>
                <mxCell id="110" value="" style="shape=image;verticalLabelPosition=bottom;labelBackgroundColor=default;verticalAlign=top;aspect=fixed;imageAspect=0;image=data:image/png,iVBORw0KGgoAAAANSUhEUgAAAL8AAAAbCAIAAACiBcmpAAAACXBIWXMAAA7EAAAOxAGVKw4bAAALG0lEQVRoge2aWWwbxxnHZ3a5XB7LSyRF8RIl6r4oylKs0/IhHzmQ1HGaGkHRvvQpfWz7UKAoihboW4A+NmhztIkTtLEdx45PObZly7ItUZZlyZJlnbxEieJ9H7vc6YMdH7JEHbXcIuAPfOGQO/PNt//5ZvDNB6PRJMixOTJ0ZPrq8RtOdlk7zhNrq8zMhT98KfrNx+83cF6KMXTAPjEycHsujJ5tx6SFNfWNjcUy+OLHfDkz+4ECISR4IorKLGvHSQHJAQxAKz61VcbgHC5PSFHsslFxPp/k4Fs0Zi72bAmZVNhxt/c+t+mAWYX9r43ZMnLqybF5frjrIsfWk1NPjs2TU0+OzZNTT47Nk1NPjs2zcr6HDdmGhyYWCGNbe9nTWSaU8Ezdtdy8M+1NEZqalrZms0G8BUmoNUDBkbMnrIquDpM+j//yh18JNh1bsJy+4Ks7/Ga18P/DpJfBatlClGEzGQY96wg2MDfc22tx4IaaknyFXESumYSiA9OWgftRabm5rjRf8IJyVihms3zXX2IyV+hevHoY9+C3p+8EWQ5Vs/+tVi1nqffIGXb/z3eq18yrsukkA16acjJxr/3ewPX+CQ8tUFc3tjSbi2UEAIgOuyaGRxzpgvqWei21vq0FJZam7g7233ULKre3vlKtEax3Fit3j1EFlY2t7Q160TP9MMEFpztJGltfO/jmq51mY372YVDcfvvKxYFpP8sTkviL9ivckheVsV78oi+oKtSlhj47NRaPjn97fDgm4K31FjCCr6w/cHBn8UuKhWzU/cByubt/HsvX5qHFoavdV8c8DAAAYgRPSKRco72Xrt1bSq2vM//MYE/vkD1NKRVi3kaW+HMrCoWdY0PXe4ZtaXFJY3tXZ4UMAgAYv3XszuBAf79lxJl0pI/4h3VV25ubtxVJV+0ZJeeHe/omY6rte7ZXaiQkBgDrH790y5ZIJZLJkM+fAOKixvbtdUUK0j9y7pJT2rDNXFYghOzS0JmLC4qWRrXPMu5FYfdSEGmqDJklu9MvNO3b06AHAMCMf+zSsYFwKIRkZa1de+p1Eh4OUXJxpPfyrfvOEE0oStu6djfoRFwcovjYiSO2ok6xbWDM5k0AWf2PDncYBMQKmkAB+0yq9Lc724cvftA9b7t62yLb9zuTLIt6WDqxOHjq635XjOGUv/qLg7XZlhQd9U72Hv925MllFE+mNXUd6pAHxntPXhiPPG4XKIob9rzZWUyu6Nuox3Z/fDZd+MY7b28TLA2ePtEzYplorlOqcZwvN5hamjzu7uFrt7Sa1+sVawZNFFmcd6e4xo6O1mo1sRH5P+8Wgi8rKFLzkq7J4YmFxKPZQFKYpzYYDWpFnkyuLiyvqijSyIXcbCbFbXdvzyYlpdU1RTLy4TAo5hy9du7sgCNF6crKNMh287u+UZsvjaKO4VsjkwuhFAIAoKj1Tt/wtDvkmR240j+bFhLhkfPn+hcxETt/rW/UGYhlAMg4J2cSQlVpRbHQ1XvsZN+cP5FB0Ynuz7+xePmaiqpSRfD2V19engwmGQRA2mk5d+yLMw8YuaGyqqJUm8fHVwldmKHztYLprz/7fJDY3Zg+fzbS9HaHbsU3+D0Qw/nKwhKDODB0adCZXsPdHFKqKTfV1Tz+VJcb1RSOc/lyfcXT7VVlBhW1Whygo36fL8Lml5TmC3kilVaromiX3RV/+LZwYX5ZXaWe4783OO5ewyAAAAAsy0KcILnERjeI54QJ+XJtpaw94nAG7j1pxYVKfbVSyfHN2JPRsld27jevdVpmPLMzfoyq12nk5NPn7jQnr7K6aceuSgmt8o9+Oud0B+Klq8kQQaGu+pVtqum+K1JjTZsscv2YNxBLShAAhKK8qb2rQUsG871/+rB/rKtJT1ivXJjk7Pvl3r11BWR8Kjb4+54Ba1uxhC8AADARTNXQ1mlSUzjLZDCCs4p6lI2Hfsyd8SaBiZ06+qXm9T9WirNvWxDnykq378wTzXefnsvuEwBwnkhbv1tb//wv0kLz7kLzWs8/BDGpVCLF4HmUAAIAuVySz8FTsVgCgYdHDUxQoNcouZP2WXuwQ5ufbQIsHXHPL3hjGSmPx93otrtVd+woHQpGACdfSAmfXUBEnlqjzBMREGIiigRsmmYY8Kx6nlwSQ76IIklKwCOleWKSKyA5bIRhEQsAptAb80UCAucoSkvy6TFPMJXiWWfcvkDf8U8enCcgYBZdAUeel2EyCAAAoKy4qlAm4GAQYESWWUO+qmK7qgL5b3zwObvtrXTPkY+jHHntngMtuhdwpqGjnomeo6fuhh7PkZTpzPve7VT6x66eOHfv8Y4G+crixr0HdxlXjHsQQgghQgg99BdCCAH4VDiFpIAScfF0OBRFIH81a1DMZunp7u654+aWdHRW6dZ9Wv6erVIPhBgGEWBZ9tniF4hxCBx7OM8n04UQAoTAQ2ewyUSKZlgEAIAYhkEAIYQYBiEE8NFfAECIZR/5jkUswHAcQg6Hg4v1laZ6vZSHAYAaGvGCOin/UZQhSHL9B+3k1IWvp4t37By6MFtysAXd/Opf0rJf7VL819kxjODLi+oaicTjFo5AqpfgOFegLK5r5D25sSYouVa8ys4FCb5AKCDZcDDCAhGWjCei6YxAJXkqV4AAyy5T1AoQlKqworbKn5qOBQKheAZJVgnJq7Bl9T1cuVyGjUdDwXAaSchlNi3/KqQoLLTo8oVjaWHi/vDEvC9hzN4965ocWwjX6GR839joAqVvlvP5ypoG4/m7rMxoaiuXc+ioz5uiFJupbWE9t77qIff+ujz056Oyd9pa6bG/d1vDCCg23NNycJLS1O7Q1D7/i1Rv6tSb1tuNWFmgkZE37w3PNoklrpkpZ5hXZNTyHvsVxYLBQIoRqBXSLIqHXLmhtr1ARzGfnHhgdXjiZvXyN5WdZepBSff0UH9v/+jUxH2bl/B9lJiqrG1qbTPrNxrVcHlFpabvqstqd9frCrNn0KCkoqX5zpnbp/46flkskogwASnMvk1AmVbkuXH6s0EmEvRESroO1arEJF+06ydvhK8MHP/wSpqFOJfSNr97eIeQu8GzIIqPnznpqnnvfaPWtqvkm4vHjjKLRe2HVgk8mVTkQfc/u8ej/vv2YPjc3/4yI1PUHfhpZ+EWFWQBAACAPEWxqanRceHGRx/cwhAU6Wp3tpc/EQoTcMzZvSnKWGEQrTF5iJNiqZgisThNL69yW9uOZfU9TNTrcljt3jhNMxmAc0mBVKUrNKilBAAgE1m0Ov0MpTbqZcSaXdO+8fP/PjkCq/e/tbdRK8QAQPHFyakAnq/WF0hJiGILDyYDXI1Wmy8hkl7HzJxjKUxjQoVWmgkguVEriNsWaKVOI6PtYz5BkV7F8Y3P0epijTA6OxXikqlINJFIMBxZYVmZVsrnYAAwkUXrjNXljaQRTlLKoqoKjYSLw/TCSL+LMtUZxOuREu0eHZiXNzVouKmlyXFHEiKG1NdUqXgrPcoyKc/U0LQ3w9LJJMsR8EiuoKDMXJxtzb8IEB0LLNhmrIsRhhAXFBYV6RTfZ2PpwPSN06euz+d1HH6no1i0powz9suf/uPaom7Xz97rNPA3YvdWVoehlG/a8t1Fi1tm3rOnuUr1onLNObJAhxwj1y/2TaLSHQd2mHWidRxNUMzef+7spUErVrnr1a4dZv2671q2uLYwE/c47EtpoVJToKQ2lIjKsTnYVMjtWgjSlNqgkZLrvKmgY95Fp30+RCj1Br1aki2P9wy5ytQcmydXoZFj8+TUk2Pz5NSTY/Pk1JNj8/wHgsWwAH6MkHQAAAAASUVORK5CYII=;" parent="1" vertex="1">
                    <mxGeometry x="270" y="1701.5" width="191" height="27" as="geometry"/>
                </mxCell>
                <mxCell id="119" style="edgeStyle=none;html=1;exitX=0.5;exitY=1;exitDx=0;exitDy=0;entryX=0.474;entryY=-0.043;entryDx=0;entryDy=0;entryPerimeter=0;" parent="1" source="111" target="114" edge="1">
                    <mxGeometry relative="1" as="geometry"/>
                </mxCell>
                <mxCell id="111" value="" style="rounded=0;whiteSpace=wrap;html=1;strokeWidth=3;" parent="1" vertex="1">
                    <mxGeometry x="430" y="1814" width="179.73" height="40" as="geometry"/>
                </mxCell>
                <mxCell id="112" value="" style="shape=image;verticalLabelPosition=bottom;labelBackgroundColor=default;verticalAlign=top;aspect=fixed;imageAspect=0;image=data:image/png,iVBORw0KGgoAAAANSUhEUgAAAIIAAAAfCAIAAACkmYI3AAAACXBIWXMAAA7EAAAOxAGVKw4bAAAIy0lEQVRoge1aaXBT1xW+9y3S09P6tFqyjGRjA95lY4MNdrywxRizBQamE1pISCkl6XQCM81Mlyn90WmaZjrpJHQCDaQhkEIhY2oIpmYzGDAGDMHGDNjYgBdZXiVZ+3t6rz8cFoMly1SJNYO/n0/3nnPu/c5y7z2CjiFbf8uVk1VXLJSpuHh2ooZEwSS+b9C29ps1VRfucvH5i/JNejF0ODzA7+ptf9jjE6p0USoRDifaxpcArNdm6TJbaZHWoJPxEQAdDs9E2zQJgEy0AZMAYJKGCMEkDRGBSRoiApM0RASwwD95LTerT5yqa+p2odrsZcsKTEY57/s/zNLNRz74ml26eXGihB/+GwzrG+q8uP+L1pRN6+cqI8gFA9LAOVrOn7jchhlySxLUMrWBEmDh5YAbaj5x4BtLQmlZTizFRx8JR4QKfQyQYEgo2jjnlV2fO1f9vFAeom0QQQm5NtpJEeFcDEcPWVqunaq6cPOhlRXpUnPmLSxMjRqPisA02Lsf9nJUfsqsuSYNCiCEYWWB7qret+cinbXEoBCO2HJEnbGkBIgJLBRfpVsuVH4btZQDIFQaUIKaVlBm5JPhXI3fPdTfbXFSafPSRd72xms1/zkqVG3I14YezaPQwA7eOXe2prbuSl1jD9LXe79WEW0qWV6UEafEvZZb1SdPXWzssLFSY1bxkiJTrJJE2YHLB8u7VAbQ1Xy7ud3KKnNXrSlO1koD38fZvssHv74rWbBhTope9jgS/Pe+2XHo0kNzHz5r869WJksJFADAOWp3/rlek8Nra7A43Q6fJG3p66tmqjFnU8Xe41evn2tvlb7/21sCBKVy1r9bagy0csZjbyz/+HCTj/X7fIzslZ9tLYsNuEs+m/nbY5/tqxtgv/sASZUxZ/nGZcmCUZeEknJDeqEiTUhJ+a5W2NdeebfN4svTCiAAgHObm86fPNdCZK5YOTsQM6PQAIXaxOwilQQM9t8ms+cWZMdHKbRqMQZc984cqrhG6zMW5UQhlqtnjpcDdNX8TKPUN9Baf+z8fVNxYdGyHJ4fyvQSAg3ibmznpaqraOKW9CmKp1MdojEtKtNe//I3hzqtNMs92sD+lrojl4g33lw8m0LsNw58/Gn5jI82mojomQsWq5jGSntq2er5CgTylaogAYTiAsOc5auTvM7++n//rabDwQUeCzCSipu74sczvI8GQZQvVEYHrIwQI0RyQgQAALSdoWmGE1OypxbGsn6GZtgAswEYnQaeRKOXKNlmpaxbPCU+KS1VjQAAOFdD/aV2aJyflZ87nUKciv5bH11vbEmN00kAADSqmWEyZWbFSjHAchAJlsI4252bbeTUhXrJyHoDRbppSSqbikDZEbM5jh+blZeZohNijLRBsPtyi81v0kqj4yWkXoyKdElpaVFjpTCI4tSUJCrGZ+/uqRorWSA4oTAkKwxjDHt+Yb7+B43X6u+DxNIs7aOdhXzF1JzFynREpAisN8hJ6VkdQ73dVkysUcokfAQBYr1eCasHB5weGuAAQCpKp5KIcAQCECwQAACAcwwMeMVGioeFWPURud4g4yEQAEwoIVmPm+ZCLwcvAJ/NfL1i597a/qeSUmzua5tWpoyelIZB2ztunD9+toWctfzVDDX/8UiER8rUpCyoxtBpgARBYIzLyzAMB3DIedxeP4rzURQBAACIoljQEBihlIcD2ufjuGCZYcQEHIPD2w4BBE9mDesLVUrIwEgqoWDNW2m+x3pQHinXBTuuM0OdDdVHj9/wp5S+VpQ87m7BOGgQxadMw442NdxNMqpisfaa2lZcW6BXSvlwaHw6EcpgkPZ2dNi909Viwf9xeoc8iRjrbWtzsFoJZFkOQcJzFUBwQh4zQx4T6njGYW48V3Gk1h63YPnceAqjPW4O4/Hw4bTAMV6Xy8MghFjED2Rf6DQAVJFetmLwWNWZT3532MvxJPr0kqXZ0zQCBIyTBsBPyMtV/KWu3pwdTQmE3zkO23tp766qVltno9kM9vypt4LQz9/0RlF0MEGEaena2E93vLvlS7HMuGjL1lf1E9GzYgY779QcPXLyFiu721DJQwAUGTPnrdm40iSBAHC2+9crK6v7DGUbliQJAwRUwH4D57V297gQsUwuI/FHH1mfY6Cvb9DupgFGShUqhZTkoRDQ1q5OB6ZQykVEaNme85pr/vHhfmvelp8uTFQNRzDns5o7+10Mw3gZDuNhCCTkep2CD6ztLVaBwaAkEAgAM/ig2UrGGVXDuZfzDnR2WOw+gGICRYxBOdaVifPZu8/89Z0D6u07NyePwwWDC6Vdtt6uzn73k4MVIZZHRWvEGACc58HlY4eP3RAufGdjvjqQlwQ0BfJl2phn6wrCEyl1IqXumc+4TGcMXoKeE67JWr1+8KuD/zpIrlv7SrycQCHkyXSxo0mhpkynnthLGRKppwXJ9VPlY+rjOL/X6cGEAs4zcOf2Q78yTR7GlwyIkzJdvOzZXRmG3261eYBgWmZykIPSBHbfOMbZ191HkyqVTICH9HTx4qpoV8+F3X/Yf9PlB4hAHp+3ZuOqDFW4gmEs3U673eGGErU8SBl8OZqgHEvbLQ96HH4OoDgpUapU4h/glXIceDloiHhE0GPvy4xJGiICkzREBCZpiAhM0hARmDAafE1fvffe7hqz3Tfyu7+79rPtv/jJ6+t+tGHb7nqb1/8iwlna2fDFts1/r3eHw9Tn4be1Xyvfsf2T053BmgjjwA9zhxlNsToxv4A1ip7p+9NNFf/8r2vOL3+dpyMgXyXCx/ITbuj2gfd3Nee8va007vEzNERwTWphsVfHCzbV7x5oOb1nzwkzJtfPXvNmid555/S+cnfp1rUziOBKEUKsnZ6Rq9JIw3T7mDAaEHlycRHH4+MjaODc5naLwJicYJiiECBgzAa433z8gz+eVG/6fWHM089JEMWVKfNKuaD/7aDdtnsXq3pT1r2V2lXx+aGz09cKq885k9428sc0HvIkmoSZcj/CDxMN/wO98TWMeKhgOgAAAABJRU5ErkJggg==;" parent="1" vertex="1">
                    <mxGeometry x="455" y="1818.5" width="130" height="31" as="geometry"/>
                </mxCell>
                <mxCell id="128" style="edgeStyle=none;html=1;exitX=0.75;exitY=1;exitDx=0;exitDy=0;entryX=0.329;entryY=0.008;entryDx=0;entryDy=0;entryPerimeter=0;" parent="1" source="114" target="124" edge="1">
                    <mxGeometry relative="1" as="geometry"/>
                </mxCell>
                <mxCell id="136" style="edgeStyle=none;html=1;exitX=0.25;exitY=1;exitDx=0;exitDy=0;entryX=1;entryY=0;entryDx=0;entryDy=0;" parent="1" source="114" edge="1">
                    <mxGeometry relative="1" as="geometry">
                        <mxPoint x="449.73" y="2044" as="targetPoint"/>
                    </mxGeometry>
                </mxCell>
                <mxCell id="114" value="" style="rounded=1;whiteSpace=wrap;html=1;strokeWidth=3;" parent="1" vertex="1">
                    <mxGeometry x="427.23" y="1924" width="205" height="60" as="geometry"/>
                </mxCell>
                <mxCell id="115" value="&lt;font color=&quot;#ff3333&quot;&gt;false&lt;/font&gt;" style="text;html=1;strokeColor=none;fillColor=none;align=center;verticalAlign=middle;whiteSpace=wrap;rounded=0;strokeWidth=4;fontColor=#FFFFFF;" parent="1" vertex="1">
                    <mxGeometry x="400.26" y="2009" width="60" height="30" as="geometry"/>
                </mxCell>
                <mxCell id="116" value="&lt;font color=&quot;#66ff66&quot;&gt;true&lt;/font&gt;" style="text;html=1;strokeColor=none;fillColor=none;align=center;verticalAlign=middle;whiteSpace=wrap;rounded=0;strokeWidth=4;fontColor=#FF3333;" parent="1" vertex="1">
                    <mxGeometry x="582" y="2004" width="60" height="30" as="geometry"/>
                </mxCell>
                <mxCell id="117" value="b3" style="text;html=1;strokeColor=none;fillColor=none;align=center;verticalAlign=middle;whiteSpace=wrap;rounded=0;strokeWidth=3;" parent="1" vertex="1">
                    <mxGeometry x="619.73" y="1907" width="60" height="30" as="geometry"/>
                </mxCell>
                <mxCell id="120" value="" style="shape=image;verticalLabelPosition=bottom;labelBackgroundColor=default;verticalAlign=top;aspect=fixed;imageAspect=0;image=data:image/png,iVBORw0KGgoAAAANSUhEUgAAAGIAAAAYCAIAAACOfr/+AAAACXBIWXMAAA7EAAAOxAGVKw4bAAAExUlEQVRYhe2YXUxbVRzAz/1oby/9uLdf9ItuBcY66zYGbAjDsSIhuAFzMpbo1CXO+OCTmkXjizEmPqpxL6ImmjhNzNQxJVBZ2QxFJggbWQc4hmmBOr5q1w3o6Mdt7/FBGIXR29uFzUz7e7rJ/f/v/9zfOf9zbosEAiGQJhnovz2Ah4O0Jl6kNfEirYkX/DTBgLu75dS3tr6J8H0eT1zN4LXWz774sW/cH4YPrGgicF5RCE7KFGo1IiWw+zye+JoSuUYLZYQAQ3gnRVytjT+ErUerLSqxIEEaGxj9tdXm6Hf7Q7g8t6TuSO02pQDlrsGz6QhVbn7xru3Zcn5aAQAAMPNTwyNjk77b97gY8Mx86+M7TCox76mBgUF72yiUSXGcQ23EO3zVS22vOthwqFw12tT4zaW5GJtsLNy3menfuxznO4ZuRMILmL6wcl+NdbM02eTCyK3rQ72djkvjkaySmkql0Gk703ZhcCq45AvTlx5qqNy5SZWgOlwYOX/a1jPk8oqLn31hf9FGpZDPgmK9PfZ+Mv+lLSqJkGP6hZqiffUYrabFWNjgaWn6+Q9/dBeFAwQAAEKDJ9896at+4zWrOv4RSTRhtMFSWq2yLFzvtXV6PN75KAQg8ZDZ0I3xK785upzTMdr0yO7q3ByTUZkhIAueOGAoDMaWwhBSZdRIEy8ShNBu3bNPLvz6RJfXH2CSTfUiEXdHu8dQUpetEONcVlFxZpZ48XLu5i2RViPFkKUEBImGbjMQWfWAJJpQEaXZQGkAkzHdf3n6Bncw+9dA26nTdjeZb7WWF+ZlqWixCEcBAIQuV67jzl0JJtOaZDKvVnoxyjcFzjnPO4Lm+nwdLeK3mcH5wdNfdSvrXi+glhOEObWvHo/K6dQ0pQQi21hQVh4AfcMXO+yBhYrynWY9RaDQd9n2va1zYHK56bLKDh+uKs5L1HT3ADvTbXdKCl/copZyNdwdYNBla/y4W17/8oGt8Rs4Qmaacu4OX1dNBG3cWlarN++aHB0ZGmj+vIc0l9dWFJmyi55sMJWG4ppOYdDJ1vPQDLt+OTdh2H1wgyLhARcHDI6dbTxxNrbn+eeqLGoyySkHwPpqAgCgApLWGCmlWm/cZJkad82SGIwJKa2J0q5voRXAOWf7hfCWp7braFFS+TDkOffpB82zOw49s9eswCOhhShOkMLFPBie9c0CmZoiVrhbZ03/gOAiqUovkat04Rgm4HVKxcNO937X5BgYd10d+ZMNfOLuVGy2HmnYk6eRrO0gNtNjvyIpOJbHq+Giw81f2vvczKjP1S5AEQBQ/f533jucR2AIAKzf8dHxFuNbHx6zrDDDVxMEECBch9zdIJgwIyOF+OVEuXlvXWZRKMIwMYBiGIaStI4mExpA5TuPvvmoRJcp4TzhFsFzn377fSvDwjufc4TKsLQ7RcecPT7lXsPq+eDUxDIRhoWoEGdmJiZnAlFaJhE9gB+BCEFpjVQq8YoNa2y7iaKlBrPFsPY9dmLwmqTilSLZat0Ix99ycMHT295y5ifnDAMElOmxqpoa6zYtmWoPPUTAkHdsCtGb1MSql+TSBNjwvN/vuxmIQERASmi5gub8vP0Pw6kpzRL/z8WRMmlNvEhr4kVaEy/+BpOhnk6t4UhgAAAAAElFTkSuQmCC;" parent="1" vertex="1">
                    <mxGeometry x="488.26" y="1937" width="98" height="24" as="geometry"/>
                </mxCell>
                <mxCell id="121" value="" style="rounded=1;whiteSpace=wrap;html=1;strokeWidth=3;" parent="1" vertex="1">
                    <mxGeometry x="689" y="990" width="120" height="60" as="geometry"/>
                </mxCell>
                <mxCell id="122" value="" style="shape=image;verticalLabelPosition=bottom;labelBackgroundColor=default;verticalAlign=top;aspect=fixed;imageAspect=0;image=data:image/png,iVBORw0KGgoAAAANSUhEUgAAACoAAAAWCAIAAAA5GZnaAAAACXBIWXMAAA7EAAAOxAGVKw4bAAACs0lEQVRIie2Vy08TURTG53ZaWrC0UgIUKqAQEkdRECVV0YULAU1AEk1MTEjcGDYa486FmvgPuHHtwoXBhBg2gIaXpkKLUltLeT+KbZ0WpqUzbZl2Hp25Lnx1Cq2vAC74lvfLOb/5zpzkgHiMQXZOsh1k7+IzunyUcNlHTHYfC3cAD0UmSnjmZt1U4h8QYszveDNsda0xvPhHeKDQ6g+ebGw6VZ4NJJ/FMxF8yrZMpc4EQs7vMM+HRCTZScSCrvFX3f02T5hJSEvS4hN00Os0vzaZ7Qu+YFSQUtgI4ejrGvOnpIGiSE92Pxn2SCAyTeW5yy0Ybenpt+NhRtIqHR6KbCyEz1lNL7uedQ4uMlBqClyMDES4DRshivHgKslCJCWkFmu8dJQeG7J9ouJ8kidPgwdZurKapmv5RYUvng/9eBWYCLE04fSSpH/WR0XfDQwSKlURZqwugNTiuNW9LqxPBeK4dXiARNECrKHGoJJ/DQhysbPHcgbts8SZqkK1Av0FfnMJLL268GHUHqApPBBmJizmlWwNll93OB+hXLbRsZDAekIMNWm2rKBo5d7j1SVKOfJtbRSGcoP41k9wLA8RFPwNPktbXNt2u7Yl4p/rf/xo7eqDjprvDSou3HrYLPCh3juTU+337tYrQcp/BXIFCoSEAOFvDD+jgFyZW4zVqrUg5R3IsoqOGPk8GQI2FAmhAClqKrQKhfynmQYPOZoK4m6va969SoaRJaddq9MU7KvUqwGCILIcXWlD+82NZTI019hx37hpQ8LhXMmrOl+crUpipkvPkL7pkV7Lcpxh9+Qh80M9wcL99RcP6NVomoKMgtzazIAJ159uPqRTq5ImA7b+4EIu/Plj39POmbIrN9pOGDTKpKXYhpMDac/7EW9p6/XWuhIJG9mW9Jn0Xx/cXfyW6gtlE0err9EDWQAAAABJRU5ErkJggg==;" parent="1" vertex="1">
                    <mxGeometry x="709.5" y="1009" width="42" height="22" as="geometry"/>
                </mxCell>
                <mxCell id="131" style="edgeStyle=none;html=1;exitX=0.75;exitY=1;exitDx=0;exitDy=0;entryX=0.5;entryY=0;entryDx=0;entryDy=0;" parent="1" source="124" target="130" edge="1">
                    <mxGeometry relative="1" as="geometry"/>
                </mxCell>
                <mxCell id="124" value="" style="rounded=1;whiteSpace=wrap;html=1;strokeWidth=3;" parent="1" vertex="1">
                    <mxGeometry x="509.5" y="2064" width="205" height="60" as="geometry"/>
                </mxCell>
                <mxCell id="125" value="&lt;font color=&quot;#ff3333&quot;&gt;false&lt;/font&gt;" style="text;html=1;strokeColor=none;fillColor=none;align=center;verticalAlign=middle;whiteSpace=wrap;rounded=0;strokeWidth=4;fontColor=#FFFFFF;" parent="1" vertex="1">
                    <mxGeometry x="488.26" y="2134" width="60" height="30" as="geometry"/>
                </mxCell>
                <mxCell id="126" value="&lt;font color=&quot;#66ff66&quot;&gt;true&lt;/font&gt;" style="text;html=1;strokeColor=none;fillColor=none;align=center;verticalAlign=middle;whiteSpace=wrap;rounded=0;strokeWidth=4;fontColor=#FF3333;" parent="1" vertex="1">
                    <mxGeometry x="692" y="2144" width="60" height="30" as="geometry"/>
                </mxCell>
                <mxCell id="129" value="" style="shape=image;verticalLabelPosition=bottom;labelBackgroundColor=default;verticalAlign=top;aspect=fixed;imageAspect=0;image=data:image/png,iVBORw0KGgoAAAANSUhEUgAAAH8AAAAfCAIAAABBK4UeAAAACXBIWXMAAA7EAAAOxAGVKw4bAAAKDUlEQVRoge1aeXRTVRq/b8vWNEtT0qalbbrRfbGW3QICYtUKRUWkIx3h6Mg4ojOKcxwGZBiXg4znuCDqqCCihToCpVhEpyKF0rI1QJHW7oQm6ZKkafbl5b135w9oD9j3AhZKcU5//+W+797v+353Od/93SBOpxcMBbRUrHt+b9q/PlkcjlzZTDqOffXeQf+MZ5flyREAafO21auYhe8snyID9uoXHy7J++KDheGot+nAmi87ip4tzgkPZhn8KlAX6nbt2G+f/6cnM0JRlkAY2mkxWj305d8IIlao5EIWSwCgo3H3mo3Hpz23akFWmABD2GwCw1e59uE9qR9uXhLF6gAAwPjd1j5T29nq7w434BkFf3xostBrMjnoQQO+XKUUY5weXEefm/fx7K+3FUagAACc3QiRJSUp2+rOOh7NlwxkAWmKJP0UzTA0Rfr8FA+/7GRImrgoSOgyNhsdaXIeQHE+wR3NtYCgWHCo6ppzCAB0tFT8bf1/k55/5e4o3GHpJ4PEYiEPRQCkKVufiRLIQyQCLk6vHyghCgmPmZQfkzuj92y7kwBAIFNFya6jJ2QoimZIPwMZyk+SfhzHcQ72ARo398GJZTvLz09eki7HEQAAYz6+/e2KVrfD7gYVb2k1M5c+8UAioYxOYMQ4AABgkpiUWDkPAQDg4+947N6O7Z++UU3Ipj6y8ndTwwKnDQHLFP5KkBcbO2gxefzDNccBAKhs8qPFxfNyZATwWC6UvLtJMOeF4tnqa7EPr98fKgrLyQi7fnto1x7YU36sWe9NFFVtfq0lLmt+YSHCfvIAAIDfULXl0xp8zuKFk+IVvBtlZ0g0tN8PcALxNfyw7euTwqKVxUnSm+0DAACA5WLVZ1s101esnKLiccXC0DREMITs3vHS0/X3btlYoByRUIaAa+0DAIjImb9fKtHYRiYQ0lD3+TenrC6v203GTF4QHjRS+Qql6rnzx8cpuagHgPZoz1R9f7jJ5nMahbMW5MhvDfUAgABrf2TBuEwdOpOHgoRIFh4eJhXhtyznXwJSTkuvocdKAkwkD49WyYhbFcqosT8GAMCNVwFjGD7G2B9NjLE/mhhjfzQRiH2f5v2//KNMz1zRRJMdR0tWPfn4oqIVmw4bfqUvuuWL51/YWk8OI0wOuE9semZtmYG5tuXtCWz16jVc31ChWKqMjY+QDhaDpMtY8eV24bzVr72w+M4YKY5ylWaQsrWUvPrqV/bE6ckhA90RfrA0JGqCWiFg70Z17V3/4us7Kxu6kLgk+amP3tztS56uDqQyYKJgiVKdGCkdgXIVkr31Wza88vcNH5Qf04qiU+KUQSgCoLNl67r1tUxiulpOcKZ/CUzfuX2vrV3/0Xeu3PxsOds657htQW+vVme0kxIJMdBE23s6L3S2dpo9QW5zaxseERcpwNm3Du0yfLttZ3Na8bqFCfzLqdj0uh6LXRCi5NxttK6mRDv1jTfzTv6n9MgBazuVUZyj4LCl7MaebrPdT1MyEUpxjQj8prYmvXNgayD88Ph4JWHraDI4BzQFhDcuKSVCOJRGqq+qdFdjxGOl+/O6Dm3dUVYWFbE8S4Ej4gmPrlz6+SdffCN9unBiBD/A2cGYa/dVOmes2/l4Mtedlot9l67h7IljZT9a899+rzgaAwDQlo7zmnMtOpOd31BXa4+dEa5UCAi2zlRP/dEaa2TRkhT+YJvH0lR/qrZie2PmGyV/zmX1ispiJ0VUnag9baPQ/jZj/PR8lYjjggr9Fn2Lpl7r6Kk7oIn9Z+lLmawjQp/hXM1hnX/QQW5olELcffrIke7BGZFmRyazsM/Y9T/p+VOWpckIAk2dojy1p1Nvy1QoEADEyrS7cjXlNdW6pIcTZAHEApr0oyGh0gAWHJ9QRW7BoqyQpqMlg0089bQHi1I7SN0FWcHSxTncogxtb2/VBY3PHS8RDLYh0th7HoqJ7Nn/Kvepj8izli1Hmno9boQ830tkJ0fxuLRRRKjOma3OAVQTXXPayj2iOPuhFdm/bM1YvDKDs8sAoNvpAIRMhAMACELAw6DL5YEAIAAguCBCnYBqNAajI17GIUtA2m3u0vUz4gBqc0CdZ5iAlNfm8ItUYoLjXOIGEZp459QI46F9ZzBKcPDLd/dgcY8sX5QiGe6hDq2Vb63d0ey7/BMNK1i16n75mbfX7GgdEOSx0HvWvb4oaghFCIaiADIQAAAghBACFB1MBxUFBROI3+XxQlZxlnE1Hi7d/O8fPMn3/zVVGiDAm88+gmEEjvi9FBxWKdLf29jUbuwHYUmzCud1bN5YmvHJH1KG+T6AyOa++M7sK2RjBMVQZObLH+Rd3cbWNViuxHy9NhIA4PM5vCQqkYqveOmgGAbgGMcLDhqUMuPx9ZHRmzaWH+y4LzmEz2oFuCpO2mPr6TLoTS7Sa+3SdxmtLur6pW9MEhUl7TcYbJ6BAxdAn8PSbdD32EjSYdQbui0OL/vUMO6fq6pAZn5OZBBOuUk0SMhDbqScQVDsSqAIR9vQjkHqablizf4fT7e0nDh80CbOmBAdfNkS+s29OhJXKBWcxy+C8UMT0jMjUZPZz2ECAAf70NPzc+W35XubxanR7uq9FbUNOhcFAAAYT5yYlRsTElAERITx2RNV7uZDjd0D+5vua9Mc2Fdex2SmoY1leyvPdJhI1umkTE488567J92Vl84zt9T57nyqIPFa59fICJKIMOP+osVJrv07Ss/7kgofy48d0MBJe1f96daQ5Ikx4zgX9aUhMAy63d4AC3dkNE7o1Z38ruSHztQFRfelh7IWRjcChqZoCHCM7vl+w3NfR7z58VNxw3+7/HWApKl6V8kpV1zBwnsnhPIDzTx0/1zx2ZY674TU6QsXTRnHtohGTGGm3d3tWodUnRAmutlqBrReOL171+6fur0URaQveOaJ2TEc97cRAO3St11kQmPHK9if9q8E5TJrtQY7VCSljWd9PfpN6vsMRbpcTpICCEYEBYv5w/n7wm2B3yT7/zcY0zhHE2PsjybG2B9NjLE/mrgN2b8kq4ysC5e+7v2Xl82ZPXfuIxvq3Ow2XdXbVhTNnzZ51jvHb+KD0FW4+TrPDYJ29Byq/JaMK7wvWzFShSR0NdXVdoU+8FnZfBWPQYWsRkhE3hMfTZv1/pJl3O8HN4pbxD60dR674E+UORraTH6eLCE5Va0Mgu7e82cbumx+njwyNSUhTCpgLO01xzVHjmoEfaG4WRKWNi1zHNC1/OQMTkyJkiLQ1VJ9hEyalx7G9La19mFCxKTX9ftE42LS0mMp7bmLlAhYeu1+yJNGpiTHKkQs2dGksfGk5sQ5rdXDnKo9IlOlzcxW0R5rZ1tzW1c/yaBS1YSsdHUwBzH+fu2Z+lazh8b4sri01DilBAO0+WJDQ2u3GwjCE9Iz1YpL1w/oNtbXt/Pi70hVCtjHAuB/7b88xroueRoAAAAASUVORK5CYII=;" parent="1" vertex="1">
                    <mxGeometry x="565" y="2078.5" width="127" height="31" as="geometry"/>
                </mxCell>
                <mxCell id="130" value="" style="rounded=1;whiteSpace=wrap;html=1;strokeWidth=3;" parent="1" vertex="1">
                    <mxGeometry x="642" y="2194" width="120" height="60" as="geometry"/>
                </mxCell>
                <mxCell id="132" value="" style="shape=image;verticalLabelPosition=bottom;labelBackgroundColor=default;verticalAlign=top;aspect=fixed;imageAspect=0;image=data:image/png,iVBORw0KGgoAAAANSUhEUgAAAGoAAAAVCAIAAAAhN+zUAAAACXBIWXMAAA7EAAAOxAGVKw4bAAAF6ElEQVRYhe2Ya2xTZRjHn/ec09Ozrte169pt3bqt22AbVzGb6ALjzjCIwYiYeEEJ4BejCR8M8RL5pMYIJoiIEhSMMBxB8M5NZTAmbGPlvhts69qta9dubc/p5fS8rx8Ag2FQwgZG09/nJ8/zP//zvM/z5kWhUAQeIDge4/lQLA6IlqWqlHIaPcjqYw56wPb9z6D+bQH/bZL2jYqkfaMiad+oGFv7CCGEjGnGW0vwvY2b3lgxe9acOU+91yiMHOOq+3LNs4unl8/c2BC7r2qYMcwlBft/O/RTLH/Jwsn6+3UfIfzlxnqXYdH2fYvNLKZSRgxCmZUvbpk+c9PyFfH7JOMGie0jwz0nr4qF2uCFDo/Iam3jSqzGVCK4z7dccA2LrC6rZLwtQ8NhX+eJhqZjx5u4QQPjVWeUTp+YDo62cyFV4XiLBhG+re5YrHheWQZ2d7QP0inI0+vwRxXpuaVlefGus91xBfjcAZGwmqzx4/L0ihGESbGBi6ea/jzbNRTGp+uPac2lMyabpfBQT0drh8sfw5TGXDSpzKq6zTeJ/q4z9nZvWKLl2vzSknyjmgbJ233hQnufAJzJVjbRqr92DSXCgN3eyRZMKTFydzYn8eGV3Ge2b/3sm6OtvhAfDIUiogTS4Mld23af6Boc9p6v+7H2aIsvjEESBZ4PBkORiCAIQkTEOBZqPlx70O6WAAAP/b71g187YkAincf3b/l8z+keH8/zoSAvYvHKHzUffrr30iDP+3pP/Pzdb/beyEgjgBApGo5GYvG4GBUEIRyVAABHgg5Hd78vEPC07v9i8+G20MjTg4Saaj6pbXQHgoGBPvdgKIIBov0Nu3ccsLv8PkdL7faaBs/1ZiVC38lDR5v7wwnNuavDiwPEVDl3sS2NBkwIwr2/fH0oWP3Ra9UmmbO+duPhZmdFmd487rFKdLWtzVQ574nJegQgCSNPJgAxnFJcNXehRcNijBGKXSUYp5Uuql6owwOsf8e5K73CNCsnu0Wr3Dxt9oyItysqTJi/aJaRQwBA1KZpMx8vZzkWAlz7Knub94kS5UijgwSd7U720ecfqypI42iGYRBuPbLrHFO9ftl8A3HVvPtOTf2T05eYEQClLVy68iVaqxob+yiVuTBLzSAAoBCCsNvZ423e9MpzWxFgMcxrKpaKYsIkNzUFMmTlGBQyAKAoCggAUHpLrlaGUJyRyxkSj+O7XUAkNuys+77212ZHlIDfIVgn3kYJUlat3RDbvXPD2m9TJy9Z80L1+Ay5s7W15XjXy6e2IcDRYFBn8WEw0wDAKIyZirspf3erAyF00w+V6QyGjBmrN6+tUMuASBJGDE1fiwMgkoQJAAIAhGiE4mJMIgTCfX2DWHVTPvhnh6B7uwJIwbN/7DvSY1z99quFmuj361ecum0oIVz2glVvzXm6o3bz1pqDWa8vKzdaLFOXrnx/dYWKARyXCC2jbwRjiQBFUYk24L1sXsZasfyhUwe+2h8oTWfiYZReXF6ap5QjllMYlExb0/G6WHambZJNy2VlG+vPHzuoGZT1n7kC1KR7KJYASp6i4vDQpZZGD3Ha3TSaAIDD/V3dLm9nX0SS2publIac3Jz01KHGXxqG1ToF4nk2zZSmZBBtW/BM7pYje34IWjWMyBNLZVWZlgYAHHD+ecaZMXVKvoq9c3l63bo3EygkhHD6cUUW1d+vI5Qyf0JxasDR2e30R5DWnJuToZHRiGY5g17FDzj7PCF5VlGuPkWdbpJHvQ6Xj8oqX/hwpsk2KUdDEYKUprwCs+Z6PgSAQWkuKM5UIQACjCYjO8esk92mHwmhVUaLNTONpQAomVpn4OL+XpcnzBXMnlmabsrPM2DH5YuXu30KS3GaLMKLoE836ZRouKfjcpfD7Y/qCqbNfqTEkCpj1LlF2ayn+2qvezjO6W1FVh2LAEjg0pGPa+z55VMtygT2JV9cbiXW+tPOvZ7c1cuq9Bx959CkfbdCoqFAGOTqVC7h7EvaNyqSTwajImnfqEjaNyr+AqVEp4qyhOmNAAAAAElFTkSuQmCC;" parent="1" vertex="1">
                    <mxGeometry x="650.26" y="2213.5" width="106" height="21" as="geometry"/>
                </mxCell>
                <mxCell id="133" value="" style="endArrow=classic;html=1;exitX=0.25;exitY=1;exitDx=0;exitDy=0;entryX=0;entryY=0.5;entryDx=0;entryDy=0;" parent="1" source="124" target="114" edge="1">
                    <mxGeometry width="50" height="50" relative="1" as="geometry">
                        <mxPoint x="219.73" y="1834" as="sourcePoint"/>
                        <mxPoint x="269.73" y="1784" as="targetPoint"/>
                        <Array as="points">
                            <mxPoint x="539.73" y="2244"/>
                            <mxPoint x="329.73" y="2244"/>
                            <mxPoint x="329.73" y="1954"/>
                        </Array>
                    </mxGeometry>
                </mxCell>
                <mxCell id="137" value="b4" style="text;html=1;align=center;verticalAlign=middle;resizable=0;points=[];autosize=1;strokeColor=none;fillColor=none;" parent="1" vertex="1">
                    <mxGeometry x="699.73" y="2039" width="40" height="30" as="geometry"/>
                </mxCell>
                <mxCell id="138" value="b5" style="text;html=1;align=center;verticalAlign=middle;resizable=0;points=[];autosize=1;strokeColor=none;fillColor=none;" parent="1" vertex="1">
                    <mxGeometry x="759.73" y="2179" width="40" height="30" as="geometry"/>
                </mxCell>
                <mxCell id="139" value="b6" style="text;html=1;align=center;verticalAlign=middle;resizable=0;points=[];autosize=1;strokeColor=none;fillColor=none;" parent="1" vertex="1">
                    <mxGeometry x="469.5" y="2198" width="40" height="30" as="geometry"/>
                </mxCell>
                <mxCell id="141" value="b2" style="text;html=1;align=center;verticalAlign=middle;resizable=0;points=[];autosize=1;strokeColor=none;fillColor=none;" parent="1" vertex="1">
                    <mxGeometry x="609.73" y="1811" width="40" height="30" as="geometry"/>
                </mxCell>
                <mxCell id="142" value="" style="rounded=1;whiteSpace=wrap;html=1;strokeWidth=3;" parent="1" vertex="1">
                    <mxGeometry x="130" y="2186" width="120" height="60" as="geometry"/>
                </mxCell>
                <mxCell id="143" value="" style="shape=image;verticalLabelPosition=bottom;labelBackgroundColor=default;verticalAlign=top;aspect=fixed;imageAspect=0;image=data:image/png,iVBORw0KGgoAAAANSUhEUgAAAGIAAAAYCAIAAACOfr/+AAAACXBIWXMAAA7EAAAOxAGVKw4bAAAF50lEQVRYhe2YeVATVxjA39tkc26OJSGJAeRQDgFBPJAbCrRQ0HqAlbaK7dg6nan9Q62djuPUOlOr02PUqdbWasd2HBBrocWKKIJSUStKQEQRFSFyNCQECAkhZDf7+odHy9nQ0XE6ze/v733ve7/39tu3Cy0WG3DxT2DPuoD/Bi5NTuHS5BQuTU7h0uQU7GddwCRg7NY+k9nuQCwOISUJHI4RQ1n7esw2AHER6SYYM+Jf8WQ02fu79VYkk7vzn6L2IW1VwZ7jjRifp/ZPXL4iRY2PjkHGayXfllxuanUs27xzUeAYEf+OJ7IsWn/zUokWz8xI8xA9sQ0cCdNTe7GBH7dma1YAoB1w7MKhKvrVjcEz9nz43ZOdfAJNTEfFoSIUG6o/c7HZJA1Jynp+vpJgmduqiwrL7/YiRXBcdma0ko8ay/OOnjh/w4i3NtUKeT6L1+ZMt9w9eaHRb27iTC+JY7D9VEGpPPX1+fK2wu/rvZMltcWXOiky8oWMpAhFY94ejXQW1nJdP4gpZyYuTpop5bFGVULrW2vKissqNM39fxzecUc8NTI7J9lnSHfzdGm55p6RwcWhsS+mxQdLxz49SHf9VOHJq50WB98taMHKxeEyLj1g0FSWVNS0WnFl1MLl6SHkgybN6H7ffaB6zptrE1TDuvYEmpBZqzn6SwOx/u3cBAFgCyVcDNhvH/50/0DqO6syHOfyC/axFVuWBvpGpiYYuqk2ZVZ2qlrIlfAArTc23bpNBEQBAByU6U59nT2SQWTvrfM/HtNlvJebm45DLiHBAa1rOHvEgH+0KSelT3Mw/+RFf6+MabJRlbDIKaHpL+NmrUEfm7U6RoULSDaAAONIA+NXJCtsrb/lFx+RqN9PCyLGOMxMV2leIZO4fk0wp0dndRewgMPWVFV0vBZLy85115dt37KDu3d7ivKBF8egyUqPyjHxQ4dov9Ts+IDHk1NXik8bQrY8F6TGUXwYueG8pn9JkFRMukkIYZ9UoVCpRBAAMDBuQt68pctm+z7adGQBAHrEZEb5TWEN+nuxq9u7bWDa6FEQ5wpl7nIRn2chFSqV6mHp7n4xUtrBIBs+15es6+kxA0CMMScUEviApv5Gz4ykwAhvHs6iB/oa6m5IgleH+ajwqemxwtzKGkNyhhICgKliN30WOzrHxJognyR5f9sgu8ls0DV8ufk+HwDA0J5TQmkEwMTtCFE0jR7lE8vIEdGYWEpgAAAIIUQIoJHDx4OxddRW/FxRb7QjSFtb2gdTxl2EaMG6T8QnivJ3b8M8olauWjSd57DoWyqv7W05K4AAMER4uICZeB2Ta+E8v5Awb7Bk/boETwLYzBYklGEAIMjCsCGb1U47AGIhCFk4h8PYjP1WmqF6W6619qIxjshfy5hUCY+wd1WVVuqmZm1+bd7Avaqvv/lp3EhktdLSxFfejUut2bv1QHFjysZ5XM8ZEdFhKauzo+Uch8VkYUnlD1sRQ1kHaVzAH3GXmJwmlnfqivTOM4f3XYYQ4/ADknOy5ygB5Kp8pkuqyw991SGTBS58I9OXVM/yFZ369VBzlUTAZQvlT+GawBb5+ntc1ZTs3nVZxMcdBMkCANg7y4+V3ezW1mnb244dNIZHvJQ0W843VOYVNA5CDFL9itBUbx6Ly50Vl3z/RNX+XRcgxLhi/4WrlgSJIACAajm3s8CYvSEnkDtsNjj+jxQ0aNBqKXmgelhfpG19uk59v42GbJ6bylMp5gAAGMrare8y9g9BtthzmprAGFt/j67LOEADgUQuAAM46eXGtXa2GHFPL3fu43yOvrZmk9DX2w0HjE3f0Y1IhZLgjFPOUHeHnhYrVeIHAchuNnZ2Ga0U5BMSAYdhC+QyIdV1X2eiaJqiMTYHF0o9FG48tr1L29ZjpRBk8yVyDxXJwSByDJm69fpeM8VgHAGp9lIKWQAA1H7847cqgn/4Ist9+OfJBJr+fyBz+efbrsRs/CB25NvWpckpXJ++TuHS5BQuTU7h0uQULk1O4dLkFH8C89BYCrqjk/oAAAAASUVORK5CYII=;" parent="1" vertex="1">
                    <mxGeometry x="144.73000000000002" y="2204" width="98" height="24" as="geometry"/>
                </mxCell>
                <mxCell id="195" style="edgeStyle=none;html=1;exitX=0.5;exitY=1;exitDx=0;exitDy=0;entryX=0.831;entryY=0.006;entryDx=0;entryDy=0;entryPerimeter=0;" parent="1" source="147" target="105" edge="1">
                    <mxGeometry relative="1" as="geometry"/>
                </mxCell>
                <mxCell id="147" value="" style="shape=image;verticalLabelPosition=bottom;labelBackgroundColor=default;verticalAlign=top;aspect=fixed;imageAspect=0;image=data:image/png,iVBORw0KGgoAAAANSUhEUgAAAiwAAAAcCAIAAADN8HM6AAAACXBIWXMAAA7EAAAOxAGVKw4bAAAgAElEQVR4nO19d3Ac2Xnne52npycHzAwmIQODQIBgThu04gbtriRLsmRpLUs6Wb5y3V2dLdt3VyqXfXe6qrPPJ7vOp7MlWS7bkiztSqtdLbWBXC65XGYiEACRgcEAmAEwOc/0dE93v/sDAAmAAAiQ4Eb+CmEG0+GF7/t+7wuvAfP5EniAB/hoAgKAVrze/tl3cdb7HnCdV+9voHX/dttf1ztsJVZ2907HbnzmRwF3Hp3tjB9x9w15gAf4IOKmwdienbntMh9kwwM/XGZzvc6s7SJacxhCaz7dikBscdTW3uvDhZ1lIPCAhB7gIwS43tsPrwP0IWOae8TasVixiFjFGeje1ibr3usjhe2P3wMSeoAH2CoW6WeNidkBo3VvgDd/vO+wxbF5jxu/6varyWn51Xs+ye8X3GEg7mqcHpDQA3zYsRMmbl36ufkRWp1dun94d/nmfhic+3Kl+zQsK5JjD5gJgPsm4Q9I6AE+pNgho7QJ/dx+5A5qKVzze+exI6Z/hy6H1rvilq+7fkYHrnm3MyN5OzMt3R2tOerDRlH3rz87TEKKVBJS4ZCgs5k1HEPcNu2ykMukU6lsSZZk2uiy61mKxlYdgUqpeLokANZcoWPuUWwQn01k8jygrRUmeqeUGQEg5SKRdIEvljGS1ZjsVt17TeVIkUqJUFTSaLVavZp8j6MbSqmYzabSEm23GyiIv3sLdwUVoqE0oDRag56l7vl626KflS/uTl03YR1ZKBTT8QXZ6LKwDLnFEUUAyOVSIRON8ZzToqXWUccdBQQAyIKQT87GobnSxDHkltTi9iT+Tlk7tObd6vdwzUuI5LKYmpsTNEaDVsduQ4mW/LDlE9DqH2tatN05QIpUSsxFJe7dUm0FyLlIKAc4Pafj1NuybHc7cfgf/dEfSwrECGwnuoeEeGDypf/+B6/TdbUVlSYWX/t5brb79K//4W+/+6+/+tFP+2F7u9Oq068eWGnq9V/8/J03BsWq/bVmDNwT5IkLL/zipZcGkk0H2oz3eK2bUIASv/Kjv/3nH/34hz99+2pAMOzbXce+t2YfyaVs4MU//855QOgsNQ7N2mF/l1tTmh46/8a/fO9csuNoLYfR71prZEHq+8Gf/f2NMKn31tk09zAnEAAIAbzbxfMWeWv56+at4AanKoXQQM8v//bPLhr3+iqMHLVKlJFclmQAAMRuq9dDxUSg69W//l+vKPvq7Roju2PrAaTIsiRLMgIYttJwKNlg5OpP/vB/j5s6aqwmTrVVAkcIKeWyArEdsUJ3B1TOx0Iv/+l/eR1pLdYqB4ffrfN0a06XASC823IWpAj5qV/++V+/o2DbU20EZElUFm++ndsqAspe/uG3fzog6lin07Fs2RAASJEkSZYVALHVorYl7kFIUeRyWSxLMsAwuKpROF6QX7kh1R+s1WHg3u20VEgmR8+/mWw42ulx3U5CkNJUVDXtaT/QRE+cj3k/dqTWrl9DQpAgSZ3d6fXWOu7ZE1Jigf6J2Qgw7j+4cySEAaiyNe45sN/BlWSeV1cd7XyvSQhCiJGMinM2N3gsZu499oQgjmOk1mh11jV5LDR4NzyhRR1HkrJw7dQNaKqp8dXfJQndI/2svM7tDVzJOmAz1lkLDMNVWpPR42t1a9TUSkuNULHrxRcG57PQ6rnN24cYhtGc1uT0tVSbadWOeUJy1n/u7Kuv/fydmKa+zsKscHYxDGO1XEVNe6PdqCK3esNyeN5/7Xs/GHftcrEq4r1aQiliITvy1luJmjZfVa19A3MP7yb/tCxUy4S0DVaAEEKKUXEuX4NrG6qN+KTQ/89/c0ml02ksOmo7zYWQUJG02dtY66rQLnpCCAAA5Oz4m6++9OYbvSl1TY19S+uLFZCyiamuU//0d//n+z/rEqstZoNNc8vJIiYzAkbx0pqY7D15xIvku+5IYwSt1hgMRoOa3ugIrrK6wSYBktuxEC7a6S0dOKMx0LJOy24t4HD/AXFSU7Vvn6xiGGqnyPbugamN9uo2nUSygLzfrdm5md168G0bF9zo3TaAAACE2mCu63xYUetUqzkdASk0OjkHHBavss65OK2xePYccTCsesfkApVCF8+eHRjNmdoe3VOjWRVuhaSatTYdO4RxWmbrlk/JpTIzY/1R26cU5X2S7N+w7ei2QNs2aWnpuJX5pOXv9Y/HSM67d6/MMDS95SlE5VIxNNQX5Dt4aT252Kx9GCAsDXs5QKvoVRFtjHW0d/hyxZ7Bl35Kab/2qJuB5JYzX1I8MNN/7dUp45GvfKa13us1kis/JRpcuoBwWyeERC7U/2IXqjIUc8VCMiMCxlRR13Gkw8FiACSHe66Hw7Kl87FWBwYAUOIDp3oiKtzedMgKAECYnJi8/Fr4Ch8t4IzZXb97/z6vhsI354IykBe6Xr0yEY7HFbOjrvXYI03WW6OOyvlYfGa4u28ymCgIgKT13vrW1s5dLsPmMwOBXEiEb5z82dnZBA8oS01TW0tzrd1AAoAUITrS1zc8HkykRYLROzwtnQeaLByJYQBIhWhsZqT7+vhsSlRIrbWqpbm5pr5Se6dMAyrnY7HAjau9kwt5SaGMjvrW5qaaOqsKQ7KSCVzvGRqfjSQLZYVQc1bvrkMHGk00S5Zj4/3+ickFtYeKTqcFkS/TeldDQ2tjs43dvH+oGI3ODJ695E8WCuXKQw/vbWx1a2+egviFyRs3hsZn59KCDEmSszQdeKjVrTepNr4qkpXw1Teu80ARCFiIJPiyTGiq9x1sd9p0DIFK6YWZkUt9QttuzD+4EEmkRMbgqms7tK9RByEozfdfGhidmoojTF25+9kn2nQYgwNUmPX7Z3rHchY6NRWB9kYPyafT0WxZ69p17FCjDsOhkJoZGRsaHZ5NFRSSNnraD+xpsOt0t+vdahlCfDgwdGNgeDqUgyRnrKMLeVG9KGeoXCwlAl1Xe/3hfF6mNLbqWl9zZ4N1aQ0n5WKzE2ODo6PBRFZApFrvbjvU3uipMuISn0lM9lzpn17IihKlt3oafK0+n43GlEjvycGknM8rpWweZz31rvSYPyrQ1bubfXVVRDwycvF0xu2Ww7l8Ll3CaKOrum33Xq8GBwAohfjM2Ojg6GgwXVRItbWmdc+uukqjgYYASbKYnum+cn0yHMkJEkaxJqe7dd9DDQYKhyATGB0a7h4MpiVM8T76hSNuq5aCAAC5UEjMXL804B+62D9EBFIL2dBlNWvQ1Bx6ssPC0Vhpfmh0aKjHn+QlrOLgZx9uNFjV2PIMi0JspLtneHI+nZMotdld1dx+oMnCQFTwX+qbzc4VKUs5GsqWBQFxrpbW1rplyUdAigydvzQW12jbOg802g03qUZJhEZHBq6NzBSlItlw/Nk91VYtu5gmysUmTv9qxtCkZNJCLp2TIGTMnj2H93k4VonNjI4NdV/pHx4KzZpf/FHMqKJYu6/J17SnWreJ5KPkaN/I/OSCaNMVZyKFsiBCrbe2xddcZzegfDnc8+IZseZYe73XooNIzITne06dKR/4+B4nFe4LhOYXFLUQCef1Lc2GeCqWiIMKe8OuQx4AAIByarrn9K9HhIUswnWVtXsP7fNqOAqHiyYoMHild2JJtetam5tq6ipUGJJRafydUxHcSOBkbm5sPl7CMF3j0Y+1ei2azaMkcMX3kj1f5mHER6PTQ2cvTybzhXLloYf2NrS5dRgAQBaUaNevuwQKLwGlEE3ykoLh5qaDB30uI0sXFuYDI5e6BscvTAfwN17N9fUZVVpHbW3H4b32zW2JVIiH/F3nuoOFbJGrOXS4vaXaxcJlloGkxuZu7shk0sGz5355tfmr+8ymLTvXCp/JJNNhrGHXvs4mDbXG/BANFiYQvO0kIVeYufrKz8O7DjVUGBhMyGbC84HZJG753EE7rcoGRroGB6UG96OLJISyk9eujmrIFscBKwBIVqL+qTmLRQ2K+Vx4YX4qrOi++EidnlLdwdNWJFHgI8N9fmYiw7U+3GRd/gCVYvNj3RfOdQ2mMYbCMAgKsiGTK0l37D0SC5lYZnyGpkvFQmEutBDPlwVS/XA1A4rzvW+dvhLiczJOYko2nVyYiyvU0/u8egOejkz0Xb3QfT2Dq0gcKtlUIp0p8PLhzjbrZhUOSIiHJ65fONs1wlMqEqJ0LBbPpfMS88guD4OQmIouRKLxDK/I5VJ0dmwkoFi/+mi12yCnZwa7T526qj2630WRQOJj/un5VLREVTzVYr3ToCG5XCpkwn1vdQdNTrerxa292Zys/+rlq2OTCUnF0hDxSl5OFctlefPryUp84MLJqaLaUlNjpiWezybH/XGg+uQhn7NSLeSj/t7XXxyfl+rpAlYWSpJC8yUBIQAgQEiRyhIfCY2HAgvT9COPN2oAgwPEh2eHu946nes4YksN9wwGay1mDZWLZkvTKXtbdQcH44M9l7v6/YkSTuFATs1PnyrgyiPtbVXGJR1ev25KiI5cuXxxcDCisHoNK5VGMqFs3qsAAJRSPhEYPPPG236RIAmIxEQiEY3nEHf8UCWDw3Iq0Ntzqbd7MiNTJI4BWBKTuRIvIaWUTASuv/HqpaDCYAQGlVQ6lYqmRPrJPVVMbOz8mUmSI82kElmY6AvtrdGIc4OhBFVmTBX28Hzvyef7aj/WYTUxSMglwwuRmahi+q2HPSokBvt7r/Rdn0zJJEVAlB+9lCzIpUPtnXUWtZQrzXW9fupailJhBAFBQcRUbG4pNoGQLEtiLhYMTI5em6s7vttmWSQhgBCSy0KpmC0IIiOKolAScEygJLRoxJAiSVI+FZka7R0kjY+3e3RLJKSUhPT01ddPXokoIsAJqGTTqfBCSmE/sc9B88G+7nOT3XnHwToDiSmldGgikCwqOKvbVc1BgGQpNnC1LyVVtfraa2yrwuUIyZKQiSanR1/z52uP+iqtWjUACCjlQsL/1vMn2I+7bKYKNZIL6XR6on+BsX75QLVakaWyUBT4XLEsS4IglDAFE8tl+Q4LbCUfGOu6/NpA2ben2kBBhU8uTMzGihLQGA6bilKk99SrxYdrqyo9Fh1E5WJyvvvXrwi2lnqTxt/b2zs5zvkasemu8/5wc6UBj0cS89NxptpVDxBAiZkgawUGnM/niwuzoyGZ+9LDPpuGk+ORyb7zZ64N8xS7UrUf3eVRKUCY7j19PmnQW2pMVK5YlCDCCqIsKwhtPRm00kla8rdksVTIhvtOd88aK12uVrcOAACUshLvP/eqXzZa3R4TC0Uhl57pHRO0xuPtbhdUZEkslfhsriirBUEUSiWMFsvlO3tECCFZEoql3OS106mk3mOrrXKuolBIGdxVdXUdwwPff+P6xxuPcQyxtYwJQoqiIAhVnJbE8NuokICKsv6Ey7ISmys5v3Lo0eZWQ2am6+yvfvLaLy4/1PSEnbnTHaVEVuX73MeP+bzy5OA7r//gJyfOHdpnbSJVm60KSIB7D37Wu2+UUV7yj64OOoixkaGuq28NYft/57lnOhwGnM/nZUCq7pzoQUJJwZB2z2e+sseMwgO/+N5Lw/0XOfdup4MKnX/5tQndk1946tHdrfpCbPjiy//ws5fONzv0TRzuH+q9fn4Etn39659tNdD58fM/++n5/itnNN7Gxxz0xjcT4+PD17vPTLDH/+Drj1exePjcr350ZuCKzDU0uWtITFtZv6+iVas3mkgx2HvlZ9/7n2cGjnfa7AYaIJkvSWlCf+Czv9msw0HgxPPP9w103fA/2mJVb9Y/yNpsLRXP1eyb/PFQcGFNyFhJj/eMRrWalsefe7LZSivFcFQ06LWbuEG3zoyLtr01D3/icS8SYoMv/Pe/vNLbYjWb7FUAAKkspEeHMke+8aljvgoLociKoiwmKqDK2fm4s6XaYX7r+R+vXtqUZBxonU986RP6qf/2a97R/vDDzmjowtnXRhNiK5HuOXlxCOD1j37hk51ePDF/7nvffuF8r81ssxu9qg1HG8ixwXMXhhIO20Of/vIjdlVm/M3/+44iixICSExEJ6+/dmIIfP5PvnCsykOFb5x8+Y2L535lbu/8pEsFEpOX3r42JApNT/z207vrjASfjJdIPasmhdhMoPvsi4PGr/7Jc0fqTVx68PLJN9849/qpet/vNCAkZ5Flj++A1xV6c/D7U8qXvv2pnPSv57MLoZhgh0iSs3NZ0+/+9lNtlVZhrOfMqedfOXnm8OHPV/MLV892jwKp8cmvPdtaSeWC7/zj3718qUulrnCa6pW8ELx+bhR87Guf+Nj+2kqiJPB8DjdQGIQAQH1ty7Eat6uy++Vwb2JF73GOq2h95Dd9nYbgOGGsOfTIc0/59Cumn3W2762sc1df/vXccP+KCVdKqUzg0gsnpjy//XufPtJUp04Fu8/++udv/OvbbVXPetQICem8Qum9Tz73lJtWkhf/5S9/PjM6MeJrreZwJEv50a4x3lzrcNbbVusBZna1Pux0uvZf+en5H2CrJAwiAMRIBBx48tGnD1SbCqNjF1761nfPjn6i1aqz13TaXGbWwfIXezs//7Una43sFutYUTEjlDWY75nfedhGS+GLP/zrU7OjPePtBw9ufr5YwrSsZ/9nj9bk/t1fzVCPH30Iq+3uvzTsnxHr3ADIqRx17OkjT+z1UQvTV0/8xV+9cHFfm0XLUvmJ4evdb40zx//wG09UsXj4nVd+/Fb/FUnd0OSuxQAAQJwLxXTWQ4c//fl6K42EokgwNA4XHZtbJhZujZPgomq3Pv7luoPjPx4JzZFrDlBS4YL7YN1Dx59opEqRkde+/Z9O9z/mc1k91ZWe3fbPVNY4F96MW5761LO791dpthbHIzlLze5PfnV34Z3i4GsIWy/SBmmd1VHX4lT+5tJkem+lSc1sISGBZJEv8gW+jFE0vl7Ee+PmQRLQ9S0+q9VEYaTZZHO3VOMjfeM5QVRWp1nXplchjrv27K5zuA2MyuxxNTTvNkwPjaZzxTv7LRv1Ij0dCCZE0PLYF45W2TS0itVbrCaL4bbCh/V6obc4W/a322lIMvbWjoZKRk4Fpmfz+XT/tRFuV0tzdb2NpVVmq7v5+EHDTM+N+WQ2NesPxcWcq/PxNpOawCh9Q2eH10oVJgcn0somUVCUnp0OLqR5d9thG1D4oqSpcdhoVTk8OplBEAOU1eW2GDW4IsgYpamuc+C5TL4siQgAABmD1dlxoFWPMzhkKmxmHa0qZpKFbYZ0V3deY7Vx5dj8aP+VgelwHlEVThNHMVvJ/JJOt9dR5WZxnKW0dQd2aRLz8/FYdnEKCVplP/Rkp9diVeEYSZI0fWfDQbK0zlqpJ4wWA+twWXR6u5pmVFQxl1OU1Eifn1dZHF6PGZYKEqbr2OWRZmMLibmssnHyHgF+cmJGZkw1zW0eA8XQ+tpjBxosehYDQEkvJGcCfeWGfR1GDhNKis5krXDoxckbE3kZgdLkmL+A9L7Djx3yWdUkQWutlVaDmqOkTCzinwiR+5/c7zGaGVJV4atrqGnUhS5em+PLMsJ0eoPGaNcxOptVZa92qrQmnQoqSBB4BCBJE57OVofGpMIIndPudNVrZnsGM3xxemQ0Jqlcvt0tTjUBSZ376CMt6kg+FBoPK4CkcKPdBUMT/f39I8FwkaA0FruBvD+FYkjKppIjN4b0B/a0uqrMDM3anDVNR3dxI+/0hAtFAQDM6LZX+/Y5GQgArvPYTYiQi+msDABCihQNzBR0JoPBYNpa/cBiIQaAmLltX4PLamUwktPqKivtpVgqJ4nldR4zulXgZou9dv8+GwMAJCwOm47BxVw2t47CrLoFxqrVJotdRZotBo3TbdRZjCqapCWeFwECAHO0tdS6ay0qRmezNe89ag0EAslUTkzPTgfnk0X3riO3VJthpYXRyczS5SHnaW5taa+vYDAIcUatIvB15hAhgG5ia52HAKwutAMAAEB5G5q8ddU6EjIUXVHn5fhcludL92IvtgJcrVHbHe7CVDAiFkp3br8sFLKx6dEJ/9Acr7NbNTi8nXI2JjIIIclQ+FLVJEHgrIou53KCIt8ezllF9hBCTqMiCBICgCicVOs4UCwUJFlG4O4KtxDPl0QFqI0GdtupY4qkELccDcdZjsEAJvJZSaLSaYXTshRBQwAAJAhSp9PCbKZQLqeLxZKsEBqtBl/KOrKsWoWBcj6fRcC64b1QqcjnggMT42O/30Mvlp6KxQJm79wtlBRFQvEbb5881zUyFylISObFdDRfdt8cNoIgOQ2L3SylgAACdG8ihen3ffE59urVixcv/tPbPytZmx79zBeebq8xs3f0hSBBkQSxWFYAIWQ5NRJKQlmUkBoACDFCp+PW1bGN24JjBEEumiSCJHAchwBAiBQFoHQ2VwreeLHr8skTDAQIASRmE6ipLJelTRgfKHy+KFE4Q7EMXGynSqumCRwHQBYEPhWMhgLf/Y9dNAYxCJDAl3AT11ISAJIK2YJI40ZOvzbvUBYFgS8ijVGHL67mIUHRDMvi2VRaUSgISILESRLDCBzDKRIHEK6QfgiBSkVjGAYQAgROUAwt53N5WcrkijhUMZx62XLjOq1aUeRSoViGtJmr/9Q3/7P13NsX3/7+qV+SrsYjH//0s8eadNj9KCyU5HI2lwM6PUcSFAQAQJKgtBo1SCezkiwCAEiaVLHLGrM4xWh5Pa8UCkWMJClyGyU5CAGAME6jpihyaZ4gBoGyVRu8ASBOkTTLLXsIS4nADcI6K+sdMBwnSAJADMMoilguN4bL+2XVGhVF0RAAQOA4Z9BBgefL5TJf5HOhG/6x8d/v/f4K1d7dLpQUAHAAAFCrVNRW/bilZq3avbSVWurlAYSQVrMMteSIQIBhEO1oUceG1yJwnGHUWIHnZWnzwD4AAMizr3/nH090XYoaqvYc/+pn23QkfvvqZWNZQgoS8kVBlmUAMCSVpUKBx1k1BZervJGybCIlvsgLEkMse0VI4AVZlhEAQFJkkRegilUR2N3XXlI0RWCglMsLCGyz0FSSJUUQl3N9olCGEJEMh+MarQYr5PmyJCJAQyRJUi5bQKyaJQitimFwKBfyeQWoMQAB4vlSSQGEilFvdndI05Ta0eCxHf3mpxvoRToBCGd0GpNR4ecv/eQfzvKdDUcOPl1lIHMz0Z4Toxduyh0EEMIVYYwdsT8YpbM3HnjE1tB2dD7kHzp/6vsvqP/gcw81tNjuEMtFIi8IolAGAAcIKflsDpAUSSwV3UIAMAzb3v6Dm1EIuOR+L+2dgBjAOJajK/cc39Nx5JHqpYYhBNVWp8W0GVtiFMPg5bwolQQEAEQIiSWhrDAKABhJUlqbsdL5pT98qo6jVBBAgBBGk5ylgsRIhmWIsiLw+SICupW9IEiKZlSwkMkpyuJiQ5LEslBCnEmL4+UV5XMroio3c/OKrOQzBVkqI0AAsVwu5XnIqhkc16hVClLEYlFe6rycz/MYZCiGwQHEcEprbTj4mKVp98NzgaHegfG3vv88962vdJjpdTR2/aHdMgic1KjVMJctSJKIAAmRJEv5Ag84rRrHF036ql0cEN40SBBgNEMrklSWJHnJ8m6peXDNNTfANv99AoTrbyyCAIOLa5nFzIosl3N5XiaWPZaVl7i9DUKpLEkSAjRQFEUo8IBmaIIgGJpW2+s91mPf/I2Vqq3VGG8mbZd8lbvGSha5Y9QOAgyDcMkUL+nS2vG7a5rf8CwEgKQoosgrdAW9TnbnNmC2Q198znWgvbtnYGroxJn2js836UhszXmbVElJQAwMDc7OxwulYjQamroxLVf7qjiaIli1iizLmcj0fEFGEh/uH5qMzCWWo22KrITH/NFsvKTIxUQqEhxL22qqtGrVXS/sMJ3DUaElyuNXTw9FkrwkCsVsIplK5e/sDiIxl45NjQbzClCUfGhqNiERmkqHQ63WNnXU8GMTk8FAjBeFdHJh4lJ/0tJUb9Fx+kqP3Uiz4cELY6mipIjZmeHR2ZhIVdZ59Zu5YlBb6XTYrbp8Os06PY2+pqbamkq7zajVawhFys5PTKeQweyqa6hxVGjxbDwt39+KVDkTXkjxgDK7a30tu1qqbOXgfCSb4++U9gUASAszgdnJ6RQv5ovx4atDBY3ZajRyO1CSvqbQAEIADTWNbg2BJAnXueuaW5qa6lx2a4VZq2I3qfOFELAetw0IqVn/RDhXFsuF+ev904lsSQEA11oNTm8zk4wVObOrrtHX2FDtdNv0JqOOhhBjPd5KSkn7+64NBzOCopRL2Wg8XciXMI3J7Pbayv0XBuazaVESElPT0zP+rHlXq41es6EbLX4txVUQQEAS5dD1vqlkLC/yidm5mWl/3tZUr6NUzpoaIyEsTAxPhHkJSfnw9WtjOR1jsXrMuFIuFWOhhQLBWtx1zW1tNTYLng3MxgVlK34wJFiGKGXzuVxaRACgjTK8t47ndIbaxtps3+D4QigliHwiEvR3j+Zcu5utKmbT4k8IMdzstNO5dDabTW/XSb8572unFGIESVI4lgpHeUlQliNVdw0cx3QGnRKJhFOJtFAuROMzg10TvLCJV70CKDIZiCTCBUUppfMLE/1xu9Op13KU1lFZaa/Q5lMp1ulu8DU11dVU2m1GnW6LuxkVCWVnhvsGxkLJlLCFf4awImp3R3ZepKGVHAghplIxpVQix5fERfnc8ohuxkAAKMV8MRxdoFwVJlJ1Z7cPqqzVdW0Hj+xpaDKWA2OhnKzc7j5tEo4DkCb42f7uM3OTIB2bi0S0HU/ud2hZAkNuT5V5KjLT9fIvBYcaF5PzPED0Ur0ChJDToOhoz+X8BFOKhuejStMjh2o1GgZD2dDMzOxoYCa1MBYvJ8avvUPHLF5njbuq1suVCrPXe6bz+emhsZnoPIbOv4H7cW3Vnna3QcXaGht9iZnIcNfJV+IWNY0hBTNW1jXs6uTuIAIYgytlaeHamZNjeDkbHM4jS9OuNreJ4dhDogQAAAv6SURBVED14eO7IwOB7rczU0MqqZiKz1Jtjx2pc+pVDFVb74tFYjeGTp8o9bNEOTEXJDh3S0ebXaWISmLs6nAkFR/un5qdiyX6zryBNLi58WC9XaOvqK9vSu2OjHS/eWJeS5EYQorK6K5t3N3gJjTO+iptfHLwYqk4yWB8LIrpdHCdCOl2IOWjoeDEyGS8GB5PJ1PDA1cQlXIbKtzNbU4dlDNT3QNzuaRE07gi8emkvqWxymRSb8GZJHExHhi//KbQLxYTszcUX1tLldeixkBhk5NQZmpoNDgXmZq4MTmXS4BzJ08ZsIqaXTUqGYDbc4fLv6DK3Xm0OTM4PnXhjVfGtBREioJoT+veplr1JmYRAtLh29s827Uwff6VF+dMLCzFsxhCOAkBxloqaluOH5i9dP3t03MajsYwhEhdhb3liFVLQNLeuKd9vjwy1PfmK8l+PQ0VSeZq9rfUe2vM7prdB4/4+/rfeT3cT5NCPBqTVA1HHvPpGWLhduJZ/cAwhFHl6I0Lb0dUeG5+PsyTTUePVTMsTVd17mksjQ6PnD1RGNTiYjYYUjztvuYarxZDpXwh2Pv2SBHgJEUgMTGXJB27aitZHGKgnAgMT8/MB2b8U1NpId974Uxmyup01XiqvRYOAgAg5WyuM3bNjF989ZfzlQaDzrtrf41OhWfmx6YC08HZuYmxJB8ZPv8ONPpdXq/X3VCh19Xsf3rP/NDwxbciQwZKyCUSYXXbMw/XWTSUtHk9MUbo69rcb/anwvPTiXqr5Wa2HJWi/pmZWf9MMDkeLObpvgtvF6dsbndVVa2dWzpkec5vM3KY2mSodLfQI1dePzFn1JjstVXV3kbbXe4Ah4SKMPv2+PqHhy+czkyNcIoQDylaPVy7/l7/bJYDqanBa3BhWEomF2b4xid21xotakJF1dX5Up2RoZ43T8xrKWpRtV01DZ0Gw9qigXWAynxp6vzJ1zIVhx87aDAYNq5uWoaUj4ZCEyMTcT48lkqkhgauIDrlMla4fT4Tt0kHIIQAo1h15a49trNDvWdyiVGT2eZ2N7Q2mjYbUVRKJBZm+kZCQmkkkIqikR5aVUjbKypq21oryGVfq5xPxmbHg3zdviqTSrOFjgMAMVKt1+vNekaKFsX1cur4v/3610Ta1t7u1q5c4wvp/PzIa73qjg66FAtOTSXytLPx6OPP7LVpSIgRGo7FSCkRHBsfn4mkMW9Lo8XorLbbXU02SsrGcs5OlxRJh6Ym5/MllafzycePeDRqEqL01PjIwKW+QDglkVqWUPhsLFbEdVyF28kUsuPnz/b4/RFehLiKkoupZDQqaOvrKziGZbVag6FCK8b8Y+MT/sBcLF1W622VVR7TZvExxGcTACM4T40cGJiYmV0oaBrb9u072FqpJQmMMrrcaiE2MzsxMRFMFQhb/UPPPrXXYWIJDOe0eq1JqyTGBgbHAnNJpKnbf+Bw575qHSmXlEjf6UuDY7PJvIxRKkzKJaPhKKpocRpZLafV6vU2nRgeHRwdn5qZT6RFirM4PF6HiWGMRiIXDs3NBmeiRYk1N+xt4cr6XZ1es5aSs4liGafc7R0uFQYBkAvJuKBQZveuetdmNFvOzE+OdV++NhFJlmmGwqCQiSdLAq71Ntg5qORmBoaGx4bGAoFgJJYDat/HHz/W5DWzm+1cRLISu362D9NaGD2d8A/NBvMq1+Fnjh+o9hhpHMhCMZdLFsiGw612Sr3aU0Gp4a5rA/2jc4miQnIMLKWS0bDAeSwGipaVEjT6OtyaYiRYsno8lU6tXOLFgrbhYJ1ebXJaNRDk5iZHxkYm58JJXuYcbq+tQr+ZLwQgpbMYaTmXCk6O+MPRIl3d0aBTOXyNHrerwsjpHF6DsjDun5icmJ4Pp0sKY3bU1Hp0OIQEZ7Ea1BhKzYyPTYz5Q9GsxNhrXXaL1aBldeZqYyE4Ojrhnw1lcE1V++FHj+5zUCTgo7NZldNrd+q5Mp9Iq+oON1mUVCLH6qwOj7Gc9V8/I3UcNcbiwcBEWMJtLYeeeOSIS0VBqDLZjAxCycDg0PhkMCnomw8+dmxvo8NMQ1Qu8LGJrp6h8cnp6WA4WVYbavc88dhur4bAgRgb7bnR3z8YyuaRysDIYi4eTUHGZLY5jWoIAIQYp2elVGYh5J+aXUgLJV1ts1PNYMlAX39/z4g/WShTOhUU+HQkLrJqo7XaZqBUBm8VV5ibDEz6/XM5gXX7Hnri6U6rloRSJpKSObXVu6vGSAAIgJCZj8h6t81bXW3AAYS4Ri0Grs+mQEllq67UMctbj/iF4ZHB/qsjC9EixmlIKGaT0ZzCGkyVdiMUsvOhsueQz2Uyq3GgCAJfCM+jqiO73QZWjQNIMQTL6krB8fHp4Hw0BfU6i73KvOnyspSOZwDgKny7PIslskJiLg2Nekd1q8eAUSarhk/NBWcCs6E0wPXeQ51WkWvcW29mhaRA6NSV9fUGORGKsg17PFYKz5ckoHG0Vpnz83lHmw1k+Xn/xFwqDRy7n3n2aI3eQGOQ1Gj1BrtOjNxSbVJtcXirbAYSATm7ECxrq2o8VTbzOiKL5FI6cfGff3gBmXyNjTUV+juHFMqZBf9496WrE+FUmaYpDAiZeFIQcJ2nzsqV4rNxztVY7ak0cBAgSSjFgzFNW2utza5nIIA4QWjMJiUWCAXnAqF4HrBaV12VblNaL8Zj0zfOXhgKRAoSxRCEVErFMzwgrHX15sVcPpIL4ekbvRe65uiHPve0z2igtxjcgnJ6Jjg1dXnB+NAjTUYKX7MKhvnCOv/eG2Wmw10v/P53xOf+6t8ca7Rb7ve+9/fHNumPCFCZL/IlXlwvKAdxiBGa2R//+d+nrB977JOf3le99cD/jkMRBb5U5MX1qiohhDSnZ6ml+oGliMS2AG9leG4V1aw6Yk117WZAhWDvwIkf/LH/2f/3zSM+h/Z98iiN+wBUHH/l+ZcHZ4iGRz7/5EG7msTWm/w1I7r2WaIfNSilVPD63/3775a+9MXPPPSxXbY7O0LbwRbLvhEAYNOo3DqfrfiTUi7ER86+c+76mVjjN/7ks00s3PojHKTQ1WtnTn7nLPtb3/z8fpfVylHUCv7aTFnePVm52Z6Pnni++xAnT//qxFu/vBK6PTgL2Qq2+dP/9di6dn893Jcy4iWg/PDFX73+0is96zQU0xDafb/7P76436bTr2sEN8Z6GnvX3LMGa+NzH0ZAVe3xTzyO3np76NUfYew3Ptmux+/8cKbVVLRyuD/04wUAAEgoC/FxP9H4TLPTbtpZBgKrBXaT0ojFyjqwARvdaSKUnP/t02cGR8WGz33jmVb19p6OT1TUVe/JPDv54i/+9D+ce+ZbXz7e2um8lVB6n63Y1u3YR0JO3z2QnsMff66185PrpEchRmGMxpYYv+X/3E+a2RxQXdf5hKVq/2+sl8fFcYKrMHPclhlohXKuyfQulhXBW49LuYc2fxQAMcZY99Dxin2HFdqoxYhNGGgLbLOep/ShA6RZU+NT3/qLssGp19xfk3uzAmET92hzNtoAkPMcOv6FjmOI0Zm3Goa7BUJnqtr/1O/VHcqLuKHSolu1V2f9cBwQc8XEzOVBpXZPbYWevdenWe8U0EdEZt9TIAWlJ3pHBZXd7vJYtrjZ+l3DdsNuy6q4kcSs4p51YvlbvQ+SCslkcLwn59rfXGHYzn+j+ajgTkP5QKfvE7YSrEMbef/vyqxsQEIfIDwQ3h3E+9V2LurR1lu3mqjgOq7PdsTmgYjdE7aYVbvPrXiAjdlokYEWiw9WL8relVl5n4Xj7gKbuPwPUk234/1KMxthW67PBkei1S+3LQ0P3O8tYV1fcst4MMj3GxunjiAAaCkmsPgBQkuPkHhXeOiDT0IrsZEOfJTZ6IPGOovYHveAO3VzJ+b93VoXfmDxwZS0jyZWpI5u7iJGt0IEcPnHYrYU3F/R/3CR0B3x4Vhu3VHb0dYOe//hfcg9a+/4wRef9zMeMP27jFuPUlhXlRZrGBafigXu19wQGLz7Rwx9ULFFM7dxMnt7x28RO8gZHzT62WHuAffXkj0wlOvj3sJxN/FgeN8bbLBZ7ma2CC7PzI6z0f8HCXiPIVDNqyQAAAAASUVORK5CYII=;" parent="1" vertex="1">
                    <mxGeometry x="204" y="1628.25" width="556" height="28" as="geometry"/>
                </mxCell>
                <mxCell id="148" value="b0" style="text;html=1;align=center;verticalAlign=middle;resizable=0;points=[];autosize=1;strokeColor=none;fillColor=none;" parent="1" vertex="1">
                    <mxGeometry x="709.5" y="410" width="40" height="30" as="geometry"/>
                </mxCell>
                <mxCell id="149" value="b0" style="text;html=1;align=center;verticalAlign=middle;resizable=0;points=[];autosize=1;strokeColor=none;fillColor=none;" parent="1" vertex="1">
                    <mxGeometry x="760" y="1609.75" width="40" height="30" as="geometry"/>
                </mxCell>
                <mxCell id="150" value="b6" style="text;html=1;align=center;verticalAlign=middle;resizable=0;points=[];autosize=1;strokeColor=none;fillColor=none;" parent="1" vertex="1">
                    <mxGeometry x="809" y="980" width="40" height="30" as="geometry"/>
                </mxCell>
                <mxCell id="151" value="JA" style="text;html=1;align=center;verticalAlign=middle;resizable=0;points=[];autosize=1;strokeColor=none;fillColor=none;" parent="1" vertex="1">
                    <mxGeometry x="230.23" y="750" width="40" height="30" as="geometry"/>
                </mxCell>
                <mxCell id="152" value="JC" style="text;html=1;align=center;verticalAlign=middle;resizable=0;points=[];autosize=1;strokeColor=none;fillColor=none;" parent="1" vertex="1">
                    <mxGeometry x="930" y="838" width="40" height="30" as="geometry"/>
                </mxCell>
                <mxCell id="153" value="JA" style="text;html=1;align=center;verticalAlign=middle;resizable=0;points=[];autosize=1;strokeColor=none;fillColor=none;" parent="1" vertex="1">
                    <mxGeometry x="173.73000000000002" y="1907" width="40" height="30" as="geometry"/>
                </mxCell>
                <mxCell id="155" value="JD" style="text;html=1;strokeColor=none;fillColor=none;align=center;verticalAlign=middle;whiteSpace=wrap;rounded=0;strokeWidth=3;" parent="1" vertex="1">
                    <mxGeometry x="540" y="2156" width="60" height="30" as="geometry"/>
                </mxCell>
                <mxCell id="157" value="JC" style="text;html=1;align=center;verticalAlign=middle;resizable=0;points=[];autosize=1;strokeColor=none;fillColor=none;" parent="1" vertex="1">
                    <mxGeometry x="291" y="2094" width="40" height="30" as="geometry"/>
                </mxCell>
                <mxCell id="159" value="" style="shape=table;startSize=0;container=1;collapsible=0;childLayout=tableLayout;strokeWidth=1;" parent="1" vertex="1">
                    <mxGeometry x="920" y="1850" width="500" height="200" as="geometry"/>
                </mxCell>
                <mxCell id="160" value="" style="shape=tableRow;horizontal=0;startSize=0;swimlaneHead=0;swimlaneBody=0;top=0;left=0;bottom=0;right=0;collapsible=0;dropTarget=0;fillColor=none;points=[[0,0.5],[1,0.5]];portConstraint=eastwest;strokeWidth=3;" parent="159" vertex="1">
                    <mxGeometry width="500" height="40" as="geometry"/>
                </mxCell>
                <mxCell id="161" value="ENTRY" style="shape=partialRectangle;html=1;whiteSpace=wrap;connectable=0;overflow=hidden;fillColor=none;top=0;left=0;bottom=0;right=0;pointerEvents=1;strokeWidth=3;" parent="160" vertex="1">
                    <mxGeometry width="100" height="40" as="geometry">
                        <mxRectangle width="100" height="40" as="alternateBounds"/>
                    </mxGeometry>
                </mxCell>
                <mxCell id="162" value="B0 - B1 - B2 - B3 - B4 - B5" style="shape=partialRectangle;html=1;whiteSpace=wrap;connectable=0;overflow=hidden;fillColor=none;top=0;left=0;bottom=0;right=0;pointerEvents=1;strokeWidth=3;" parent="160" vertex="1">
                    <mxGeometry x="100" width="300" height="40" as="geometry">
                        <mxRectangle width="300" height="40" as="alternateBounds"/>
                    </mxGeometry>
                </mxCell>
                <mxCell id="163" value="RETURN" style="shape=partialRectangle;html=1;whiteSpace=wrap;connectable=0;overflow=hidden;fillColor=none;top=0;left=0;bottom=0;right=0;pointerEvents=1;strokeWidth=3;" parent="160" vertex="1">
                    <mxGeometry x="400" width="100" height="40" as="geometry">
                        <mxRectangle width="100" height="40" as="alternateBounds"/>
                    </mxGeometry>
                </mxCell>
                <mxCell id="164" value="" style="shape=tableRow;horizontal=0;startSize=0;swimlaneHead=0;swimlaneBody=0;top=0;left=0;bottom=0;right=0;collapsible=0;dropTarget=0;fillColor=none;points=[[0,0.5],[1,0.5]];portConstraint=eastwest;strokeWidth=3;" parent="159" vertex="1">
                    <mxGeometry y="40" width="500" height="40" as="geometry"/>
                </mxCell>
                <mxCell id="165" value="JB" style="shape=partialRectangle;html=1;whiteSpace=wrap;connectable=0;overflow=hidden;fillColor=none;top=0;left=0;bottom=0;right=0;pointerEvents=1;strokeWidth=3;" parent="164" vertex="1">
                    <mxGeometry width="100" height="40" as="geometry">
                        <mxRectangle width="100" height="40" as="alternateBounds"/>
                    </mxGeometry>
                </mxCell>
                <mxCell id="166" value="B7" style="shape=partialRectangle;html=1;whiteSpace=wrap;connectable=0;overflow=hidden;fillColor=none;top=0;left=0;bottom=0;right=0;pointerEvents=1;strokeWidth=3;" parent="164" vertex="1">
                    <mxGeometry x="100" width="300" height="40" as="geometry">
                        <mxRectangle width="300" height="40" as="alternateBounds"/>
                    </mxGeometry>
                </mxCell>
                <mxCell id="167" value="RETURN" style="shape=partialRectangle;html=1;whiteSpace=wrap;connectable=0;overflow=hidden;fillColor=none;top=0;left=0;bottom=0;right=0;pointerEvents=1;strokeWidth=3;" parent="164" vertex="1">
                    <mxGeometry x="400" width="100" height="40" as="geometry">
                        <mxRectangle width="100" height="40" as="alternateBounds"/>
                    </mxGeometry>
                </mxCell>
                <mxCell id="168" value="" style="shape=tableRow;horizontal=0;startSize=0;swimlaneHead=0;swimlaneBody=0;top=0;left=0;bottom=0;right=0;collapsible=0;dropTarget=0;fillColor=none;points=[[0,0.5],[1,0.5]];portConstraint=eastwest;strokeWidth=3;" parent="159" vertex="1">
                    <mxGeometry y="80" width="500" height="40" as="geometry"/>
                </mxCell>
                <mxCell id="169" value="JD" style="shape=partialRectangle;html=1;whiteSpace=wrap;connectable=0;overflow=hidden;fillColor=none;top=0;left=0;bottom=0;right=0;pointerEvents=1;strokeWidth=3;" parent="168" vertex="1">
                    <mxGeometry width="100" height="40" as="geometry">
                        <mxRectangle width="100" height="40" as="alternateBounds"/>
                    </mxGeometry>
                </mxCell>
                <mxCell id="170" value="B6" style="shape=partialRectangle;html=1;whiteSpace=wrap;connectable=0;overflow=hidden;fillColor=none;top=0;left=0;bottom=0;right=0;pointerEvents=1;strokeWidth=3;" parent="168" vertex="1">
                    <mxGeometry x="100" width="300" height="40" as="geometry">
                        <mxRectangle width="300" height="40" as="alternateBounds"/>
                    </mxGeometry>
                </mxCell>
                <mxCell id="171" value="JC" style="shape=partialRectangle;html=1;whiteSpace=wrap;connectable=0;overflow=hidden;fillColor=none;top=0;left=0;bottom=0;right=0;pointerEvents=1;strokeWidth=3;" parent="168" vertex="1">
                    <mxGeometry x="400" width="100" height="40" as="geometry">
                        <mxRectangle width="100" height="40" as="alternateBounds"/>
                    </mxGeometry>
                </mxCell>
                <mxCell id="172" value="" style="shape=tableRow;horizontal=0;startSize=0;swimlaneHead=0;swimlaneBody=0;top=0;left=0;bottom=0;right=0;collapsible=0;dropTarget=0;fillColor=none;points=[[0,0.5],[1,0.5]];portConstraint=eastwest;strokeWidth=3;" parent="159" vertex="1">
                    <mxGeometry y="120" width="500" height="40" as="geometry"/>
                </mxCell>
                <mxCell id="173" value="JC" style="shape=partialRectangle;html=1;whiteSpace=wrap;connectable=0;overflow=hidden;fillColor=none;top=0;left=0;bottom=0;right=0;pointerEvents=1;strokeWidth=3;" parent="172" vertex="1">
                    <mxGeometry width="100" height="40" as="geometry">
                        <mxRectangle width="100" height="40" as="alternateBounds"/>
                    </mxGeometry>
                </mxCell>
                <mxCell id="174" value="B3" style="shape=partialRectangle;html=1;whiteSpace=wrap;connectable=0;overflow=hidden;fillColor=none;top=0;left=0;bottom=0;right=0;pointerEvents=1;strokeWidth=3;" parent="172" vertex="1">
                    <mxGeometry x="100" width="300" height="40" as="geometry">
                        <mxRectangle width="300" height="40" as="alternateBounds"/>
                    </mxGeometry>
                </mxCell>
                <mxCell id="175" value="J2" style="shape=partialRectangle;html=1;whiteSpace=wrap;connectable=0;overflow=hidden;fillColor=none;top=0;left=0;bottom=0;right=0;pointerEvents=1;strokeWidth=1;" parent="172" vertex="1">
                    <mxGeometry x="400" width="100" height="40" as="geometry">
                        <mxRectangle width="100" height="40" as="alternateBounds"/>
                    </mxGeometry>
                </mxCell>
                <mxCell id="176" value="" style="shape=tableRow;horizontal=0;startSize=0;swimlaneHead=0;swimlaneBody=0;top=0;left=0;bottom=0;right=0;collapsible=0;dropTarget=0;fillColor=none;points=[[0,0.5],[1,0.5]];portConstraint=eastwest;strokeWidth=3;" parent="159" vertex="1">
                    <mxGeometry y="160" width="500" height="40" as="geometry"/>
                </mxCell>
                <mxCell id="177" value="JC" style="shape=partialRectangle;html=1;whiteSpace=wrap;connectable=0;overflow=hidden;fillColor=none;top=0;left=0;bottom=0;right=0;pointerEvents=1;strokeWidth=3;" parent="176" vertex="1">
                    <mxGeometry width="100" height="40" as="geometry">
                        <mxRectangle width="100" height="40" as="alternateBounds"/>
                    </mxGeometry>
                </mxCell>
                <mxCell id="178" value="B3 - B4" style="shape=partialRectangle;html=1;whiteSpace=wrap;connectable=0;overflow=hidden;fillColor=none;top=0;left=0;bottom=0;right=0;pointerEvents=1;strokeWidth=3;" parent="176" vertex="1">
                    <mxGeometry x="100" width="300" height="40" as="geometry">
                        <mxRectangle width="300" height="40" as="alternateBounds"/>
                    </mxGeometry>
                </mxCell>
                <mxCell id="179" value="JD" style="shape=partialRectangle;html=1;whiteSpace=wrap;connectable=0;overflow=hidden;fillColor=none;top=0;left=0;bottom=0;right=0;pointerEvents=1;strokeWidth=3;" parent="176" vertex="1">
                    <mxGeometry x="400" width="100" height="40" as="geometry">
                        <mxRectangle width="100" height="40" as="alternateBounds"/>
                    </mxGeometry>
                </mxCell>
                <mxCell id="180" value="" style="rounded=1;whiteSpace=wrap;html=1;strokeWidth=3;" parent="1" vertex="1">
                    <mxGeometry x="383.53000000000003" y="2218.5" width="100" height="50" as="geometry"/>
                </mxCell>
                <mxCell id="181" value="" style="shape=image;verticalLabelPosition=bottom;labelBackgroundColor=default;verticalAlign=top;aspect=fixed;imageAspect=0;image=data:image/png,iVBORw0KGgoAAAANSUhEUgAAACgAAAAcCAIAAACcd2qBAAAACXBIWXMAAA7EAAAOxAGVKw4bAAACKklEQVRIiWP88uUHw0AApgGxddTiUYsH0OI/Ly7On7Xq3Ksv9LaYmVdUS09DiouVRGP/vjw8obRm4fWP/0i2+P+/X5/evnnzjVVBSYaPA8nin3eW9Cy/8O03suI/V5cUTD+DJMQsbpsbrf9oyezNj7/+Jc3in18e7Fg0e/rEtuyUps0P3yI56Purp6++/v2P4sqvr+6++IwixMCsZh8s//3U/rNPf6FKQKWrqmqwWszCLqxtaWurK/rwyjNhCxMtQe7fX99ePLRt95HTp8/eev/j45O7jxiE5BhfXNy7Z9+JM2dP3nzP9O3liy9MwhIinMyMDAwMLCzMX55evfqSXVNXiYcZw3xcPsYETMxs/KKSMn++8HK8EpGWkubj42NnYvsvIC4lw/GBh5VbSFpaSkSIl42JEaKekZWNT4jn97WP33/+Z2BjJN9iZg5eZX1rJTW+izs/6tvaW/OyMTAwMDComEup/GY/N/mZjqOTLRuyhv////75y8jMzIQtPkmwGAIYOXWL+nXRBFnNijaboav89+Pb6yfv2SRMeTnRvctAVAHCyIBFH2Hw/83jS5dfMhsYaAhgswSnxX9+//r3/9+PL5++/GPkxBpYeG39/vzC7u2nBM38LNQEsbobV1D/vbFz9vabP35/+fRf1UhTgIdEixn+/2eQNQvQMtESwGEDI44WyP8PT289ef+bgZlDUExSQpCbmdqFOi6LaQ4Ga+00avGoxaMWEw8Aj8/Lr6Cd7MoAAAAASUVORK5CYII=;" parent="1" vertex="1">
                    <mxGeometry x="413.53000000000003" y="2229.5" width="40" height="28" as="geometry"/>
                </mxCell>
                <mxCell id="186" value="JB" style="text;html=1;align=center;verticalAlign=middle;resizable=0;points=[];autosize=1;strokeColor=none;fillColor=none;" parent="1" vertex="1">
                    <mxGeometry x="480" y="1995" width="40" height="30" as="geometry"/>
                </mxCell>
                <mxCell id="187" value="" style="rounded=1;whiteSpace=wrap;html=1;strokeWidth=1;" parent="1" vertex="1">
                    <mxGeometry x="363.53" y="2049.5" width="120" height="40.5" as="geometry"/>
                </mxCell>
                <mxCell id="188" value="" style="shape=image;verticalLabelPosition=bottom;labelBackgroundColor=default;verticalAlign=top;aspect=fixed;imageAspect=0;image=data:image/png,iVBORw0KGgoAAAANSUhEUgAAAHgAAAAeCAIAAABoq03CAAAACXBIWXMAAA7EAAAOxAGVKw4bAAAJfklEQVRogd1aeWwc1R3+vXlz7Mzu7K73XtvxscQ2jg3YQJyGkgaS1kkIUCRIQ0UptwSCorSqSkVFS1FVCVGpass/BRWhUFqQOAQNoSWhiQOEGoeczh1f+Nz1rtd7zu7MvPf6hw9ix94cXBt//828mff75pvf+97vvRmUTuegGIAuoKW4gBAgNC9b7mvlUgCsUMv8jUUExoCxeakWjdBwkchZEAW0LiahYYFoTefSmv8GuBTGBMczrG6a+kVg2Qwom23ZRZbR01gQqX26jRRfRp8NF1Fqs6nRiYpaaHYxaHk2TGtdxELDvH493XhRvIgJD/kqPJolew6cOHHyxBj9kvq7gJYpUE1Pd3+489jIWNb4cthcIL4CoVluZH9bR8f+Q7Evb0abf9FSOAYzUtpw++v/2t8bTRvf6AQ7n3UwPTmaBpljFIxczqAMcaLqtluwgBFQ08hr6VQmZ1KGOCxZrYqsWHhEiaklU+nh46cG+wjnqx4ZUTGAaHU5FAEjPZ3R9CwoPqcFAQCQXCqhGQgpTqcFgGrjYzoSEEIkn82bDAGW7SU2WeBINq1pmo4lZORMxhjjsCQrVqtVnMySuT2EGXpOS40Mjhzs7EqWD0dG/SpReItkVR0KjwBYPjGuIQYggp7JGZQBJ9ntNosFG7lsLqVxdq9dQoAATC2ZzRk5rHrtIgJgJK9lMlktrxMADguy6rBJAuYmOTDKjHQsnuNkVbHKFjxJB82118GoqR178eevse848zHW80nbifGc6G7+8a/vX1FW7RJIaqDvwI5XXn77w1OJHF9S2XLDjetXr1laJmVj/e8/v3n7ob1HhuK6wKt2VZIQf+ntTz20KuQWO9/Y+sGR99n3nt20XAZANNz+jxc+6EaW1k2PLONY4r9//t1R6RILL47u27avO4354JqHH7tlWcga2/H6rh1tnd4W67GPB9LZRN5WelVr602t6xtK8GmkZ2nNtN4ju9vefm37nq6+nrTscsmygOWq5S2tGzatq+QBjL3PPbMLU0bq8fE3d56MashxzQMPb1y+zH7qf9s+eukjx/1/ua+JBwsiwx/8/Z2Pu/Z7f/DHexp5ABLZv3Prli3b93SGDaSWNbbeec8tTXV+VZpgYKTM4/98/A/7lOt/eMO6a1t8XOGMBkb1ofZdkdoVq2997Gm/xBETnIGAyoMZPtmxc/u2zsTSR556tFTJnmz/z+5DO5kp37qhwVm28t4Hm479+/nXjrFQ5eqb11bzAJIzUKIKkGKUEmJOzcMAjFJCCCKTx5SkDnfsW1S3asXdT97hEiBvSIFSh4qMKMmPReIn4sYDDz7xIztHure/t7ur/b32xTVrl4inEZ6pNZJKL2m58W5/aOWul5/4pP7eO69tCrkVUVFU5+TrYcT87NMjZqhk1YZfPuOTwdCxO+i18ylKCSGETtsVo5QSYhIKQEHv3fHqG+1Jb+3GX923WDTDnVtefvEt50PrV17WHJQQACCM7GVVi1Oyz2GXPmdUoOpguhysvqSmubGmQuU5RkyGMYdopLu3e/iUVrri+iuXVNgks8ToOjh0ZLDz6OBNjZcqDn/ANu6xKXYo8ZRXVVdN59zZJ0bGwFEWCi25fMlitxWDaRKOxwgMAMCK3VF+xdU1lT4ZIzl0eH94ODw8nGFLxPnrDk60qG5vIKi7FV52+csXVVX5lJmXM2JzB6rrr2qoLVdFREwTcRyC1PwUKaH9ez7tolxjbXNLY70HG145WrnllVPd/XWLGoN+EQCwxHmuXHtbLXZ6Xco5CQ28qzTo85XaBQ4AED9xqTEejUcGu4ewr+2tFAYOWOJUf++oTfbHNQD5i5RcyOYO+oNBt5VHAMALPMBEUiFRUT0VVV4LxyMAm02WeMHIa8Zscy5YDc4VUHR5fP6KoCoiAMATTzhnRkyOOkb1kZ6heDR7fK8sjJ7kgBhaNKxFSDSV0XQGIgJAGCnB0KWzeygkNJYkUeDxzJOMEsr0fC4f7uvNT6zlkS9YXVFd5cRz9jKb8rRzmCahxDz9JlEQeFE88x7EYSxZRASAABgghE7v6IwIszxk6uQcEEVBFKXZlRdCCIB9TpSYpknIRC/UJITlkrHIUC9JIAAA5m5qdlcuclsKF3DnvWDhVYfqrlpc77vtkY1XOy0SYowYhCHghKlxjDkOmGkahskAo6kHxzzPI6BaNm0yC2Y0E02MpxJZh/UcA5+ZqOdSriHEYQ6ZumlS8xxXOBhzGGGipTST2jA1kvFEMp7M0wAAQqIn4Hax0LKV625sqbUKGCgxdYJEHnN4unNGTMIQhzkOXfimEvbXVpSppeMdb757dCiR03KZRKSvf2B4MG5OPZtVliGfjY8MjeUppYQQAAacxa6qvKH3He6I5HN6Jrzv44PHu7uz5xt/JuYvridaOMwLNps41jcYzyTzhFBKyFlmC2RVFRUrqa49B8bSWj490HHo8PEDfQYAAOb5xcubXOHRI3t3dfTHsnk9Ox777GjXcGI8O9Uto6Anx6Jj45mcflqo81+C8/66Zas5Udq6/fnfvjOWJYJo99Uu++51rcHqiQs4z+Urrhl6t+29F35x10sO1XnZbT/b2FLmLCm9fMnS5Hc+27r5p/dsFmzemuZgyaIr7MJ5E5iF+fOUAXA2t71pze0Nm3c+9+Q2sLjqlrdcd8Od3w4UcDlkqahqWLrmmr5Xn330J9hi9dfWuTwNV9jCAAAciKFVd2ywtH304eu/3/TXtI5km7t86ffvWnu1wz0RVE9rHX97+lVad/P6NSsbKqeccM46Ghgjqb6DPbrX4/GUuiyzS1SS0xKxoYGhSEIzGIdFxeEN+gN+n3VyfJB0JDwyMhhJaZTnpZKq+iq3VZTA0JKx0cGB/phGEC87A3acxYLEuapDLgTGaNfhKHP53EFvyQzxSToyGI0lMiW19X6JQwBmPNwfHcsIJTWVgYn6qZAhEGpkoj3d/bGsRpFo93r8ZSGfjADoeO/JIRNUV0W5S545p5paYjzc3zM4rlGOV1xuG3C8kOW9l1U6OACmJ2OR8Eg4Fs/oBHhRtnkXVQdcNlVEAMxMR/vfePw3B1rW3dq67luVzinLmFvoixJF8XnXzMUHdv/p8W0VD65fdeXyKtv00Cnu3bvzwvzF3fmWfV8EiJesoWtXNtdUe5QZC9eFk9ETKIq8ngPF+inrgnGh+3xfNRac0AXxDf4iskCFLr5vuwtUaCi6X58WrtBwFjm/Zq0XUHk3J4rm54T/A5BLOFp3BTGvAAAAAElFTkSuQmCC;" parent="1" vertex="1">
                    <mxGeometry x="383.53" y="2058.5" width="80" height="20" as="geometry"/>
                </mxCell>
                <mxCell id="190" value="b7" style="text;html=1;align=center;verticalAlign=middle;resizable=0;points=[];autosize=1;strokeColor=none;fillColor=none;" parent="1" vertex="1">
                    <mxGeometry x="369.5" y="2028.5" width="40" height="30" as="geometry"/>
                </mxCell>
                <mxCell id="191" value="b8" style="text;html=1;align=center;verticalAlign=middle;resizable=0;points=[];autosize=1;strokeColor=none;fillColor=none;" parent="1" vertex="1">
                    <mxGeometry x="110" y="2156" width="40" height="30" as="geometry"/>
                </mxCell>
                <mxCell id="206" value="" style="shape=table;startSize=0;container=1;collapsible=0;childLayout=tableLayout;" parent="1" vertex="1">
                    <mxGeometry x="1021" y="780" width="500" height="40" as="geometry"/>
                </mxCell>
                <mxCell id="219" value="" style="shape=tableRow;horizontal=0;startSize=0;swimlaneHead=0;swimlaneBody=0;top=0;left=0;bottom=0;right=0;collapsible=0;dropTarget=0;fillColor=none;points=[[0,0.5],[1,0.5]];portConstraint=eastwest;" parent="206" vertex="1">
                    <mxGeometry width="500" height="40" as="geometry"/>
                </mxCell>
                <mxCell id="220" value="JC" style="shape=partialRectangle;html=1;whiteSpace=wrap;connectable=0;overflow=hidden;fillColor=none;top=0;left=0;bottom=0;right=0;pointerEvents=1;" parent="219" vertex="1">
                    <mxGeometry width="100" height="40" as="geometry">
                        <mxRectangle width="100" height="40" as="alternateBounds"/>
                    </mxGeometry>
                </mxCell>
                <mxCell id="221" value="B2" style="shape=partialRectangle;html=1;whiteSpace=wrap;connectable=0;overflow=hidden;fillColor=none;top=0;left=0;bottom=0;right=0;pointerEvents=1;" parent="219" vertex="1">
                    <mxGeometry x="100" width="300" height="40" as="geometry">
                        <mxRectangle width="300" height="40" as="alternateBounds"/>
                    </mxGeometry>
                </mxCell>
                <mxCell id="222" value="JA" style="shape=partialRectangle;html=1;whiteSpace=wrap;connectable=0;overflow=hidden;fillColor=none;top=0;left=0;bottom=0;right=0;pointerEvents=1;" parent="219" vertex="1">
                    <mxGeometry x="400" width="100" height="40" as="geometry">
                        <mxRectangle width="100" height="40" as="alternateBounds"/>
                    </mxGeometry>
                </mxCell>
                <mxCell id="227" value="JB" style="text;html=1;align=center;verticalAlign=middle;resizable=0;points=[];autosize=1;strokeColor=none;fillColor=none;" parent="1" vertex="1">
                    <mxGeometry x="674.5" y="940" width="40" height="30" as="geometry"/>
                </mxCell>
                <mxCell id="266" value="" style="shape=table;startSize=0;container=1;collapsible=0;childLayout=tableLayout;" parent="1" vertex="1">
                    <mxGeometry x="1021" y="820" width="500" height="40" as="geometry"/>
                </mxCell>
                <mxCell id="267" value="" style="shape=tableRow;horizontal=0;startSize=0;swimlaneHead=0;swimlaneBody=0;top=0;left=0;bottom=0;right=0;collapsible=0;dropTarget=0;fillColor=none;points=[[0,0.5],[1,0.5]];portConstraint=eastwest;" parent="266" vertex="1">
                    <mxGeometry width="500" height="40" as="geometry"/>
                </mxCell>
                <mxCell id="268" value="JA" style="shape=partialRectangle;html=1;whiteSpace=wrap;connectable=0;overflow=hidden;fillColor=none;top=0;left=0;bottom=0;right=0;pointerEvents=1;" parent="267" vertex="1">
                    <mxGeometry width="100" height="40" as="geometry">
                        <mxRectangle width="100" height="40" as="alternateBounds"/>
                    </mxGeometry>
                </mxCell>
                <mxCell id="269" value="B4" style="shape=partialRectangle;html=1;whiteSpace=wrap;connectable=0;overflow=hidden;fillColor=none;top=0;left=0;bottom=0;right=0;pointerEvents=1;" parent="267" vertex="1">
                    <mxGeometry x="100" width="300" height="40" as="geometry">
                        <mxRectangle width="300" height="40" as="alternateBounds"/>
                    </mxGeometry>
                </mxCell>
                <mxCell id="270" value="RETURN" style="shape=partialRectangle;html=1;whiteSpace=wrap;connectable=0;overflow=hidden;fillColor=none;top=0;left=0;bottom=0;right=0;pointerEvents=1;" parent="267" vertex="1">
                    <mxGeometry x="400" width="100" height="40" as="geometry">
                        <mxRectangle width="100" height="40" as="alternateBounds"/>
                    </mxGeometry>
                </mxCell>
                <mxCell id="271" value="" style="shape=table;startSize=0;container=1;collapsible=0;childLayout=tableLayout;" parent="1" vertex="1">
                    <mxGeometry x="1021" y="860.5" width="500" height="40" as="geometry"/>
                </mxCell>
                <mxCell id="272" value="" style="shape=tableRow;horizontal=0;startSize=0;swimlaneHead=0;swimlaneBody=0;top=0;left=0;bottom=0;right=0;collapsible=0;dropTarget=0;fillColor=none;points=[[0,0.5],[1,0.5]];portConstraint=eastwest;" parent="271" vertex="1">
                    <mxGeometry width="500" height="40" as="geometry"/>
                </mxCell>
                <mxCell id="273" value="JC" style="shape=partialRectangle;html=1;whiteSpace=wrap;connectable=0;overflow=hidden;fillColor=none;top=0;left=0;bottom=0;right=0;pointerEvents=1;" parent="272" vertex="1">
                    <mxGeometry width="100" height="40" as="geometry">
                        <mxRectangle width="100" height="40" as="alternateBounds"/>
                    </mxGeometry>
                </mxCell>
                <mxCell id="274" value="B2 - B3" style="shape=partialRectangle;html=1;whiteSpace=wrap;connectable=0;overflow=hidden;fillColor=none;top=0;left=0;bottom=0;right=0;pointerEvents=1;" parent="272" vertex="1">
                    <mxGeometry x="100" width="300" height="40" as="geometry">
                        <mxRectangle width="300" height="40" as="alternateBounds"/>
                    </mxGeometry>
                </mxCell>
                <mxCell id="275" value="JB" style="shape=partialRectangle;html=1;whiteSpace=wrap;connectable=0;overflow=hidden;fillColor=none;top=0;left=0;bottom=0;right=0;pointerEvents=1;" parent="272" vertex="1">
                    <mxGeometry x="400" width="100" height="40" as="geometry">
                        <mxRectangle width="100" height="40" as="alternateBounds"/>
                    </mxGeometry>
                </mxCell>
                <mxCell id="276" value="" style="shape=table;startSize=0;container=1;collapsible=0;childLayout=tableLayout;" parent="1" vertex="1">
                    <mxGeometry x="1021" y="900" width="500" height="40" as="geometry"/>
                </mxCell>
                <mxCell id="277" value="" style="shape=tableRow;horizontal=0;startSize=0;swimlaneHead=0;swimlaneBody=0;top=0;left=0;bottom=0;right=0;collapsible=0;dropTarget=0;fillColor=none;points=[[0,0.5],[1,0.5]];portConstraint=eastwest;" parent="276" vertex="1">
                    <mxGeometry width="500" height="40" as="geometry"/>
                </mxCell>
                <mxCell id="278" value="JC" style="shape=partialRectangle;html=1;whiteSpace=wrap;connectable=0;overflow=hidden;fillColor=none;top=0;left=0;bottom=0;right=0;pointerEvents=1;" parent="277" vertex="1">
                    <mxGeometry width="100" height="40" as="geometry">
                        <mxRectangle width="100" height="40" as="alternateBounds"/>
                    </mxGeometry>
                </mxCell>
                <mxCell id="279" value="B2 - B3 - B5&amp;nbsp;" style="shape=partialRectangle;html=1;whiteSpace=wrap;connectable=0;overflow=hidden;fillColor=none;top=0;left=0;bottom=0;right=0;pointerEvents=1;" parent="277" vertex="1">
                    <mxGeometry x="100" width="300" height="40" as="geometry">
                        <mxRectangle width="300" height="40" as="alternateBounds"/>
                    </mxGeometry>
                </mxCell>
                <mxCell id="280" value="RETURN" style="shape=partialRectangle;html=1;whiteSpace=wrap;connectable=0;overflow=hidden;fillColor=none;top=0;left=0;bottom=0;right=0;pointerEvents=1;" parent="277" vertex="1">
                    <mxGeometry x="400" width="100" height="40" as="geometry">
                        <mxRectangle width="100" height="40" as="alternateBounds"/>
                    </mxGeometry>
                </mxCell>
                <mxCell id="309" value="" style="shape=table;startSize=0;container=1;collapsible=0;childLayout=tableLayout;strokeWidth=1;" vertex="1" parent="1">
                    <mxGeometry x="920" y="2050" width="500" height="40" as="geometry"/>
                </mxCell>
                <mxCell id="326" value="" style="shape=tableRow;horizontal=0;startSize=0;swimlaneHead=0;swimlaneBody=0;top=0;left=0;bottom=0;right=0;collapsible=0;dropTarget=0;fillColor=none;points=[[0,0.5],[1,0.5]];portConstraint=eastwest;strokeWidth=3;" vertex="1" parent="309">
                    <mxGeometry width="500" height="40" as="geometry"/>
                </mxCell>
                <mxCell id="327" value="JC" style="shape=partialRectangle;html=1;whiteSpace=wrap;connectable=0;overflow=hidden;fillColor=none;top=0;left=0;bottom=0;right=0;pointerEvents=1;strokeWidth=3;" vertex="1" parent="326">
                    <mxGeometry width="100" height="40" as="geometry">
                        <mxRectangle width="100" height="40" as="alternateBounds"/>
                    </mxGeometry>
                </mxCell>
                <mxCell id="328" value="B3 - B4 - B5" style="shape=partialRectangle;html=1;whiteSpace=wrap;connectable=0;overflow=hidden;fillColor=none;top=0;left=0;bottom=0;right=0;pointerEvents=1;strokeWidth=3;" vertex="1" parent="326">
                    <mxGeometry x="100" width="300" height="40" as="geometry">
                        <mxRectangle width="300" height="40" as="alternateBounds"/>
                    </mxGeometry>
                </mxCell>
                <mxCell id="329" value="RETURN" style="shape=partialRectangle;html=1;whiteSpace=wrap;connectable=0;overflow=hidden;fillColor=none;top=0;left=0;bottom=0;right=0;pointerEvents=1;strokeWidth=3;" vertex="1" parent="326">
                    <mxGeometry x="400" width="100" height="40" as="geometry">
                        <mxRectangle width="100" height="40" as="alternateBounds"/>
                    </mxGeometry>
                </mxCell>
            </root>
        </mxGraphModel>
    </diagram>
</mxfile>